<svg width="45" height="45" xmlns="http://www.w3.org/2000/svg">
 <defs>
  <style>.a{fill:#282828;}.b{fill:#de323c;}</style>
 </defs>
 <title>Abacus_Logo_19_RGB</title>
 <g>
  <title>Layer 1</title>
  <path id="svg_1" d="m185.13,29.58l3.49,3.42a15.39,15.39 0 0 1 -11.74,5.19c-8.82,0 -15.48,-6.75 -15.48,-15.79s6.78,-15.79 15.44,-15.79a15.29,15.29 0 0 1 11.34,4.8l-3.53,3.44a10.51,10.51 0 0 0 -7.77,-3.36c-6.08,0 -10.16,5.08 -10.16,10.91s4.2,10.9 10.21,10.9a10.88,10.88 0 0 0 8.2,-3.72z" class="a"/>
  <path id="svg_2" d="m245.35,25c-4.84,-1.79 -9.55,-4.19 -9.55,-9.42c0,-4.81 4,-8.9 9.9,-8.9a13,13 0 0 1 10,4.84l-3.62,3.58a8.39,8.39 0 0 0 -6.37,-3.45c-2.41,0 -4.62,1.36 -4.62,3.75c0,5.9 15.13,3.75 15.13,14.09c0,5.7 -4.68,8.77 -10.42,8.77a13.07,13.07 0 0 1 -11.36,-6.26l3.93,-3.32c1.7,2.71 4.27,4.58 7.46,4.58c2.59,0 5.1,-1.09 5.1,-3.7s-2.99,-3.68 -5.58,-4.56z" class="a"/>
  <path id="svg_3" d="m223.9,7.16l0,19.45c0,6.7 -4.56,11.61 -11.77,11.61s-11.78,-4.92 -11.78,-11.61l0,-19.45l5.23,0l0,18.84c0,4.26 2.1,7.28 6.55,7.28s6.54,-3 6.54,-7.28l0,-18.84l5.23,0z" class="a"/>
  <polygon id="svg_4" points="68.3 6.18 53.77 37.69 59.1 37.69 68.3 17.56 77.47 37.69 82.81 37.69 68.3 6.18" class="a"/>
  <polygon id="svg_5" points="138.93 6.18 124.4 37.69 129.75 37.69 138.93 17.56 148.11 37.69 153.46 37.69 138.93 6.18" class="a"/>
  <path id="svg_6" d="m110.38,21.51c1.75,-0.88 3.18,-2.85 3.18,-6c0,-5.47 -4.31,-8.33 -9.72,-8.33l-9.9,0l0,30.51l11,0c5.52,0 10.2,-3.41 10.2,-9.07c-0.01,-3.76 -2.53,-6.55 -4.76,-7.11zm-5.61,11.85l-5.93,0l0,-21.87l4.77,0c2.87,0 5,1.29 5,4.17s-1.87,4.11 -4.79,4.11l1,4.68c3.08,0 5.31,1.3 5.31,4.35c0.04,3.28 -2.13,4.56 -5.36,4.56z" class="a"/>
  <path id="svg_7" d="m12.17,13.79a1.85,1.85 0 1 0 -2.62,0a1.85,1.85 0 0 0 2.62,0z" class="b"/>
  <path id="svg_8" d="m17.16,18.66a1.85,1.85 0 1 0 -2.61,0l0,0a1.87,1.87 0 0 0 2.61,0z" class="b"/>
  <path id="svg_9" d="m14.2,5.88a2.25,2.25 0 1 0 3.19,0l0,0a2.25,2.25 0 0 0 -3.19,0z" class="b"/>
  <path id="svg_10" d="m22.37,10.81a2.25,2.25 0 1 0 0,3.08a2.24,2.24 0 0 0 0,-3.08z" class="b"/>
  <path id="svg_11" d="m27.3,15.74a2.25,2.25 0 1 0 0,3.18l0,0a2.23,2.23 0 0 0 0,-3.15l0,-0.03z" class="b"/>
  <path id="svg_12" d="m33.74,25.36a2.64,2.64 0 1 0 3.74,0l0,0a2.64,2.64 0 0 0 -3.74,0z" class="b"/>
  <path id="svg_13" d="m28.78,30.32a2.64,2.64 0 1 0 3.74,0l0,0a2.64,2.64 0 0 0 -3.74,0z" class="b"/>
  <path id="svg_14" d="m23.84,35.25a2.64,2.64 0 1 0 3.74,0a2.65,2.65 0 0 0 -3.74,0z" class="b"/>
  <path id="svg_15" d="m18.89,40.22a2.64,2.64 0 1 0 3.74,0l0,0a2.63,2.63 0 0 0 -3.72,0l-0.02,0z" class="b"/>
  <path id="svg_16" d="m42.39,20.5a2.64,2.64 0 1 0 0,3.73l0,0a2.63,2.63 0 0 0 0,-3.72l0,-0.01z" class="b"/>
  <path id="svg_17" d="m33.72,19.37a2.64,2.64 0 1 0 0,-3.74a2.64,2.64 0 0 0 0,3.74z" class="b"/>
  <path id="svg_18" d="m28.76,14.41a2.64,2.64 0 1 0 0,-3.74a2.64,2.64 0 0 0 0,3.74z" class="b"/>
  <path id="svg_19" d="m23.83,9.47a2.64,2.64 0 1 0 0,-3.73l0,0a2.63,2.63 0 0 0 0,3.72l0,0.01z" class="b"/>
  <path id="svg_20" d="m22.6,4.51a2.64,2.64 0 1 0 -3.73,0l0,0a2.62,2.62 0 0 0 3.71,0l0.02,0z" class="b"/>
  <path id="svg_21" d="m14.2,35.59a2.25,2.25 0 1 0 3.19,0l0,0a2.23,2.23 0 0 0 -3.15,0l-0.04,0z" class="b"/>
  <path id="svg_22" d="m9.61,30.89a1.85,1.85 0 1 0 2.62,0a1.85,1.85 0 0 0 -2.62,0z" class="b"/>
  <path id="svg_23" d="m14.48,28.51a1.85,1.85 0 1 0 0,-2.62a1.86,1.86 0 0 0 0,2.62z" class="b"/>
  <path id="svg_24" d="m22.06,23.61a1.85,1.85 0 1 0 -2.62,0a1.85,1.85 0 0 0 2.62,0z" class="b"/>
  <path id="svg_25" d="m9.9,21.17a1.45,1.45 0 1 0 2,0s0,0 0,0a1.46,1.46 0 0 0 -2,0z" class="b"/>
  <path id="svg_26" d="m4.87,26.07a1.46,1.46 0 1 0 1.92,2.2a0.93,0.93 0 0 0 0.14,-0.14a1.46,1.46 0 0 0 -2.06,-2.06z" class="b"/>
  <path id="svg_27" d="m5.29,16.52a1.46,1.46 0 0 0 0,2.05a1.45,1.45 0 1 0 2.05,-2.05l0,0a1.43,1.43 0 0 0 -2,0l-0.05,0z" class="b"/>
  <path id="svg_28" d="m0.38,21.37a1.28,1.28 0 0 0 0,1.8l0,0a1.28,1.28 0 0 0 1.8,0l0,0a1.29,1.29 0 0 0 -0.12,-1.82a1.3,1.3 0 0 0 -1.68,0.02z" class="b"/>
  <path id="svg_29" d="m19.13,33.77a2.25,2.25 0 1 0 0,-3.18l0,0a2.26,2.26 0 0 0 0,3.18z" class="b"/>
  <path id="svg_30" d="m24.06,25.66a2.25,2.25 0 1 0 3.19,0l0,0a2.26,2.26 0 0 0 -3.19,0z" class="b"/>
  <path id="svg_31" d="m29.06,20.73a2.25,2.25 0 1 0 3.19,0l0,0a2.25,2.25 0 0 0 -3.19,0z" class="b"/>
 </g>
</svg>