<?xml version="1.0" encoding="UTF-8" standalone="no"?>
<!DOCTYPE svg PUBLIC "-//W3C//DTD SVG 1.1//EN" "http://www.w3.org/Graphics/SVG/1.1/DTD/svg11.dtd">
<!-- Created with Vectornator (http://vectornator.io/) -->
<svg height="40.0pt" stroke-miterlimit="10" style="fill-rule:nonzero;clip-rule:evenodd;stroke-linecap:round;stroke-linejoin:round;" version="1.1" viewBox="0 0 40 40" width="40.0pt" xml:space="preserve" xmlns="http://www.w3.org/2000/svg" xmlns:xlink="http://www.w3.org/1999/xlink">
<defs/>
<g id="图层-1">
<path d="M32.6786 4.23558C32.6786 4.14446 32.7087 4.07058 32.7458 4.07058L36.9817 4.07058C37.0188 4.07058 37.0489 4.14446 37.0489 4.23558L37.0489 13.9674C37.0489 14.0586 37.0188 14.1325 36.9817 14.1325L32.7458 14.1325C32.7087 14.1325 32.6786 14.0586 32.6786 13.9674L32.6786 4.23558Z" fill="#687f8f" fill-opacity="0.8" fill-rule="nonzero" opacity="1" stroke="none"/>
<path d="M16.4383 8.72732C16.4383 8.65573 16.4881 8.59768 16.5495 8.59768L31.2828 8.59768C31.3442 8.59768 31.394 8.65573 31.394 8.72732L31.394 25.2935C31.394 25.3651 31.3442 25.4231 31.2828 25.4231L16.5495 25.4231C16.4881 25.4231 16.4383 25.3651 16.4383 25.2935L16.4383 8.72732Z" fill="#687f8f" fill-opacity="0.8" fill-rule="nonzero" opacity="1" stroke="none"/>
<path d="M2.9511 26.9913C2.9511 26.9687 3.01048 26.9503 3.08372 26.9503L36.9162 26.9503C36.9896 26.9503 37.0489 26.9687 37.0489 26.9913L37.0489 30.6729C37.0489 30.6955 36.9896 30.714 36.9162 30.714L3.08372 30.714C3.01048 30.714 2.9511 30.6955 2.9511 30.6729L2.9511 26.9913Z" fill="#bc238b" fill-rule="nonzero" opacity="1" stroke="none"/>
<path d="M2.95108 32.2104C2.95108 32.1877 2.97215 32.1694 2.99813 32.1694L15.001 32.1694C15.027 32.1694 15.0481 32.1877 15.0481 32.2104L15.0481 35.8885C15.0481 35.9111 15.027 35.9294 15.001 35.9294L2.99813 35.9294C2.97215 35.9294 2.95108 35.9111 2.95108 35.8885L2.95108 32.2104Z" fill="#bc238b" fill-rule="nonzero" opacity="1" stroke="none"/>
<path d="M16.281 32.2104C16.281 32.1877 16.3172 32.1694 16.3618 32.1694L36.9681 32.1694C37.0128 32.1694 37.0489 32.1877 37.0489 32.2104L37.0489 35.8885C37.0489 35.9111 37.0128 35.9294 36.9681 35.9294L16.3618 35.9294C16.3172 35.9294 16.281 35.9111 16.281 35.8885L16.281 32.2104Z" fill="#bc238b" fill-rule="nonzero" opacity="1" stroke="none"/>
<path d="M2.9511 14.5674C2.9511 14.5045 3.015 14.4536 3.09383 14.4536L14.9054 14.4536C14.9842 14.4536 15.0481 14.5045 15.0481 14.5674L15.0481 25.3283C15.0481 25.3912 14.9842 25.4421 14.9054 25.4421L3.09383 25.4421C3.015 25.4421 2.9511 25.3912 2.9511 25.3283L2.9511 14.5674Z" fill="#728898" fill-rule="nonzero" opacity="1" stroke="none"/>
<path d="M17.97 18.5118C17.97 18.433 18.0495 18.3691 18.1475 18.3691L29.7758 18.3691C29.8738 18.3691 29.9533 18.433 29.9533 18.5118L29.9533 20.3398C29.9533 20.4187 29.8738 20.4826 29.7758 20.4826L18.1475 20.4826C18.0495 20.4826 17.97 20.4187 17.97 20.3398L17.97 18.5118Z" fill="#aeb9c0" fill-rule="nonzero" opacity="1" stroke="none"/>
<path d="M17.9701 21.7222C17.9701 21.6434 18.0495 21.5795 18.1476 21.5795L29.7759 21.5795C29.8739 21.5795 29.9533 21.6434 29.9533 21.7222L29.9533 23.5503C29.9533 23.6291 29.8739 23.693 29.7759 23.693L18.1476 23.693C18.0495 23.693 17.9701 23.6291 17.9701 23.5503L17.9701 21.7222Z" fill="#aeb9c0" fill-rule="nonzero" opacity="1" stroke="none"/>
<path d="M17.9673 15.3905C17.9673 15.3116 18.0468 15.2477 18.1448 15.2477L29.7758 15.2477C29.8738 15.2477 29.9533 15.3116 29.9533 15.3905L29.9533 17.2185C29.9533 17.2973 29.8738 17.3612 29.7758 17.3612L18.1448 17.3612C18.0468 17.3612 17.9673 17.2973 17.9673 17.2185L17.9673 15.3905Z" fill="#aeb9c0" fill-rule="nonzero" opacity="1" stroke="none"/>
<path d="M3.07424 4.23546C3.07424 4.14439 3.22336 4.07058 3.4073 4.07058L8.20893 4.07058C8.39287 4.07058 8.54199 4.14439 8.54199 4.23546L8.54199 13.035C8.54199 13.1261 8.39287 13.1999 8.20893 13.1999L3.4073 13.1999C3.22336 13.1999 3.07424 13.1261 3.07424 13.035L3.07424 4.23546Z" fill="#728898" fill-rule="nonzero" opacity="1" stroke="none"/>
<path d="M17.9673 10.3622C17.9673 10.2246 18.0562 10.1133 18.1657 10.1133L29.7549 10.1133C29.8645 10.1133 29.9533 10.2246 29.9533 10.3622L29.9533 13.8835C29.9533 14.021 29.8645 14.1325 29.7549 14.1325L18.1657 14.1325C18.0562 14.1325 17.9673 14.021 17.9673 13.8835L17.9673 10.3622Z" fill="#c94fa2" fill-rule="nonzero" opacity="1" stroke="none"/>
<g opacity="1">
<path d="M20.4271 12.8568L20.8719 12.2072C20.9279 12.1253 20.9293 12.018 20.8754 11.9348L20.5122 11.3742C20.4696 11.3065 20.4377 11.2483 20.4164 11.1998C20.3951 11.1511 20.3845 11.1046 20.3845 11.0597C20.3845 11.0137 20.405 10.9725 20.4459 10.9359C20.4869 10.8993 20.5368 10.8811 20.5958 10.8811C20.6635 10.8811 20.7163 10.901 20.7539 10.9409C20.7915 10.9807 20.8438 11.0547 20.9104 11.1628L21.0686 11.4189C21.1629 11.5716 21.3838 11.5749 21.4828 11.4251L21.6558 11.1628C21.6875 11.1137 21.7145 11.0716 21.7368 11.0368C21.7593 11.0019 21.7809 10.9728 21.8016 10.9499C21.8224 10.927 21.8455 10.9097 21.8712 10.8983C21.8968 10.8868 21.9266 10.8811 21.9605 10.8811C22.0217 10.8811 22.0716 10.8993 22.1104 10.9359C22.1492 10.9725 22.1685 11.0159 22.1685 11.0663C22.1685 11.1394 22.1265 11.2387 22.0425 11.3643L21.659 11.9374C21.6044 12.0191 21.6036 12.1255 21.6571 12.208L22.0784 12.8568C22.1244 12.9257 22.1577 12.9827 22.1784 13.028C22.1992 13.0734 22.2096 13.1163 22.2096 13.1567C22.2096 13.1947 22.2003 13.2298 22.1817 13.2616C22.1631 13.2931 22.1369 13.3183 22.103 13.3369C22.0691 13.3553 22.031 13.3647 21.9884 13.3647C21.9424 13.3647 21.9037 13.3552 21.8721 13.336C21.8404 13.317 21.8147 13.2931 21.795 13.2647C21.7753 13.2364 21.7388 13.1812 21.6853 13.0993L21.4668 12.7556C21.371 12.605 21.1517 12.6033 21.0538 12.7525L20.8137 13.119C20.7788 13.1736 20.7539 13.2117 20.7392 13.2337C20.7245 13.2555 20.7067 13.2768 20.686 13.2974C20.6652 13.3183 20.6406 13.3347 20.6123 13.3466C20.5838 13.3587 20.5505 13.3647 20.5122 13.3647C20.4534 13.3647 20.4044 13.3466 20.3656 13.3107C20.3269 13.2746 20.3075 13.2221 20.3075 13.1533C20.3075 13.0725 20.3473 12.9737 20.4271 12.8568Z" fill="#ffffff" fill-rule="nonzero" opacity="1" stroke="none"/>
<path d="M24.8694 12.9355C24.9404 12.9837 25.0179 13.0302 25.102 13.0756C25.1861 13.1208 25.2418 13.1569 25.2692 13.1837C25.2965 13.2104 25.3101 13.2485 25.3101 13.2977C25.3101 13.3326 25.2939 13.3674 25.2617 13.4026C25.2295 13.4374 25.1904 13.4548 25.1446 13.4548C25.1075 13.4548 25.0624 13.4427 25.0094 13.4187C24.9565 13.3948 24.8942 13.3598 24.8227 13.3139C24.7511 13.2681 24.6728 13.2146 24.5876 13.1534C24.4292 13.2342 24.2349 13.2747 24.0044 13.2747C23.8176 13.2747 23.6502 13.2449 23.5023 13.1854C23.3542 13.1259 23.2301 13.0401 23.1296 12.928C23.0291 12.8162 22.9534 12.6831 22.9026 12.5292C22.8518 12.3753 22.8265 12.2075 22.8265 12.0262C22.8265 11.8417 22.8529 11.6724 22.9059 11.5183C22.9588 11.3644 23.0356 11.2334 23.1361 11.1251C23.2366 11.0172 23.3589 10.9344 23.5031 10.8771C23.6473 10.8197 23.8111 10.791 23.9945 10.791C24.2435 10.791 24.4573 10.8415 24.6359 10.9425C24.8145 11.0436 24.9497 11.1873 25.0414 11.3734C25.1331 11.5596 25.1791 11.7785 25.1791 12.0295C25.1791 12.4107 25.0758 12.7127 24.8694 12.9355ZM24.4876 12.6701C24.5554 12.5925 24.6054 12.5008 24.6376 12.395C24.6698 12.2889 24.6858 12.1661 24.6858 12.0262C24.6858 11.8504 24.6575 11.6981 24.6007 11.5693C24.544 11.4404 24.4629 11.3429 24.3574 11.2768C24.252 11.2107 24.1311 11.1776 23.9945 11.1776C23.8974 11.1776 23.8075 11.196 23.7251 11.2325C23.6426 11.2691 23.5716 11.3223 23.512 11.3923C23.4526 11.4622 23.4056 11.5514 23.3712 11.6601C23.3368 11.7688 23.3196 11.8908 23.3196 12.0262C23.3196 12.3027 23.384 12.5152 23.5129 12.6644C23.6417 12.8135 23.8045 12.888 24.0012 12.888C24.082 12.888 24.165 12.8711 24.2502 12.8372C24.1988 12.7991 24.1346 12.7608 24.0576 12.7226C23.9806 12.6843 23.9279 12.6548 23.8996 12.634C23.8711 12.6134 23.857 12.5838 23.857 12.5456C23.857 12.5129 23.8706 12.4838 23.8979 12.4588C23.9251 12.4337 23.9552 12.4211 23.988 12.4211C24.0874 12.4211 24.2539 12.5042 24.4876 12.6701Z" fill="#ffffff" fill-rule="nonzero" opacity="1" stroke="none"/>
<path d="M26.5352 11.1964L26.5352 12.6987C26.5352 12.8344 26.6453 12.9444 26.781 12.9444L27.5214 12.9444C27.6001 12.9444 27.6604 12.9636 27.7025 13.0019C27.7447 13.0401 27.7655 13.0881 27.7655 13.1459C27.7655 13.205 27.7448 13.2527 27.7034 13.2894C27.6619 13.3259 27.6012 13.3443 27.5214 13.3443L26.3468 13.3443C26.241 13.3443 26.1646 13.3208 26.1184 13.2738C26.0718 13.2268 26.0488 13.1509 26.0488 13.046L26.0488 11.1964C26.0488 11.0981 26.0709 11.0245 26.115 10.9753C26.1593 10.9262 26.2175 10.9015 26.2895 10.9015C26.3626 10.9015 26.422 10.9258 26.4673 10.9745C26.5126 11.023 26.5352 11.0972 26.5352 11.1964Z" fill="#ffffff" fill-rule="nonzero" opacity="1" stroke="none"/>
</g>
<path d="M32.6786 21.304C32.6786 21.1639 32.7823 21.0503 32.9104 21.0503L36.8171 21.0503C36.9451 21.0503 37.0489 21.1639 37.0489 21.304L37.0489 25.1694C37.0489 25.3095 36.9451 25.4231 36.8171 25.4231L32.9104 25.4231C32.7823 25.4231 32.6786 25.3095 32.6786 25.1694L32.6786 21.304Z" fill="#c94fa2" fill-rule="nonzero" opacity="1" stroke="none"/>
<path d="M9.76177 7.38587C9.76177 7.28359 9.85649 7.20067 9.97333 7.20067L14.8365 7.20067C14.9534 7.20067 15.0481 7.28359 15.0481 7.38587L15.0481 13.0146C15.0481 13.1169 14.9534 13.1999 14.8365 13.1999L9.97333 13.1999C9.85649 13.1999 9.76177 13.1169 9.76177 13.0146L9.76177 7.38587Z" fill="#4f6b7e" fill-opacity="0.8" fill-rule="nonzero" opacity="1" stroke="none"/>
<path d="M4.43055 16.4158C4.43055 16.2069 4.61021 16.0376 4.83186 16.0376L8.59829 16.0376C8.81984 16.0376 8.99959 16.2069 8.99959 16.4158L8.99959 20.1044C8.99959 20.3132 8.81984 20.4826 8.59829 20.4826L4.83186 20.4826C4.61021 20.4826 4.43055 20.3132 4.43055 20.1044L4.43055 16.4158Z" fill="#ffffff" fill-rule="nonzero" opacity="1" stroke="none"/>
<path d="M19.3281 16.043C19.3281 15.9642 19.4302 15.9003 19.5561 15.9003L22.9609 15.9003C23.0869 15.9003 23.189 15.9642 23.189 16.043L23.189 16.5659C23.189 16.6447 23.0869 16.7086 22.9609 16.7086L19.5561 16.7086C19.4302 16.7086 19.3281 16.6447 19.3281 16.5659L19.3281 16.043Z" fill="#728898" fill-rule="nonzero" opacity="1" stroke="none"/>
<path d="M19.3281 19.1643C19.3281 19.0855 19.4302 19.0216 19.5561 19.0216L22.9609 19.0216C23.0869 19.0216 23.189 19.0855 23.189 19.1643L23.189 19.6873C23.189 19.7661 23.0869 19.8301 22.9609 19.8301L19.5561 19.8301C19.4302 19.8301 19.3281 19.7661 19.3281 19.6873L19.3281 19.1643Z" fill="#728898" fill-rule="nonzero" opacity="1" stroke="none"/>
<path d="M19.3281 22.3748C19.3281 22.2959 19.4302 22.232 19.5561 22.232L22.9609 22.232C23.0869 22.232 23.189 22.2959 23.189 22.3748L23.189 22.8977C23.189 22.9766 23.0869 23.0405 22.9609 23.0405L19.5561 23.0405C19.4302 23.0405 19.3281 22.9766 19.3281 22.8977L19.3281 22.3748Z" fill="#728898" fill-rule="nonzero" opacity="1" stroke="none"/>
<path d="M23.5959 16.043C23.5959 15.9642 23.6598 15.9003 23.7386 15.9003L24.2669 15.9003C24.3457 15.9003 24.4096 15.9642 24.4096 16.043L24.4096 16.5659C24.4096 16.6447 24.3457 16.7086 24.2669 16.7086L23.7386 16.7086C23.6598 16.7086 23.5959 16.6447 23.5959 16.5659L23.5959 16.043Z" fill="#728898" fill-rule="nonzero" opacity="1" stroke="none"/>
<path d="M23.5959 19.1643C23.5959 19.0855 23.6598 19.0216 23.7386 19.0216L24.2669 19.0216C24.3457 19.0216 24.4096 19.0855 24.4096 19.1643L24.4096 19.6873C24.4096 19.7661 24.3457 19.8301 24.2669 19.8301L23.7386 19.8301C23.6598 19.8301 23.5959 19.7661 23.5959 19.6873L23.5959 19.1643Z" fill="#728898" fill-rule="nonzero" opacity="1" stroke="none"/>
<path d="M23.5959 22.3748C23.5959 22.2959 23.6598 22.232 23.7386 22.232L24.2669 22.232C24.3457 22.232 24.4096 22.2959 24.4096 22.3748L24.4096 22.8977C24.4096 22.9766 24.3457 23.0405 24.2669 23.0405L23.7386 23.0405C23.6598 23.0405 23.5959 22.9766 23.5959 22.8977L23.5959 22.3748Z" fill="#728898" fill-rule="nonzero" opacity="1" stroke="none"/>
</g>
</svg>
