<?xml version="1.0" encoding="utf-8"?>
<!-- Generator: Adobe Illustrator 26.3.1, SVG Export Plug-In . SVG Version: 6.00 Build 0)  -->
<svg version="1.1" id="图层_1" xmlns:v="https://svgstorm.com"
	 xmlns="http://www.w3.org/2000/svg" xmlns:xlink="http://www.w3.org/1999/xlink" x="0px" y="0px" viewBox="0 0 770 600"
	 style="enable-background:new 0 0 770 600;" xml:space="preserve">
<style type="text/css">
	.st0{fill:#FE2E31;}
</style>
<g>
	<path class="st0" d="M241,275.4c-0.8-0.8-1.2-1.5-0.9-3.1c-1.7-0.2-0.9-5.8-0.9-7.9c0-2.1-0.3-5.9-0.4-8.3
		c-0.1-2.4-0.5-5.4-0.9-7.9c-0.3-2.5-0.3-5.6-0.9-7.9c-1-1.9-0.9-6.1-1.9-9.1c-1-3-1.2-6.7-1.6-9.4c-1.1-2.6-1-5.1-2.6-7.5
		c-2-3-4.3-8.3-4-11.9c-0.1-0.3-0.3-0.6-0.4-0.9c-2.6-1.4-3.8-6.8-5.7-9.7c-1.7,3.2-0.5,8.2-2.2,11.9c-1.7,3.7-1.3,8.3-3,11.9
		c-1.7,3.6-2.1,7.8-3.5,11.4c-1.4,3.7-2.3,7.4-4,10.9c-1.7,3.5-3,6.8-4.7,10.2c-1.7,3.4-2.8,7-4.6,10.3c-1.8,3.3-3.1,7-5.2,10.1
		c-2.1,3.1-3,6.9-4.9,10.1c-1.9,3.2-3.6,6.5-5.1,9.8c-1.5,3.4-3.5,6.2-5.2,9.7c-1.7,3.5-2.9,6.9-4.5,10.5c-1.5,3.5-3.3,6.8-4.6,10.4
		c-1.2,3.6-3.9,6.2-4.8,10.1c-0.9,3.9-2.7,7.6-3.8,11.6c-1.1,3.9-2.2,7.6-3.2,11.7c-1,4-1.7,8-2.8,12.1c-1.2,4.1-1.2,8.7-1.9,13.1
		s-1,9.1-1.3,13.6s-0.7,9.6-0.1,14.1c0.6,4.5-0.3,9.8,0.9,14c1.2,4.2,0.4,9.6,1.8,13.6c1.4,3.9,2.1,7.8,3.4,11.5
		c1.3,3.8,2.3,7.4,4.2,10.7c1.9,3.4,3.5,6.7,4.8,10.1c1.3,3.4,4.8,5.6,5.9,9c1.1,3.4,4.5,5.8,5.9,9c1.5,3.2,4.9,5.8,5.6,8.5
		c3.1-0.2,4.9,7.9,8.7,7.9c0,3.7,4.8,5.7,7.3,8.5c2.6,2.8,6.1,5.1,8.6,8.1c2.5,3,6.7,4.6,9.1,7.6c2.4,2.9,6.4,4.8,9.1,7.6
		c2.7,2.8,6.6,4.8,9.6,7c3,2.3,7,4.6,8.5,7.3c4.5,3.1,9.6,5.8,14,9.2c-0.5-0.1,2.9,0.4,4.3,1.9c1.4,1.5,4,1.9,5.7,3.1
		c1.7,1.1,3.7,2.2,5.4,3.4c0,0.6-0.9,0.2-0.9,0.9c4.9,1.8,8.9,5.4,14.5,5.7c5.5,0.3,11.6-0.8,15.9-3.8c4.3-3.1,5.9-8.6,4.7-13.3
		c-2-4.4-8.7-8.6-13-11.5c-4.4-2.9-8.3-8.1-11.9-12.7c-3.6-4.6-8.1-10.4-9.3-15.7c-1.5-2.6-3.5-6.4-4.4-9.2
		c-1.2-1.4-2.5-3.6-3.1-6.6c-0.6-3-1.8-5.6-1.8-8.3c0-0.6-0.4-1-0.4-1.3c-1.4-2.2-1.6-6.8-1.3-10.1c0.9-9.7-0.3-22.2,2.7-31.1
		c3.1-8.9,5.5-16.2,9.9-23.9c4.4-7.7,8.3-13.5,12.7-21.1c4.4-7.6,8.4-13.6,12.3-21.5c3.8-7.9,6.7-16,8.9-24.9
		c2.2-8.9,3.3-20.9,3.5-30.3c-0.6-0.6-0.4-1.4-0.4-2.2c6.3,2.3,10.1,8.2,14.6,13.1c4.5,4.8,7.5,9.8,11,15.8c3.5,6,5.6,12.7,7.8,19.9
		c2.2,7.1,2.7,17,3.5,24.6c0.7,0,1.3-1.8,1.8-0.9c7.6-9.5,12.3-20.2,15.8-31.6c0-1.9-0.6-3.8,0.6-5.6c1.2-1.7,1-0.7,1.6-1.9
		c2.8-18.9,3-37.9,0.9-57.1c-0.6-1.7-2.7-5.9-3-9.3c-0.3-3.4-1.5-7.4-2.4-10.7c-0.9-3.3-1.9-7.2-2.1-10.2c-0.8-1.6-0.5-3.7,0-5.3
		c6.7,4.5,14.2,7.5,20.6,11.9c4.9,1.2,9.8,5.5,14.4,8.9s9.5,5.5,13.8,9.9c4.4,4.3,8.2,7.1,12.6,11.1c3.6,3.3,7.8,6.4,11.1,10
		c3.2,3.6,7.2,6.7,10.5,10.5c3.3,3.9,6.8,7.2,9.9,11.2c3.1,4,6.5,7.6,9.2,11.8c2.7,4.3,6.5,7.6,9.3,11.8c2.8,4.2,4.1,9.7,7.5,13.6
		c3.4,3.9,4.1,9.9,6.8,14.3c2.7,4.4,3.6,10,5.7,15.4c2,5.4,2.9,11,4.2,16.8c1.3,5.8,1.9,12.5,2.6,18.5c0.7,6-0.1,14.6-0.5,20.4
		c-0.3,5.8-2.5,11-3.4,16.8c-0.9,5.8-3.8,10.3-5.4,15.7c-1.5,5.3-4.4,9.6-6.4,14.6c-2,5-5.8,8.2-8.2,12.8c-2.4,4.6-6.1,7.1-8,12.2
		c-2.8,1.6-5.6,5.2-8,7.8c-2.4,2.6-6.1,5.2-6.5,8.5c-8.6,2.6-5.4,14.4-0.9,18.9c8.8,5,16.5,3,23.8-1.6c7.3-4.6,12.8-7.9,19.6-12.4
		c6.8-4.5,12.6-8.3,19-13c6.4-4.8,12.4-9.1,18-14.5c5.6-5.4,11.9-9.5,17.1-14.9c5.2-5.4,10.3-10.7,15.6-16.5
		c5.3-5.8,9.2-11.7,14.1-18c4.8-6.3,8.6-12.8,12.7-19.8c4.1-7,7.6-13.6,10.7-21.3c3.1-7.7,5.2-15.6,8.3-23.7
		c3.1-8.1,3.1-18.3,5.3-26.8c-0.2-6.3,0.6-13,0.9-19.8c0.2-6.8-0.6-14.2,0-20.6c-0.4-5.2-1.4-10.3-1.8-15.4
		c-2.2-7.4-4.1-15.2-5.7-22.8c-1.6-7.7-4.5-15.3-5.3-22.4c-0.3-0.7-0.5-1.2-0.9-1.8c-2.7-4.3-4.4-9.7-6.5-14.2
		c-2.1-4.4-4.1-10.6-4.9-15.3c-1.1-1.9-2.3-4.6-3.1-6.6c-1.4-1.5-4.3-3.8-3.5-6.1c-1.8-1.5-4.1-6.3-4-9.2c-2-3.4-3.6-8.3-6.6-11
		c-3.6-3.2-6.1-10.7-10.1-13.6c-1.7-5.2-4.4-7.9-6.9-12.4c-2.5-4.5-7.7-7.8-8-12.6c-0.8-1-2-1.9-2.6-3.1
		c-13.4-13.6-25.1-32.7-41.3-44.8c0,0.4,0,0.9,0,1.3c3.2,4.8,3,10.2,4.5,15.7c1.6,5.4,2.6,11.8,2.9,17.7c0.4,5.9-0.1,13.9-0.5,19.4
		c-0.4,5.5-2.3,11.6-3.8,16.6c-1.6,5-3.9,10-6.7,13.9c-2.8,3.9-5.2,9.3-10,10.6c0.2-1.3-1.3-3-0.4-4c-0.4-5.4-3.1-12.6-5.7-17.1
		c-2.5-4.4-3.7-9.4-5.7-14.1c-2-4.6-2.6-10.2-5-14.7c-2.4-4.5-4.3-8.7-6.4-13.3c-2.1-4.6-4.4-9.6-5.3-14c-2.1-3.6-3.3-8.5-6.1-11.4
		c-3.2-3.9-6.3-10.4-10-15c-3.7-4.7-5.7-12-11.1-14.8c-1-5.5-5.6-9.3-8.7-13.7c-3.1-4.4-7.2-7.9-10.5-11.9c-3.3-4-7.9-7.4-10.7-11.3
		c-1,0.4-1.8,0.5-2.6-0.4c1.2-2.3-4.1-5.5-6.7-8.2c-2.6-2.7-6.7-5.1-9.7-7.4c-3-2.3-6.7-5-10.3-7.3c-3.6-2.3-6.3-5-10.2-7
		c-3.9-2-7.5-4.3-11.4-6.1c-3.9-1.8-7.2-4.7-11.4-5.7c0.7,9.1,0.9,19.5,0.4,28.5c-0.5,9-1,18.4-2.6,26.8c-1.6,8.3-3.4,16.1-5.8,24
		c-2.4,8-5.4,14.8-6.5,22.9c-3.3,3.4-5.4,8.7-7.1,13.6c-1.7,4.9-4.2,9.4-6.4,14.2c-2.2,4.8-5.1,8.9-7.2,13.9
		c-2.1,5-5.1,9.6-7.6,13.9c-2.4,4.3-4.9,8.4-7.8,12.8c-2.9,4.4-5.8,8.6-7.4,13.6c-1.6-0.4-3.1,3-4.1,4.7c-0.9,1.8-3.7,3.8-3,5.8
		c-3.8,2.4-6.4,7.6-9.3,11.4c-2.9,3.7-6,8.2-8.6,12c-2.6,3.8-7.3,7.3-7.6,11.7c-2.4,0.5-4.1,3.5-5.6,5.4s-3.3,4.1-4.8,5.7
		C244,272.8,242.3,276.7,241,275.4z"/>
</g>
</svg>
