<svg width="40" height="40" viewBox="0 0 40 40" fill="none" xmlns="http://www.w3.org/2000/svg">
<path d="M6.10317 24.3115C6.69475 24.3115 7.19292 24.3842 7.5873 24.5295C7.99206 24.6748 8.3138 24.8823 8.5525 25.1522C8.79121 25.422 8.96764 25.7438 9.07143 26.1174C9.17521 26.491 9.22711 26.9062 9.22711 27.3628V32.0331C8.95727 32.0954 8.54212 32.1681 7.98169 32.2511C7.43162 32.3341 6.79853 32.3756 6.10317 32.3756C5.64652 32.3756 5.221 32.3341 4.837 32.2407C4.45299 32.1577 4.13126 32.0124 3.86142 31.8152C3.59158 31.618 3.384 31.3585 3.22833 31.0472C3.07265 30.7358 3 30.3414 3 29.8848C3 29.4385 3.08303 29.0753 3.25946 28.7639C3.4359 28.4629 3.66422 28.2138 3.95482 28.0167C4.24542 27.8298 4.58791 27.6845 4.9823 27.6015C5.3663 27.5185 5.77106 27.477 6.19658 27.477C6.39377 27.477 6.60134 27.4873 6.81929 27.5185C7.03724 27.5392 7.26557 27.5808 7.51465 27.643V27.3524C7.51465 27.1449 7.49389 26.9477 7.442 26.7609C7.39011 26.574 7.30708 26.408 7.18254 26.2627C7.058 26.1174 6.90232 26.0136 6.69475 25.9306C6.49756 25.8475 6.2381 25.8164 5.93712 25.8164C5.52198 25.8164 5.14835 25.8475 4.80586 25.9098C4.46337 25.9721 4.18315 26.0344 3.9652 26.1174L3.73687 24.6644C3.9652 24.5814 4.28694 24.5087 4.72283 24.4257C5.14835 24.353 5.61538 24.3115 6.10317 24.3115ZM6.24847 30.9538C6.79853 30.9538 7.21368 30.9226 7.50427 30.8707V28.8988C7.41087 28.8677 7.26557 28.8366 7.07875 28.8158C6.89194 28.7847 6.68437 28.7743 6.45604 28.7743C6.25885 28.7743 6.06166 28.7847 5.86447 28.8158C5.66728 28.8469 5.48046 28.8988 5.32479 28.9819C5.15873 29.0649 5.03419 29.1687 4.9304 29.314C4.837 29.4593 4.7851 29.6357 4.7851 29.8536C4.7851 30.2792 4.92002 30.5698 5.17949 30.7254C5.43895 30.8707 5.8022 30.9538 6.24847 30.9538Z" fill="#303030"/>
<path d="M13.0983 22.2464C13.0983 22.5785 12.9945 22.8483 12.7766 23.0455C12.5586 23.2427 12.3095 23.3361 12.0086 23.3361C11.7076 23.3361 11.4481 23.2427 11.2302 23.0455C11.0122 22.8483 10.9084 22.5889 10.9084 22.2464C10.9084 21.9039 11.0122 21.634 11.2302 21.4368C11.4481 21.2396 11.7076 21.1462 12.0086 21.1462C12.2992 21.1462 12.5586 21.2396 12.7766 21.4368C12.9945 21.634 13.0983 21.9039 13.0983 22.2464ZM12.9115 32.2097H11.1264V24.5089H12.9115V32.2097Z" fill="#303030"/>
<path d="M17.1564 32.2094C16.6686 31.2027 16.16 30.0403 15.6411 28.7222C15.1222 27.4145 14.6551 26.0031 14.2296 24.5085H16.1289C16.2327 24.9444 16.3676 25.4011 16.5025 25.8993C16.6478 26.3974 16.7931 26.8956 16.9592 27.3834C17.1252 27.8816 17.2913 28.359 17.4573 28.826C17.6338 29.293 17.7894 29.7082 17.9347 30.0818C18.08 29.7082 18.2357 29.293 18.4122 28.826C18.5782 28.359 18.7443 27.8816 18.9103 27.3834C19.0764 26.8852 19.2321 26.3871 19.3774 25.8993C19.5227 25.4011 19.6576 24.9444 19.7614 24.5085H21.5984C21.1728 26.0134 20.7058 27.4145 20.1869 28.7222C19.668 30.0299 19.1594 31.1923 18.6716 32.2094H17.1564Z" fill="#303030"/>
<path d="M22.0239 28.3902C22.0239 27.7156 22.1277 27.124 22.3249 26.6051C22.5221 26.0965 22.7919 25.671 23.124 25.3285C23.4562 24.986 23.8402 24.7369 24.2761 24.5605C24.712 24.3841 25.1479 24.301 25.6045 24.301C26.6631 24.301 27.4934 24.6331 28.085 25.287C28.6766 25.9408 28.9775 26.9268 28.9775 28.2345C28.9775 28.3279 28.9775 28.4421 28.9671 28.5666C28.9671 28.6911 28.9568 28.7949 28.9464 28.8987H23.8713C23.9232 29.5214 24.1411 29.9988 24.5251 30.3309C24.9092 30.6734 25.48 30.8395 26.2065 30.8395C26.6424 30.8395 27.0367 30.798 27.3896 30.7253C27.7529 30.6423 28.0331 30.5593 28.2407 30.4762L28.4794 31.9292C28.386 31.9811 28.251 32.033 28.0746 32.0849C27.8982 32.1368 27.7113 32.1887 27.483 32.2302C27.2651 32.2717 27.0264 32.3132 26.7669 32.3444C26.5074 32.3755 26.248 32.3859 25.9885 32.3859C25.3139 32.3859 24.7223 32.2821 24.2242 32.0849C23.726 31.8877 23.3109 31.6075 22.9891 31.2442C22.6674 30.881 22.4287 30.4659 22.2626 29.9781C22.0966 29.5007 22.0239 28.9714 22.0239 28.3902ZM27.1924 27.6014C27.1924 27.3523 27.1613 27.124 27.0886 26.906C27.016 26.6881 26.9226 26.4909 26.7877 26.3352C26.6527 26.1692 26.4971 26.0446 26.2999 25.9512C26.1131 25.8578 25.8847 25.8163 25.6149 25.8163C25.345 25.8163 25.096 25.8682 24.8884 25.972C24.6808 26.0757 24.5044 26.2107 24.3695 26.3767C24.2242 26.5428 24.1204 26.74 24.0374 26.9475C23.9543 27.1655 23.9024 27.3834 23.8713 27.6118H27.1924V27.6014Z" fill="#303030"/>
<path d="M30.5654 24.7577C30.9079 24.6643 31.3542 24.5709 31.9043 24.4775C32.4543 24.384 33.0667 24.3425 33.7309 24.3425C34.364 24.3425 34.8829 24.4256 35.3084 24.602C35.7339 24.7784 36.066 25.0171 36.3151 25.3285C36.5642 25.6398 36.7406 26.0135 36.8444 26.4494C36.9482 26.8853 37.0001 27.3627 37.0001 27.8816V32.2094H35.215V28.1618C35.215 27.7467 35.1839 27.3938 35.132 27.1136C35.0801 26.823 34.9867 26.5843 34.8621 26.4079C34.7376 26.2314 34.5715 26.0965 34.364 26.0135C34.1564 25.9304 33.8969 25.8889 33.596 25.8889C33.3676 25.8889 33.1393 25.8993 32.8902 25.9304C32.6411 25.9616 32.4647 25.9823 32.3505 26.0031V32.2094H30.5654V24.7577Z" fill="#303030"/>
<path d="M24.5873 16.1436C24.8779 16.1436 25.1581 16.1955 25.4176 16.2889C25.8327 15.8115 26.0507 15.2926 26.0507 14.7529C26.0507 13.8708 25.4487 13.0197 24.3694 12.3555C23.207 11.6498 21.6502 11.2554 20 11.2554C18.3395 11.2554 16.7827 11.6498 15.6307 12.3555C14.5409 13.0197 13.9493 13.8708 13.9493 14.7529C13.9493 15.2926 14.1673 15.8115 14.5824 16.2889C14.8419 16.1955 15.1221 16.1436 15.4127 16.1436C16.0666 16.1436 16.6789 16.3927 17.1355 16.8598C17.4573 17.1815 17.6752 17.5759 17.779 18.0118C18.4744 18.1778 19.2216 18.2609 20 18.2609C20.768 18.2609 21.5153 18.1778 22.221 18.0118C22.3248 17.5863 22.5427 17.1815 22.8645 16.8598C23.3211 16.4031 23.9335 16.1436 24.5873 16.1436ZM20 14.1095C19.2528 14.1095 18.6404 13.4971 18.6404 12.7499H21.3596C21.3596 13.5075 20.7473 14.1095 20 14.1095Z" fill="url(#paint0_linear_64_5555)"/>
<path d="M15.2881 11.7224C15.423 11.6394 15.5579 11.5668 15.6928 11.4941H15.6825C15.34 11.2347 14.9352 11.1101 14.5304 11.1101C13.9492 11.1101 13.3784 11.3696 13.0048 11.8677L12.8491 12.0857L13.9285 12.8952C14.271 12.4593 14.7276 12.0649 15.2881 11.7224Z" fill="url(#paint1_linear_64_5555)"/>
<path d="M13.9493 16.6315C13.586 16.1645 13.3577 15.6559 13.2954 15.1266C13.2746 15.0021 13.2643 14.8775 13.2643 14.753C13.2643 14.1303 13.4718 13.5387 13.8558 12.999H13.7209C12.6623 12.999 11.8113 13.8604 11.8113 14.9087V15.1785H13.2331C12.8595 15.4899 12.6208 15.9154 12.5585 16.3928C12.4859 16.9013 12.6208 17.3995 12.9322 17.8043L13.0463 17.96C13.1501 17.5448 13.3681 17.1712 13.6794 16.8598C13.7624 16.7768 13.8558 16.7042 13.9493 16.6315Z" fill="url(#paint2_linear_64_5555)"/>
<path d="M26.061 12.8952L27.1403 12.0857L26.9847 11.8677C26.611 11.3696 26.0402 11.1101 25.459 11.1101C25.0543 11.1101 24.6599 11.2347 24.307 11.4941H24.2966C24.4316 11.5668 24.5769 11.6394 24.7014 11.7224C25.2722 12.0649 25.7185 12.4593 26.061 12.8952Z" fill="url(#paint3_linear_64_5555)"/>
<path d="M28.1884 14.9087C28.1884 13.8501 27.327 12.999 26.2787 12.999H26.1438C26.5382 13.5387 26.7354 14.1407 26.7354 14.753C26.7354 14.8775 26.725 15.0021 26.7043 15.1266C26.6316 15.6559 26.4033 16.1645 26.0504 16.6315C26.1438 16.7042 26.2372 16.7768 26.3203 16.8598C26.6316 17.1712 26.8496 17.5448 26.9533 17.96L27.0675 17.8043C27.3789 17.3995 27.5138 16.891 27.4411 16.3928C27.3789 15.9154 27.1402 15.4795 26.7665 15.1785H28.1884V14.9087Z" fill="url(#paint4_linear_64_5555)"/>
<path d="M17.6959 10.8193C18.7545 10.8193 19.6055 9.95788 19.6055 8.90965C19.6055 7.85104 18.7441 7 17.6959 7C16.6373 7 15.7863 7.86142 15.7863 8.90965C15.7863 9.95788 16.6373 10.8193 17.6959 10.8193ZM17.6959 7.86142C17.5714 7.99634 17.4883 8.18315 17.4883 8.39072C17.4883 8.79548 17.8204 9.12759 18.2252 9.12759C18.4328 9.12759 18.6196 9.04457 18.7545 8.90965V8.92002C18.7545 9.50122 18.2875 9.96825 17.7063 9.96825C17.1251 9.96825 16.658 9.50122 16.658 8.92002C16.6477 8.32845 17.1147 7.86142 17.6959 7.86142Z" fill="url(#paint5_linear_64_5555)"/>
<path d="M22.2936 10.8193C23.3522 10.8193 24.2032 9.95788 24.2032 8.90965C24.2032 7.85104 23.3418 7 22.2936 7C21.2349 7 20.3839 7.86142 20.3839 8.90965C20.3839 9.95788 21.2453 10.8193 22.2936 10.8193ZM22.2936 7.86142C22.3039 7.86142 22.3039 7.86142 22.2936 7.86142C22.169 7.99634 22.086 8.18315 22.086 8.39072C22.086 8.79548 22.4181 9.12759 22.8229 9.12759C23.0304 9.12759 23.2172 9.04457 23.3522 8.90965V8.92002C23.3522 9.50122 22.8851 9.96825 22.3039 9.96825C21.7227 9.96825 21.2557 9.50122 21.2557 8.92002C21.2453 8.32845 21.7124 7.86142 22.2936 7.86142Z" fill="url(#paint6_linear_64_5555)"/>
<path d="M15.4126 16.6726C14.354 16.6726 13.5029 17.5236 13.5029 18.5823C13.5029 19.6409 14.354 20.4919 15.4126 20.4919C15.6305 20.4919 15.8485 20.4504 16.0457 20.3777C16.0249 20.357 16.0042 20.3466 15.9938 20.3258C15.4437 19.7758 15.2465 19.0597 15.5786 18.7379C15.9004 18.4162 16.6165 18.603 17.1665 19.1531C17.1873 19.1738 17.1977 19.1946 17.2184 19.205C17.2911 19.0078 17.3326 18.8002 17.3326 18.5719C17.3222 17.534 16.4608 16.6726 15.4126 16.6726Z" fill="url(#paint7_linear_64_5555)"/>
<path d="M24.5873 16.6726C23.5286 16.6726 22.6776 17.5236 22.6776 18.5823C22.6776 18.8002 22.7191 19.0182 22.7918 19.2153C22.8125 19.1946 22.8229 19.1738 22.8437 19.1634C23.3937 18.6134 24.1098 18.4162 24.4316 18.7483C24.7533 19.07 24.5665 19.7862 24.0164 20.3362C23.9957 20.357 23.9853 20.3674 23.9645 20.3881C24.1617 20.4608 24.3693 20.5023 24.5976 20.5023C25.6562 20.5023 26.5073 19.6512 26.5073 18.5926C26.4969 17.534 25.6459 16.6726 24.5873 16.6726Z" fill="url(#paint8_linear_64_5555)"/>
<defs>
<linearGradient id="paint0_linear_64_5555" x1="16.5854" y1="19.3682" x2="23.9894" y2="9.35915" gradientUnits="userSpaceOnUse">
<stop stop-color="#FF7700"/>
<stop offset="0.7423" stop-color="#FF3554"/>
</linearGradient>
<linearGradient id="paint1_linear_64_5555" x1="11.468" y1="15.5828" x2="18.8719" y2="5.57376" gradientUnits="userSpaceOnUse">
<stop stop-color="#FF7700"/>
<stop offset="0.7423" stop-color="#FF3554"/>
</linearGradient>
<linearGradient id="paint2_linear_64_5555" x1="12.3475" y1="16.2334" x2="19.7514" y2="6.22435" gradientUnits="userSpaceOnUse">
<stop stop-color="#FF7700"/>
<stop offset="0.7423" stop-color="#FF3554"/>
</linearGradient>
<linearGradient id="paint3_linear_64_5555" x1="18.8644" y1="21.0542" x2="26.2684" y2="11.0451" gradientUnits="userSpaceOnUse">
<stop stop-color="#FF7700"/>
<stop offset="0.7423" stop-color="#FF3554"/>
</linearGradient>
<linearGradient id="paint4_linear_64_5555" x1="21.163" y1="22.7546" x2="28.567" y2="12.7456" gradientUnits="userSpaceOnUse">
<stop stop-color="#FF7700"/>
<stop offset="0.7423" stop-color="#FF3554"/>
</linearGradient>
<linearGradient id="paint5_linear_64_5555" x1="12.3029" y1="16.2002" x2="19.7069" y2="6.19117" gradientUnits="userSpaceOnUse">
<stop stop-color="#FF7700"/>
<stop offset="0.7423" stop-color="#FF3554"/>
</linearGradient>
<linearGradient id="paint6_linear_64_5555" x1="15.2761" y1="18.3996" x2="22.6801" y2="8.39055" gradientUnits="userSpaceOnUse">
<stop stop-color="#FF7700"/>
<stop offset="0.7423" stop-color="#FF3554"/>
</linearGradient>
<linearGradient id="paint7_linear_64_5555" x1="15.417" y1="18.5037" x2="22.821" y2="8.49462" gradientUnits="userSpaceOnUse">
<stop stop-color="#FF7700"/>
<stop offset="0.7423" stop-color="#FF3554"/>
</linearGradient>
<linearGradient id="paint8_linear_64_5555" x1="21.3846" y1="22.918" x2="28.7886" y2="12.9089" gradientUnits="userSpaceOnUse">
<stop stop-color="#FF7700"/>
<stop offset="0.7423" stop-color="#FF3554"/>
</linearGradient>
</defs>
</svg>
