<svg width="40" height="40" viewBox="0 0 40 40" fill="none" xmlns="http://www.w3.org/2000/svg">
  <path fill-rule="evenodd" clip-rule="evenodd" d="M7 26H0V40H6.99934H7C10.85 40 14 36.85 14 33C14 29.15 10.85 26 7 26"
        fill="url(#paint0_linear_3419_99)"/>
  <path
    d="M6.25168 13.9934C6.70274 12.9626 7.26687 11.9914 7.92892 11.0956L11.9446 11.1396C13.77 11.1596 15.4612 10.1832 16.3566 8.59233L18.3266 5.09219C18.8756 5.03134 19.4343 5 20.0015 5C20.5686 5 21.1274 5.03134 21.6763 5.09219L23.6463 8.59233C24.5417 10.1832 26.233 11.1596 28.0584 11.1396L32.074 11.0956C32.7361 11.9914 33.3002 12.9626 33.7513 13.9934L31.7032 17.4527C30.7732 19.0235 30.7732 20.9764 31.7032 22.5473L33.7513 26.0065C33.3002 27.0373 32.7361 28.0085 32.074 28.9043L28.0584 28.8603C26.233 28.8403 24.5417 29.8168 23.6463 31.4076L21.6763 34.9077C21.1274 34.9686 20.5686 34.9999 20.0015 34.9999C19.4343 34.9999 18.8756 34.9686 18.3266 34.9077L16.3566 31.4076C16.1503 31.0409 15.9016 30.7069 15.6188 30.4102C15.8667 31.231 16 32.1005 16 33C16 34.0448 15.8201 35.0492 15.4897 35.9838L15.975 36.846C16.2604 37.353 16.7514 37.7169 17.3269 37.8026C18.1995 37.9326 19.0926 37.9999 20.0015 37.9999C20.9103 37.9999 21.8034 37.9326 22.6761 37.8026C23.2515 37.7169 23.7426 37.353 24.0279 36.846L26.2607 32.8791C26.6188 32.2427 27.2953 31.8522 28.0255 31.8602L32.5749 31.91C33.1555 31.9164 33.7152 31.6739 34.0774 31.2201C35.1879 29.8288 36.0964 28.2691 36.7586 26.5856C36.9713 26.045 36.9014 25.4387 36.6054 24.9387L34.2847 21.0189C33.9127 20.3905 33.9127 19.6094 34.2847 18.9811L36.6054 15.0612C36.9014 14.5613 36.9713 13.955 36.7586 13.4143C36.0965 11.7308 35.1879 10.1712 34.0774 8.77985C33.7152 8.32602 33.1556 8.08359 32.5749 8.08996L28.0255 8.1398C27.2953 8.1478 26.6188 7.75723 26.2607 7.12088L24.0279 3.1539C23.7426 2.64692 23.2515 2.28307 22.6761 2.19735C21.8034 2.06736 20.9103 2 20.0015 2C19.0926 2 18.1995 2.06736 17.3269 2.19735C16.7514 2.28307 16.2604 2.64692 15.975 3.1539L13.7423 7.12088C13.3841 7.75723 12.7076 8.1478 11.9775 8.1398L7.42801 8.08996C6.84739 8.08359 6.28776 8.32602 5.92553 8.77985C4.81503 10.1712 3.9065 11.7308 3.24435 13.4143C3.03169 13.955 3.10152 14.5613 3.39751 15.0612L5.71826 18.9811C6.09027 19.6094 6.09027 20.3905 5.71826 21.0189L3.95329 24H7C7.14531 24 7.28985 24.0035 7.43352 24.0104L8.29975 22.5473C9.22977 20.9764 9.22977 19.0235 8.29975 17.4527L6.25168 13.9934Z"
    fill="#CED0D6"/>
  <path fill-rule="evenodd" clip-rule="evenodd"
        d="M20.0015 27.2454C24.003 27.2454 27.2469 24.0015 27.2469 20C27.2469 15.9985 24.003 12.7546 20.0015 12.7546C15.9999 12.7546 12.756 15.9985 12.756 20C12.756 24.0015 15.9999 27.2454 20.0015 27.2454ZM20.0015 24.2454C22.3461 24.2454 24.2469 22.3447 24.2469 20C24.2469 17.6553 22.3461 15.7546 20.0015 15.7546C17.6568 15.7546 15.756 17.6553 15.756 20C15.756 22.3447 17.6568 24.2454 20.0015 24.2454Z"
        fill="#CED0D6"/>
  <defs>
    <linearGradient id="paint0_linear_3419_99" x1="-6.79883" y1="27.9631" x2="1.0516" y2="39.8599" gradientUnits="userSpaceOnUse">
      <stop stop-color="#FF45ED"/>
      <stop offset="1" stop-color="#6B57FF"/>
    </linearGradient>
  </defs>
</svg>
