<?xml version="1.0" standalone="no"?><!DOCTYPE svg PUBLIC "-//W3C//DTD SVG 1.1//EN" "http://www.w3.org/Graphics/SVG/1.1/DTD/svg11.dtd"><svg t="1726384732549" class="icon" viewBox="0 0 1024 1024" version="1.1" xmlns="http://www.w3.org/2000/svg" p-id="10240" xmlns:xlink="http://www.w3.org/1999/xlink" width="48" height="48"><path d="M946.851 196.287H77.149c-11.163 0-21.038-6.729-24.396-16.626-3.359-9.897 0.573-20.676 9.715-26.631L262.37 22.807c4.302-2.803 9.428-4.306 14.681-4.307h466.963c5.194 0 10.265 1.47 14.539 4.213l202.836 130.225c11.626 7.463 14.542 22.275 6.513 33.083-4.777 6.428-12.646 10.266-21.051 10.266z m-788.619-47.562h706.56L736.039 66.063H285.122l-126.89 82.662z" fill="#ffffff" p-id="10241"></path><path d="M895.249 578.635c-14.37 0-26.018 15.213-26.018 33.982v332.018H160.173V612.617c0-18.77-11.648-33.982-26.018-33.982-14.369 0-26.018 15.213-26.018 33.982v365.997c0 18.77 11.649 33.982 26.018 33.982h761.094c14.37 0 26.019-15.213 26.019-33.98V612.617c0-18.769-11.649-33.982-26.019-33.982z m51.604-426.513H77.151c-14.129 0-25.583 9.78-25.583 21.844v193.739c0 4.942 1.963 9.739 5.569 13.606 26.921 28.87 67.83 45.427 112.236 45.427 35.148 0 68.816-10.619 94.802-29.9 7.463-5.527 14.207-11.726 20.115-18.486 5.909 6.761 12.652 12.958 20.115 18.486 25.985 19.282 59.654 29.9 94.802 29.9 47.662 0 89.873-19.403 115.403-49.047 25.53 29.643 67.742 49.047 115.404 49.047 32.348 0 64.701-12.086 91.098-34.032a155.082 155.082 0 0 0 21.873-22.271 155.09 155.09 0 0 0 21.874 22.271c26.396 21.946 58.75 34.032 91.098 34.032 43.357 0 83.669-15.928 110.601-43.701 3.799-3.918 5.877-8.845 5.877-13.931v-195.14c0.001-12.064-11.454-21.844-25.582-21.844z m-25.585 208.539c-16.94 14.312-40.283 22.39-65.31 22.39-41.79 0-79.233-36.338-87.987-70.278-2.582-10.014-12.976-17.146-24.984-17.146s-22.401 7.132-24.983 17.146c-8.751 33.941-46.195 70.278-87.987 70.278-49.527 0-89.821-32.033-89.821-71.408 0-12.064-11.454-21.844-25.583-21.844s-25.582 9.78-25.582 21.844c0 39.375-40.294 71.408-89.821 71.408-22.815 0-44.564-6.814-61.241-19.188-16.229-12.041-26.248-28.295-28.211-45.767-1.26-11.204-12.283-19.758-25.466-19.758-13.184 0-24.208 8.554-25.466 19.758-1.963 17.471-11.982 33.725-28.21 45.766-16.677 12.375-38.426 19.188-61.242 19.188-25.78 0-49.62-8.497-66.64-23.534V195.81H921.27v164.851z" fill="#ffffff" p-id="10242"></path><path d="M579.704 886.5H349.636c-13.199 0-25.199-4.484-34.702-12.969-9.636-8.603-14.729-19.63-14.729-31.895v-49.463l0.506-1.948c2.563-9.863 7.665-17.546 15.166-22.831 4.875-3.436 10.791-5.249 17.109-5.249 6.794 0 13.814 2.033 21.458 6.218 1.531 0.814 2.462 1.231 2.927 1.426l1.825 0.277 2.507 1.149c5.518 2.528 10.882 3.758 16.401 3.758 5.919 0 11.243-0.955 16.273-2.916 5.141-2.003 9.476-4.66 13.251-8.119 3.813-3.493 6.731-7.436 8.922-12.053 2.101-4.428 3.122-9.193 3.122-14.572 0-5.427-1.04-10.302-3.179-14.908-2.188-4.712-5.088-8.686-8.863-12.144-3.777-3.461-8.112-6.116-13.255-8.121-5.026-1.961-10.349-2.913-16.271-2.913-5.528 0-10.859 1.066-16.297 3.258l-0.79 0.319-0.82 0.25c-1.473 0.451-2.112 0.729-2.224 0.782a255.191 255.191 0 0 1-11.875 5.092c-6.571 2.618-13.019 3.636-19.058 3.021-8.262-0.839-15.524-5.02-20.438-11.77-3.866-5.312-5.892-12.138-6.376-21.486l-0.021-0.813v-44.893c0-12.177 5.035-23.227 14.556-31.953 9.526-8.725 21.584-13.334 34.875-13.334h41.902c-2.701-7.718-4.067-15.905-4.067-24.404 0-11.737 2.491-22.892 7.403-33.152 4.805-10.039 11.374-18.913 19.521-26.378 8.149-7.465 17.836-13.483 28.791-17.885 11.198-4.5 23.215-6.782 35.717-6.782 12.5 0 24.518 2.281 35.717 6.782 10.955 4.402 20.643 10.42 28.791 17.885 8.149 7.465 14.716 16.341 19.521 26.38 4.912 10.258 7.402 21.413 7.402 33.15 0 8.583-1.279 16.729-3.824 24.404h13.193c13.384 0 25.421 4.665 34.811 13.492 9.259 8.709 14.152 19.702 14.152 31.795v27.768c8.87-2.802 18.279-4.221 28.038-4.221 12.138 0 23.871 2.19 34.873 6.513 10.856 4.265 20.514 10.227 28.7 17.729 8.188 7.5 14.699 16.348 19.353 26.297 4.713 10.081 7.106 20.829 7.106 31.948 0 11.443-2.408 22.3-7.155 32.269-4.652 9.769-11.148 18.51-19.307 25.981-8.182 7.499-17.84 13.462-28.697 17.729-11.006 4.319-22.737 6.51-34.873 6.51-9.761 0-19.168-1.418-28.035-4.221v24.347c0 12.175-4.951 23.15-14.321 31.736-9.372 8.589-21.352 13.128-34.644 13.128z m-234.61-91.468v41.092c0 2.957 0.965 5.026 3.33 7.138 2.47 2.204 4.965 3.146 8.341 3.146h220.634c3.324 0 5.63-0.87 7.951-2.998 2.322-2.127 3.27-4.238 3.27-7.286V749.47l29.439 22.928c4.508 3.512 9.754 6.407 15.595 8.612 5.479 2.067 11.233 3.073 17.587 3.073 6.867 0 13.201-1.178 19.367-3.597 6.301-2.476 11.644-5.767 16.33-10.062 4.717-4.319 8.323-9.181 11.029-14.859 2.609-5.479 3.877-11.318 3.877-17.85 0-6.291-1.283-12.096-3.925-17.741-2.7-5.776-6.293-10.671-10.98-14.965s-10.03-7.585-16.333-10.06c-6.164-2.421-12.498-3.597-19.366-3.597-6.354 0-12.108 1.004-17.591 3.074-5.836 2.201-11.083 5.098-15.593 8.61l-29.438 22.922v-89.929c0-3.095-1.027-5.381-3.434-7.644-2.303-2.164-4.559-3.047-7.788-3.047h-81.261l25.156-27c7.661-8.222 11.385-17.756 11.385-29.144 0-6.796-1.336-12.894-4.089-18.641-2.856-5.968-6.54-10.971-11.262-15.298-4.725-4.327-10.186-7.704-16.697-10.319-6.274-2.522-12.783-3.748-19.898-3.748-7.116 0-13.625 1.227-19.898 3.748-6.511 2.615-11.972 5.99-16.697 10.319-4.723 4.327-8.408 9.33-11.263 15.296-2.753 5.749-4.09 11.848-4.09 18.642 0 5.665 0.995 10.771 3.042 15.607a51.888 51.888 0 0 0 8.705 13.938l23.225 26.598H356.765c-3.326 0-5.695 0.927-8.178 3.201-2.48 2.272-3.493 4.443-3.493 7.49v40.307a213.945 213.945 0 0 0 3.68-1.646c1.762-0.808 3.74-1.557 6.025-2.282 9.474-3.714 19.315-5.596 29.265-5.596 10.437 0 20.396 1.82 29.598 5.408 9.092 3.545 17.163 8.513 23.985 14.763 6.823 6.251 12.244 13.645 16.114 21.978 3.916 8.43 5.902 17.554 5.902 27.115 0 9.605-2.004 18.699-5.958 27.028-3.866 8.149-9.269 15.436-16.058 21.655-6.82 6.25-14.892 11.218-23.987 14.764-9.207 3.589-19.164 5.407-29.596 5.407-10.158 0-20.185-2.096-29.838-6.229-2.736-0.736-5.689-1.927-9.132-3.667z" fill="#ffffff" p-id="10243"></path></svg>