<svg version="1.1" width="40" height="40" viewBox="0 0 40 40" xmlns="http://www.w3.org/2000/svg">
  <path d="m19 39c-3.1-.4-5.8-2-7.7-4.3h-7.3v-4.4h5c-.25-.94-.42-1.9-.42-2.9v-1.5h-4.6v-4.4h4.6v-2.9c0-.5.089-.98.15-1.5h-4.8v-4.4h6.3c1.1-1.9 2.8-3.5 4.8-4.5l-4.2-4.1 3.1-3.1 6 5.9c.16-.0058.14-.029.3-.029.056 0 .27.023.33.026l6-5.9 3.1 3.1-4.1 4c2.1 1 3.8 2.6 5 4.6h5.9v4.4h-4.4c.062.49.15.96.15 1.5v2.8h-13v4.1h-3.5v4.1h3.5zm-3.5-22v4.1h9.8v-4.1z" fill="#F29111" fill-rule="evenodd"/>
  <g transform="scale(.9027 1.108)" fill="#00758F">
    <path d="m30.1 27.36h5.442v7.114q-1.077.3653-2.25.5768-1.154.2115-2.634.2115-3.076 0-4.73-1.807t-1.654-5.268q0-2.154.8268-3.73.846-1.577 2.442-2.442 1.596-.8653 3.903-.8653 1.096 0 2.154.2307 1.058.2307 1.923.6153l-.9614 2.327q-.6345-.3269-1.442-.5384-.8076-.2115-1.692-.2115-1.269 0-2.211.5768-.9229.5768-1.442 1.634-.4999 1.038-.4999 2.461 0 1.346.3653 2.384.3653 1.038 1.154 1.634.7884.5768 2.057.5768.6153 0 1.038-.05768.4422-.05768.8076-.1346v-2.865h-2.596z"/>
  </g>
</svg>
