<?xml version="1.0"?>
<svg width="100" height="100" xmlns="http://www.w3.org/2000/svg" xmlns:svg="http://www.w3.org/2000/svg" enable-background="new 0 0 0 0" version="1.1" xml:space="preserve">
 <style type="text/css">.st0{fill:#FFFFFF;}</style>
 <title>Tidelift_Logos_RGB</title>
 <g class="layer">
  <g id="svg_1">
   <g id="svg_2">
    <path class="st0" d="m44.05,14.2l-33.66,0c-6.99,0 -6.99,0 -6.99,6.47c0,6.34 0,6.34 6.99,6.34l20.07,0l0,22.78l13.72,-10.74l0,-24.85l-0.13,0z" id="svg_3"/>
    <path class="st0" d="m30.46,84.75c0,6.47 0,6.47 6.86,6.47c6.86,0 6.86,0 6.86,-6.6l0,-32.36l-13.72,10.74l0,21.75z" id="svg_4"/>
   </g>
   <path class="st0" d="m54.92,14.2l33.79,0c6.99,0 6.99,0 6.99,6.47c0,6.34 0,6.34 -6.99,6.34l-20.19,0l0,22.78l-13.72,-10.74l0,-24.85l0.13,0z" id="svg_5"/>
   <path class="st0" d="m68.51,84.75c0,6.47 0,6.47 -6.86,6.47c-6.86,0 -6.86,0 -6.86,-6.6l0,-32.36l13.72,10.74l0,21.75z" id="svg_6"/>
  </g>
 </g>
</svg>
