<?xml version="1.0" encoding="UTF-8" standalone="no"?>
<!DOCTYPE svg PUBLIC "-//W3C//DTD SVG 20010904//EN"
              "http://www.w3.org/TR/2001/REC-SVG-20010904/DTD/svg10.dtd">

<svg xmlns="http://www.w3.org/2000/svg"
     width="64px" height="64px"
     viewBox="0 0 1116 1032">
  <path id="Orr"
        fill="#9e2dbb" stroke="black" stroke-width="1"
        d="M 695.00,20.00
           C 695.00,20.00 766.00,20.00 766.00,20.00
             766.10,28.27 767.33,26.20 767.94,31.09
             767.94,31.09 767.94,52.00 767.94,52.00
             767.98,60.62 767.31,57.97 766.04,65.00
             766.04,65.00 764.45,75.00 764.45,75.00
             759.60,93.89 745.36,118.06 733.57,133.58
             733.57,133.58 714.00,158.00 714.00,158.00
             714.00,158.00 761.00,158.00 761.00,158.00
             768.49,158.14 767.99,160.26 768.00,167.00
             768.00,167.00 768.00,227.00 768.00,227.00
             768.00,227.00 378.00,227.00 378.00,227.00
             378.00,227.00 378.00,167.00 378.00,167.00
             378.02,158.36 378.36,158.02 387.00,158.00
             387.00,158.00 645.00,158.00 645.00,158.00
             647.65,157.99 650.57,158.19 653.00,156.98
             659.21,153.87 671.38,136.54 675.40,130.13
             684.36,115.82 688.44,106.31 693.07,90.17
             693.07,90.17 695.04,83.96 695.04,83.96
             695.04,83.96 696.25,75.00 696.25,75.00
             697.39,68.50 697.98,71.65 698.00,63.00
             698.00,63.00 698.00,44.00 698.00,44.00
             698.00,44.00 695.00,20.00 695.00,20.00 Z
           M 582.00,239.42
           C 582.00,239.42 606.00,240.00 606.00,240.00
             615.57,240.02 612.95,241.17 619.00,241.87
             619.00,241.87 632.83,243.23 632.83,243.23
             632.83,243.23 638.09,244.78 638.09,244.78
             638.09,244.78 652.00,248.03 652.00,248.03
             652.00,248.03 660.83,249.95 660.83,249.95
             684.34,257.40 707.41,269.20 726.98,284.28
             757.77,308.02 779.15,341.07 793.31,376.84
             793.31,376.84 798.18,389.00 798.18,389.00
             798.18,389.00 803.09,405.91 803.09,405.91
             803.09,405.91 808.38,426.00 808.38,426.00
             808.38,426.00 810.09,438.00 810.09,438.00
             810.09,438.00 811.88,446.00 811.88,446.00
             811.88,446.00 813.26,461.00 813.26,461.00
             814.30,467.32 814.98,464.34 815.00,473.00
             815.00,473.00 815.00,547.00 815.00,547.00
             814.98,555.65 814.29,552.70 813.26,559.00
             813.26,559.00 811.89,574.00 811.89,574.00
             811.89,574.00 810.09,582.00 810.09,582.00
             810.09,582.00 808.38,594.00 808.38,594.00
             808.38,594.00 799.98,624.09 799.98,624.09
             799.98,624.09 794.74,640.72 794.74,640.72
             777.51,684.75 749.79,723.51 708.92,748.44
             692.92,758.20 676.85,765.69 658.83,770.93
             658.83,770.93 627.91,777.89 627.91,777.89
             627.91,777.89 610.00,779.10 610.00,779.10
             610.00,779.10 601.00,780.95 601.00,780.95
             601.00,780.95 574.00,780.95 574.00,780.95
             566.68,780.90 567.18,779.58 562.00,779.10
             562.00,779.10 544.09,777.89 544.09,777.89
             544.09,777.89 537.91,776.22 537.91,776.22
             537.91,776.22 528.17,774.78 528.17,774.78
             528.17,774.78 521.96,772.84 521.96,772.84
             521.96,772.84 508.83,769.38 508.83,769.38
             489.44,762.82 472.37,755.38 455.43,743.58
             430.14,725.95 407.10,700.20 392.49,672.99
             384.43,657.97 378.44,642.17 373.04,626.09
             373.04,626.09 364.63,596.00 364.63,596.00
             364.63,596.00 362.91,584.04 362.91,584.04
             362.91,584.04 361.10,576.91 361.10,576.91
             361.10,576.91 359.74,562.09 359.74,562.09
             358.83,557.10 358.02,560.38 358.00,551.00
             358.00,551.00 358.00,467.00 358.00,467.00
             358.00,467.00 361.23,442.17 361.23,442.17
             361.23,442.17 362.75,436.91 362.75,436.91
             362.75,436.91 364.44,425.00 364.44,425.00
             364.44,425.00 366.83,416.00 366.83,416.00
             366.83,416.00 368.15,409.17 368.15,409.17
             368.15,409.17 370.30,402.97 370.30,402.97
             377.09,378.44 389.23,351.18 403.52,330.09
             427.69,294.43 458.65,269.79 498.83,254.70
             498.83,254.70 511.17,249.95 511.17,249.95
             511.17,249.95 518.00,248.54 518.00,248.54
             518.00,248.54 525.00,246.44 525.00,246.44
             525.00,246.44 532.96,245.04 532.96,245.04
             532.96,245.04 539.17,243.23 539.17,243.23
             539.17,243.23 566.00,240.00 566.00,240.00
             571.48,239.97 576.53,240.20 582.00,239.42 Z
           M 455.00,383.00
           C 455.00,383.00 447.77,402.17 447.77,402.17
             447.77,402.17 440.83,424.09 440.83,424.09
             440.83,424.09 438.96,434.00 438.96,434.00
             438.96,434.00 437.19,441.00 437.19,441.00
             437.19,441.00 435.76,452.00 435.76,452.00
             435.76,452.00 434.26,458.00 434.26,458.00
             433.40,463.07 433.03,469.83 433.00,475.00
             432.94,484.26 431.02,481.56 431.00,492.00
             431.00,492.00 431.00,529.00 431.00,529.00
             431.02,537.63 431.71,534.71 432.87,541.00
             432.87,541.00 432.87,549.00 432.87,549.00
             432.87,549.00 434.24,563.83 434.24,563.83
             434.24,563.83 435.89,570.04 435.89,570.04
             441.08,605.72 451.94,636.88 474.14,665.83
             474.14,665.83 483.65,676.21 483.65,676.21
             503.05,695.96 525.06,708.73 552.17,714.80
             564.70,717.61 587.59,717.15 601.00,717.00
             636.33,716.58 674.01,696.00 696.13,668.91
             713.19,648.01 725.24,622.95 731.85,596.83
             731.85,596.83 733.68,587.00 733.68,587.00
             733.68,587.00 735.63,580.00 735.63,580.00
             735.63,580.00 737.11,568.00 737.11,568.00
             737.11,568.00 738.74,561.00 738.74,561.00
             738.74,561.00 740.13,545.00 740.13,545.00
             740.13,545.00 740.13,535.00 740.13,535.00
             741.29,528.71 741.98,531.63 742.00,523.00
             742.00,523.00 742.00,496.00 742.00,496.00
             741.89,489.48 741.00,490.54 740.13,486.00
             740.13,486.00 740.13,475.00 740.13,475.00
             740.13,475.00 738.74,460.00 738.74,460.00
             738.74,460.00 737.11,453.00 737.11,453.00
             737.11,453.00 735.63,441.00 735.63,441.00
             735.63,441.00 733.68,434.00 733.68,434.00
             733.68,434.00 731.85,424.17 731.85,424.17
             731.85,424.17 726.96,408.91 726.96,408.91
             716.27,377.22 699.72,347.86 672.00,327.91
             656.63,316.85 645.94,312.86 628.17,307.57
             617.57,304.42 615.04,305.20 605.00,303.79
             600.00,303.09 600.84,302.09 594.00,302.11
             594.00,302.11 574.00,302.11 574.00,302.11
             574.00,302.11 567.00,303.79 567.00,303.79
             567.00,303.79 552.00,305.29 552.00,305.29
             543.42,306.49 527.99,312.18 519.99,316.01
             502.25,324.52 483.92,340.26 472.20,356.02
             472.20,356.02 455.00,383.00 455.00,383.00 Z
           M 387.00,794.00
           C 387.00,794.00 776.00,794.00 776.00,794.00
             776.00,794.00 776.00,863.00 776.00,863.00
             776.00,863.00 510.00,863.00 510.00,863.00
             507.06,863.00 503.77,862.79 501.09,864.16
             498.16,865.66 494.33,870.41 492.20,873.01
             487.25,879.08 483.09,884.28 478.99,890.96
             467.51,909.67 457.03,934.80 457.00,957.00
             457.00,957.00 457.00,979.00 457.00,979.00
             457.00,979.00 460.00,1001.00 460.00,1001.00
             460.00,1001.00 388.00,1001.00 388.00,1001.00
             388.00,1001.00 387.00,987.00 387.00,987.00
             387.00,987.00 387.00,968.00 387.00,968.00
             387.04,959.69 388.23,955.69 390.16,947.96
             390.16,947.96 391.81,940.17 391.81,940.17
             401.68,911.07 421.09,885.94 441.00,863.00
             441.00,863.00 387.00,863.00 387.00,863.00
             387.00,863.00 387.00,794.00 387.00,794.00 Z" />
</svg>
