<?xml version="1.0" encoding="UTF-8" standalone="no"?>
<svg
   xmlns="http://www.w3.org/2000/svg"
   id="svg4"
   version="1.1"
   viewBox="0 0 40 40"
   height="40"
   width="40">
  <metadata
     id="metadata10">
  </metadata>
  <defs id="defs8"/>
  <path
     style="fill:6E6E6E;fill-opacity:1;stroke-width:2.3669"
     id="path2"
     d="M 6.7211696,8.0631527 2,31.651484 H 8.4815076 L 11.427649,15.856456 c 0,0 2.553322,-2.227503 4.517416,-2.025003 1.964093,0.202488 1.964093,2.245021 1.964093,2.245021 l -2.749731,15.592528 h 6.484483 l 3.139575,-15.812546 c 0,0 2.160504,-2.227503 4.321006,-2.025003 2.160504,0.202488 1.767686,2.447521 1.767686,2.447521 l -2.946142,15.37251 h 6.67792 L 37.942913,13.64647 c 0.392818,-2.852521 -1.290853,-5.3210302 -3.535368,-5.5833173 -2.244515,-0.2622869 -4.517416,0.3007916 -6.48151,1.533311 -1.964094,1.2325193 -3.14255,2.8350053 -3.14255,2.8350053 0,0 -1.013646,-4.1060292 -4.124596,-4.3683163 -3.110949,-0.2622869 -4.517415,0.503292 -5.89228,1.3132935 -1.374866,0.8100008 -2.160504,1.8400208 -2.160504,1.8400208 l 0.541102,-3.1533143 z"
     fill-rule="evenodd"
     fill="#6E6E6E"/>
</svg>
