<?xml version="1.0" encoding="utf-8"?>
<!-- Generator: Adobe Illustrator 14.0.0, SVG Export Plug-In . SVG Version: 6.00 Build 43363)  -->
<!DOCTYPE svg PUBLIC "-//W3C//DTD SVG 1.1//EN" "http://www.w3.org/Graphics/SVG/1.1/DTD/svg11.dtd">
<svg version="1.1" id="Layer_1" xmlns="http://www.w3.org/2000/svg" xmlns:xlink="http://www.w3.org/1999/xlink" x="0px" y="0px"
	 width="40px" height="40px" viewBox="483.449 91.454 16 16" enable-background="new 483.449 91.454 16 16" xml:space="preserve">
<linearGradient id="SVGID_1_" gradientUnits="userSpaceOnUse" x1="49.6414" y1="752.6541" x2="64.3562" y2="752.6541" gradientTransform="matrix(1 0 0 1 433.79 -653.9971)">
	<stop  offset="0" style="stop-color:#C5C8C8"/>
	<stop  offset="1" style="stop-color:#E8E8E8"/>
</linearGradient>
<path fill="url(#SVGID_1_)" d="M483.431,102.786c0,0,2.419,1.146,4.036,0.196c1.616-0.948,2.264-2.285,2.264-2.285l3.887-6.475
	c0,0,0.541-1.477,2.313-1.624s2.215-0.099,2.215-0.099l-6.054,10.188c0,0-1.328,2.362-3.789,2.116
	c-2.461-0.247-3.396-1.083-3.396-1.083L483.431,102.786z"/>
<linearGradient id="SVGID_2_" gradientUnits="userSpaceOnUse" x1="51.3826" y1="755.4832" x2="64.8318" y2="755.4832" gradientTransform="matrix(1 0 0 1 433.79 -653.9971)">
	<stop  offset="0" style="stop-color:#2C64AF"/>
	<stop  offset="1" style="stop-color:#2B87C7"/>
</linearGradient>
<path fill="url(#SVGID_2_)" d="M485.173,103.823c0,0,1.166,0.738,2.909,0.369s2.604-1.681,2.604-1.681l3.608-4.225
	c0,0,0.451-0.82,2.071-1.066s2.256,0.021,2.256,0.021l-5.865,7.279c0,0-0.86,1.395-2.768,1.334
	c-1.906-0.063-3.321-1.066-3.321-1.066L485.173,103.823z"/>
<linearGradient id="SVGID_3_" gradientUnits="userSpaceOnUse" x1="53.072" y1="757.9324" x2="65.6589" y2="757.9324" gradientTransform="matrix(1 0 0 1 433.79 -653.9971)">
	<stop  offset="0" style="stop-color:#131313"/>
	<stop  offset="1" style="stop-color:#404040"/>
</linearGradient>
<path fill="url(#SVGID_3_)" d="M486.862,104.823c0,0,1.432,0.75,2.743,0.565c1.313-0.185,3.118-1.805,3.118-1.805l2.05-1.865
	c0,0,0.964-0.902,2.584-0.841s2.092,0.431,2.092,0.431l-4.388,4.162c0,0-1.477,1.764-3.63,1.498
	c-2.153-0.268-3.384-1.334-3.384-1.334L486.862,104.823z"/>
<path fill="#FFFFFF" d="M486.043,96.715l-1.245-1.246l1.245-1.246c0.157-0.156,0.157-0.409,0-0.566s-0.41-0.157-0.566,0
	l-1.529,1.529c-0.157,0.156-0.157,0.41,0,0.567l1.529,1.528c0.156,0.157,0.409,0.157,0.566,0
	C486.2,97.125,486.2,96.871,486.043,96.715z"/>
<path fill="#FFFFFF" d="M489.227,96.715l1.246-1.246l-1.246-1.246c-0.157-0.156-0.157-0.409,0-0.566c0.156-0.157,0.41-0.157,0.566,0
	l1.529,1.529c0.156,0.156,0.156,0.41,0,0.567l-1.529,1.528c-0.156,0.157-0.41,0.157-0.566,0
	C489.07,97.125,489.07,96.871,489.227,96.715z"/>
<path fill="#FFFFFF" d="M487.466,98.041c-0.052,0.216-0.268,0.349-0.483,0.298l0,0c-0.215-0.051-0.349-0.267-0.297-0.482l1.077-4.55
	c0.052-0.216,0.268-0.349,0.482-0.298l0,0c0.215,0.051,0.349,0.268,0.297,0.482L487.466,98.041z"/>
</svg>
