<svg width="16" height="16" viewBox="0 0 111 111" fill="none" xmlns="http://www.w3.org/2000/svg">
    <path fill-rule="evenodd" clip-rule="evenodd"
          d="M0.425769 97C-1.24941 101.589 2.23308 106.271 7.11855 106.231L35.2972 106C38.2166 106 40.8295 104.188 41.853 101.454L52.4094 73.0001C54.0845 68.4107 50.8855 63.9607 46 64.0007L17.5379 64C14.6185 64 12.0056 65.8119 10.9822 68.5461L0.425769 97ZM34.8789 94.3935C34.2966 95.9605 32.8012 97.0001 31.1294 97.0001L12.883 97.0001C11.4892 97.0001 10.5228 95.6101 11.0083 94.3035L17.9562 75.6067C18.5385 74.0396 20.0339 73 21.7057 73L39.9521 73C41.346 73 42.3124 74.3901 41.8268 75.6967L34.8789 94.3935Z"
          fill="#6C707E"/>
    <path d="M100.442 73.4036C102.118 68.8142 98.6949 63.9637 93.8095 64.0037L64.2941 64L49 106.052H58.5765L70.4967 73.1947L89.5593 73.0388C90.2566 73.0331 90.7455 73.7248 90.5074 74.3802L79 106.053H88.5765L100.442 73.4036Z"
          fill="#6C707E"/>
    <path d="M17.4354 44C15.7603 48.5895 19.1243 53.04 24.0098 53L49.1844 53.0263L52.4794 43.999L29.8787 43.9999C28.4843 43.9999 27.5179 42.6089 28.0043 41.3021L34.9649 22.6045C35.5479 21.0386 37.0427 20 38.7136 20L61.4762 20L64.845 11L34.5476 11C31.6281 11 29.0153 12.8119 27.9918 15.5461L17.4354 44Z"
          fill="#6C707E"/>
    <path d="M110.778 11.0013L80.481 11.0012C77.5615 11.0012 74.9486 12.8132 73.9252 15.5474L59.9999 52.9997L69.6003 53L80.899 22.6074C81.4815 21.0407 82.9768 20.0013 84.6483 20.0013L107.41 20.0013L110.778 11.0013Z"
          fill="#6C707E"/>
</svg>
