<svg width="40" height="40" viewBox="0 0 40 40" fill="none" xmlns="http://www.w3.org/2000/svg">
    <path fill="#08C4C4" d="M 10.363 20.214 C 10.806 20.562 11.143 20.988 11.374 21.49 C 11.604 21.993 11.721 22.554 11.721 23.171 C 11.721 24.63 11.279 25.744 10.393 26.519 C 9.798 27.059 8.99 27.402 7.973 27.545 L 7.912 27.545 C 7.767 27.545 7.649 27.486 7.557 27.371 C 7.433 27.229 7.372 27.059 7.372 26.867 L 7.372 25.476 C 7.372 25.308 7.418 25.158 7.511 25.029 C 7.604 24.901 7.716 24.823 7.849 24.798 C 8.333 24.734 8.708 24.593 8.975 24.372 C 9.181 24.217 9.321 24.018 9.392 23.772 C 9.432 23.631 9.454 23.451 9.454 23.23 C 9.454 23.088 9.432 22.966 9.392 22.864 C 9.35 22.758 9.28 22.662 9.177 22.574 C 8.878 22.313 8.493 22.096 8.019 21.916 L 7.773 21.818 C 7.259 21.636 6.786 21.49 6.355 21.373 C 6.263 21.348 6.112 21.303 5.907 21.24 L 5.738 21.181 C 5.368 21.063 4.976 20.901 4.565 20.695 C 3.96 20.375 3.46 19.969 3.07 19.477 C 2.619 18.91 2.392 18.163 2.392 17.232 C 2.392 15.956 2.783 14.919 3.564 14.119 C 4.097 13.551 4.848 13.191 5.815 13.035 C 5.981 13.01 6.121 13.069 6.239 13.21 C 6.356 13.353 6.417 13.52 6.417 13.713 L 6.417 15.106 C 6.417 15.271 6.375 15.423 6.293 15.551 C 6.211 15.679 6.105 15.752 5.977 15.773 C 5.848 15.792 5.718 15.828 5.583 15.88 C 5.286 16.02 5.074 16.159 4.952 16.295 C 4.828 16.429 4.741 16.569 4.689 16.712 C 4.637 16.929 4.612 17.137 4.612 17.33 C 4.612 17.433 4.659 17.542 4.75 17.659 C 4.894 17.84 5.105 18.001 5.383 18.143 C 5.507 18.207 5.723 18.305 6.031 18.434 L 7.959 19.032 L 8.051 19.072 C 8.533 19.24 8.883 19.368 9.099 19.458 C 9.583 19.665 10.002 19.915 10.363 20.214 Z M 7.788 15.84 C 7.664 15.802 7.564 15.72 7.489 15.599 C 7.41 15.477 7.372 15.33 7.372 15.162 L 7.372 13.75 C 7.372 13.545 7.438 13.37 7.572 13.231 C 7.625 13.164 7.691 13.123 7.773 13.102 C 7.856 13.083 7.932 13.08 8.004 13.093 C 8.908 13.274 9.644 13.66 10.209 14.255 C 10.98 15.054 11.39 16.074 11.443 17.311 C 11.452 17.492 11.404 17.655 11.295 17.804 C 11.189 17.953 11.057 18.027 10.904 18.027 L 9.7 18.027 C 9.566 18.027 9.448 17.968 9.345 17.852 C 9.243 17.738 9.186 17.595 9.177 17.427 C 9.135 17.091 9.048 16.814 8.914 16.595 C 8.698 16.272 8.364 16.026 7.912 15.858 C 7.88 15.858 7.86 15.853 7.849 15.84 L 7.788 15.84 Z M 5.984 24.721 C 6.108 24.746 6.211 24.823 6.293 24.951 C 6.375 25.082 6.417 25.225 6.417 25.378 L 6.417 26.81 C 6.417 27.017 6.355 27.191 6.231 27.334 C 6.129 27.436 6.011 27.486 5.876 27.486 L 5.8 27.486 C 4.843 27.305 4.057 26.913 3.44 26.308 C 2.639 25.506 2.186 24.392 2.084 22.96 C 2.064 22.754 2.108 22.576 2.222 22.427 C 2.334 22.28 2.469 22.205 2.624 22.205 L 3.842 22.205 C 3.984 22.205 4.108 22.268 4.21 22.389 C 4.315 22.513 4.37 22.662 4.381 22.845 C 4.412 23.488 4.662 23.987 5.136 24.334 C 5.351 24.488 5.636 24.618 5.984 24.721 Z M 21.763 13.538 C 22.39 13.834 22.955 14.311 23.461 14.97 C 24.539 16.338 25.079 18.08 25.079 20.204 C 25.079 22.323 24.539 24.076 23.461 25.455 C 22.955 26.113 22.39 26.59 21.763 26.889 C 21.116 27.221 20.454 27.389 19.775 27.389 L 15.412 27.389 C 15.268 27.389 15.142 27.323 15.034 27.189 C 14.925 27.051 14.871 26.894 14.871 26.712 L 14.871 25.32 C 14.871 25.127 14.925 24.961 15.034 24.828 C 15.142 24.692 15.268 24.624 15.412 24.624 L 19.728 24.624 C 20.643 24.624 21.385 24.205 21.955 23.367 C 22.527 22.527 22.811 21.477 22.811 20.214 C 22.811 18.95 22.527 17.899 21.955 17.06 C 21.385 16.222 20.643 15.802 19.728 15.802 L 15.412 15.802 C 15.268 15.802 15.142 15.733 15.034 15.599 C 14.925 15.462 14.871 15.3 14.871 15.106 L 14.871 13.713 C 14.871 13.532 14.925 13.374 15.034 13.24 C 15.142 13.102 15.268 13.035 15.412 13.035 L 19.775 13.035 C 20.454 13.035 21.116 13.202 21.763 13.538 Z M 38.098 26.288 C 38.16 26.378 38.197 26.487 38.204 26.618 C 38.216 26.746 38.199 26.867 38.153 26.984 C 38.106 27.1 38.039 27.191 37.952 27.255 C 37.864 27.32 37.77 27.353 37.666 27.353 L 36.202 27.353 C 36.109 27.353 36.024 27.324 35.947 27.274 C 35.871 27.221 35.806 27.152 35.755 27.059 L 32.069 20.406 L 30.559 22.186 L 30.559 26.673 C 30.559 26.855 30.505 27.014 30.396 27.149 C 30.289 27.285 30.162 27.353 30.019 27.353 L 28.846 27.353 C 28.704 27.353 28.577 27.285 28.47 27.149 C 28.36 27.014 28.308 26.855 28.308 26.673 L 28.308 21.296 C 28.308 21.091 28.364 20.929 28.477 20.813 L 34.921 13.231 C 35.024 13.099 35.148 13.035 35.292 13.035 L 36.957 13.035 C 37.059 13.035 37.158 13.074 37.25 13.152 C 37.344 13.231 37.409 13.334 37.45 13.462 C 37.492 13.591 37.502 13.723 37.482 13.858 C 37.46 13.991 37.409 14.113 37.329 14.216 L 33.719 18.472 L 38.098 26.288 Z M 28.846 17.968 C 28.704 17.968 28.577 17.905 28.47 17.776 C 28.36 17.646 28.308 17.486 28.308 17.293 L 28.308 13.713 C 28.308 13.532 28.36 13.374 28.47 13.24 C 28.577 13.102 28.704 13.035 28.846 13.035 L 30.019 13.035 C 30.162 13.035 30.289 13.102 30.396 13.24 C 30.505 13.374 30.559 13.532 30.559 13.713 L 30.559 17.293 C 30.559 17.486 30.505 17.646 30.396 17.776 C 30.289 17.905 30.162 17.968 30.019 17.968 L 28.846 17.968 Z"/>
</svg>