<svg t="1738286985683" class="icon" viewBox="0 0 1024 1024" version="1.1" xmlns="http://www.w3.org/2000/svg" p-id="8925" width="67" height="67"><path d="M163.84 709.28S102.56 641.28 81.6 593.6s23.84-64 49.28-32.96 36.16 59.04 55.52 43.52c30.08-24 80-33.76 92.48-27.04 5.28-36.8 10.4-85.76 32.96-99.04 22.4 0 32.96 14.88 32.8 66.08a566.24 566.24 0 0 1-16 115.52c0 11.2 29.92 29.12 49.44-16a1184 1184 0 0 1 98.56-165.12c18.4-24.32 78.24-64 148 0C666.56 512 673.44 528 673.44 528s42.08 16 65.76-49.6c17.6-48.8 2.88-104.16-49.28-148.64-58.4-49.6-109.44-78.08-115.04-164.96s91.36-144 147.84-148.64 130.88-3.36 180.96 49.6 52.16 100.16 32.8 132-80 34.72-82.24-16-3.2-80-32-99.04-119.2-19.68-148 16c-26.56 33.44-35.04 104.48 0 132s142.4 112 131.52 198.24-53.76 120.96-99.36 148.16c41.92 18.72 78.72 58.88 98.56 132.16 9.44 25.12 8.32 65.28 32.96 99.04s87.68 82.88 82.08 132-11.2 32-49.28 32.96-70.72 20.8-65.76-32.96c4-14.24 9.12-14.56 32.96-16-7.2-26.88 0-42.88-32.96-66.08s-52.96-5.6-65.76-49.92-57.44-86.88-49.28-49.6 11.04 82.56 32.8 115.52 37.76 74.56 32.96 99.04-13.28 13.28-49.28 16c-29.76 2.72-65.92-4.48-32.96-33.12 9.12-7.84 25.92-13.44 16-32.96S614.88 880 592 841.28s-27.84-57.28-33.6-115.52c-1.6-30.4-13.44-70.72-32.96-66.08s-48 52.16-49.28 99.04c-1.44 81.44 7.84 89.6 16 132.16s0 49.44 0 49.44 32-9.12 32.8 16 3.68 30.08-32.8 33.12-92 10.24-82.24-16 18.24-27.84 32.96-32.96c2.24-34.4 0-126.56 0-148.64s-22.08 8.8-32.96 16c-13.76 56-22.72 152-49.28 181.6s-113.12 18.56-131.52 16c-14.72-2.08-28.8-64 32-66.08 35.36 2.4 40.8 7.84 49.44 16s22.88-4.96 32.8-32.96c5.92-16 18.56-48 16-66.08s3.2-60.32-16-66.08-32-12.16-32.8-32.96-1.76-51.68-16-49.44a94.72 94.72 0 0 0-22.88 5.6 35.04 35.04 0 0 1-26.4 27.36c-23.84 9.28-60-8.32-81.44-31.52z" fill="#6C707E" p-id="8926"></path></svg>