<?xml version="1.0" encoding="UTF-8"?>
<svg xmlns="http://www.w3.org/2000/svg" width="40px" height="40px" viewBox="0 0 40 40" version="1.1"
     shape-rendering="geometricPrecision" style="background: transparent;">
    <g id="surface1" transform="translate(-4 -4) scale(1.4)">
        <path style=" stroke:none;fill-rule:nonzero;fill:rgb(30.19608%,56.078434%,82.745099%);fill-opacity:1;"
              d="M 21.082031 6.78125 C 21.210938 6.820312 21.210938 6.820312 21.34375 6.859375 C 23.136719 7.40625 24.652344 8.28125 26.03125 9.550781 C 26.097656 9.613281 26.167969 9.675781 26.238281 9.738281 C 27.6875 11.121094 28.75 13 29.222656 14.9375 C 29.253906 15.046875 29.285156 15.15625 29.316406 15.265625 C 29.535156 16.097656 29.582031 16.917969 29.582031 17.777344 C 29.582031 17.878906 29.582031 17.984375 29.582031 18.089844 C 29.570312 19.09375 29.476562 20.085938 29.171875 21.046875 C 29.152344 21.113281 29.128906 21.183594 29.109375 21.253906 C 28.640625 22.707031 27.957031 24.082031 26.929688 25.222656 C 27.039062 25.460938 27.152344 25.628906 27.339844 25.8125 C 27.414062 25.886719 27.414062 25.886719 27.488281 25.960938 C 27.570312 26.042969 27.570312 26.042969 27.652344 26.125 C 27.710938 26.183594 27.769531 26.238281 27.828125 26.296875 C 28.015625 26.488281 28.207031 26.675781 28.398438 26.863281 C 28.527344 26.992188 28.660156 27.125 28.792969 27.253906 C 29.140625 27.601562 29.488281 27.945312 29.832031 28.289062 C 30.390625 28.839844 30.945312 29.390625 31.5 29.945312 C 31.695312 30.136719 31.890625 30.328125 32.085938 30.523438 C 32.203125 30.640625 32.324219 30.757812 32.441406 30.875 C 32.496094 30.929688 32.550781 30.984375 32.605469 31.039062 C 32.65625 31.089844 32.707031 31.136719 32.757812 31.1875 C 32.800781 31.230469 32.84375 31.273438 32.886719 31.316406 C 33.128906 31.582031 33.105469 31.867188 33.097656 32.203125 C 33.070312 32.40625 33.070312 32.40625 32.917969 32.664062 C 32.546875 32.882812 32.261719 32.90625 31.84375 32.816406 C 31.679688 32.707031 31.679688 32.707031 31.527344 32.5625 C 31.46875 32.511719 31.414062 32.457031 31.355469 32.40625 C 31.273438 32.324219 31.273438 32.324219 31.1875 32.246094 C 31.140625 32.199219 31.089844 32.152344 31.039062 32.105469 C 30.894531 31.960938 30.746094 31.816406 30.601562 31.671875 C 30.546875 31.617188 30.492188 31.5625 30.4375 31.507812 C 30.261719 31.328125 30.082031 31.152344 29.90625 30.976562 C 29.78125 30.851562 29.660156 30.726562 29.535156 30.605469 C 29.210938 30.28125 28.886719 29.957031 28.5625 29.632812 C 28.230469 29.300781 27.898438 28.96875 27.570312 28.640625 C 26.917969 27.992188 26.269531 27.34375 25.621094 26.695312 C 25.367188 26.816406 25.148438 26.960938 24.921875 27.128906 C 22.46875 28.949219 19.429688 29.613281 16.410156 29.273438 C 13.460938 28.816406 10.707031 27.230469 8.902344 24.84375 C 7.03125 22.269531 6.214844 19.085938 6.703125 15.933594 C 7.148438 13.542969 8.269531 11.4375 9.988281 9.714844 C 10.042969 9.65625 10.042969 9.65625 10.101562 9.597656 C 11.359375 8.351562 13.023438 7.332031 14.734375 6.855469 C 14.800781 6.839844 14.867188 6.820312 14.933594 6.800781 C 16.882812 6.277344 19.140625 6.199219 21.082031 6.78125 Z M 11.570312 10.675781 C 11.378906 10.855469 11.378906 10.855469 11.175781 11.011719 C 9.414062 12.476562 8.539062 15.03125 8.324219 17.222656 C 8.160156 19.675781 8.945312 22.105469 10.515625 23.996094 C 10.691406 24.191406 10.867188 24.382812 11.050781 24.570312 C 11.117188 24.640625 11.183594 24.710938 11.25 24.78125 C 11.320312 24.847656 11.390625 24.910156 11.460938 24.980469 C 11.511719 25.03125 11.5625 25.082031 11.613281 25.136719 C 13.398438 26.847656 15.921875 27.671875 18.367188 27.640625 C 20.472656 27.554688 22.808594 26.839844 24.3125 25.304688 C 24.265625 25.261719 24.21875 25.214844 24.171875 25.167969 C 23.960938 24.960938 23.753906 24.753906 23.542969 24.546875 C 23.472656 24.472656 23.398438 24.402344 23.324219 24.328125 C 23.253906 24.257812 23.183594 24.191406 23.113281 24.117188 C 23.046875 24.054688 22.984375 23.992188 22.917969 23.925781 C 22.636719 23.628906 22.558594 23.433594 22.566406 23.019531 C 22.609375 22.765625 22.738281 22.625 22.921875 22.449219 C 23.199219 22.308594 23.441406 22.292969 23.738281 22.367188 C 24.046875 22.578125 24.296875 22.835938 24.558594 23.101562 C 24.648438 23.191406 24.738281 23.28125 24.828125 23.367188 C 25.066406 23.605469 25.304688 23.84375 25.539062 24.082031 C 27.046875 22.703125 27.738281 20.351562 27.871094 18.386719 C 27.96875 15.925781 27.175781 13.421875 25.515625 11.578125 C 25.386719 11.445312 25.261719 11.3125 25.128906 11.183594 C 25.0625 11.113281 24.992188 11.046875 24.921875 10.976562 C 24.855469 10.910156 24.789062 10.84375 24.722656 10.777344 C 24.667969 10.71875 24.609375 10.664062 24.554688 10.605469 C 22.800781 8.929688 20.308594 8.085938 17.90625 8.113281 C 15.558594 8.207031 13.269531 9.035156 11.570312 10.675781 Z M 11.570312 10.675781 "/>
        <path style=" stroke:none;fill-rule:nonzero;fill:rgb(60.000002%,80.392158%,96.470588%);fill-opacity:1;"
              d="M 18.5 15.511719 C 18.933594 15.511719 19.363281 15.511719 19.808594 15.511719 C 19.859375 15.65625 19.859375 15.65625 19.90625 15.808594 C 20.023438 16.171875 20.140625 16.535156 20.261719 16.894531 C 20.3125 17.054688 20.363281 17.210938 20.414062 17.367188 C 20.484375 17.59375 20.558594 17.820312 20.632812 18.046875 C 20.65625 18.117188 20.679688 18.1875 20.703125 18.257812 C 20.722656 18.324219 20.746094 18.390625 20.765625 18.457031 C 20.785156 18.515625 20.804688 18.574219 20.824219 18.632812 C 20.871094 18.78125 20.871094 18.78125 20.957031 18.9375 C 21.003906 18.789062 21.003906 18.789062 21.050781 18.632812 C 21.167969 18.257812 21.289062 17.886719 21.40625 17.511719 C 21.457031 17.351562 21.507812 17.191406 21.558594 17.027344 C 21.632812 16.796875 21.707031 16.5625 21.777344 16.332031 C 21.800781 16.257812 21.824219 16.1875 21.847656 16.113281 C 21.871094 16.042969 21.890625 15.976562 21.914062 15.910156 C 21.933594 15.847656 21.949219 15.789062 21.96875 15.730469 C 22.019531 15.59375 22.019531 15.59375 22.101562 15.511719 C 22.308594 15.503906 22.511719 15.5 22.714844 15.5 C 22.773438 15.5 22.832031 15.5 22.890625 15.5 C 23.320312 15.5 23.320312 15.5 23.410156 15.59375 C 23.417969 15.742188 23.421875 15.890625 23.421875 16.042969 C 23.421875 16.136719 23.421875 16.234375 23.421875 16.332031 C 23.421875 16.4375 23.421875 16.542969 23.421875 16.652344 C 23.421875 16.757812 23.421875 16.863281 23.421875 16.972656 C 23.421875 17.199219 23.421875 17.425781 23.421875 17.652344 C 23.421875 17.941406 23.421875 18.230469 23.421875 18.523438 C 23.421875 18.796875 23.421875 19.074219 23.421875 19.347656 C 23.421875 19.453125 23.421875 19.558594 23.421875 19.667969 C 23.421875 19.8125 23.421875 19.8125 23.421875 19.957031 C 23.421875 20.042969 23.421875 20.128906 23.421875 20.214844 C 23.410156 20.40625 23.410156 20.40625 23.328125 20.488281 C 23.195312 20.496094 23.058594 20.5 22.921875 20.5 C 22.808594 20.5 22.808594 20.5 22.695312 20.5 C 22.511719 20.488281 22.511719 20.488281 22.429688 20.40625 C 22.417969 20.171875 22.40625 19.9375 22.402344 19.703125 C 22.402344 19.640625 22.398438 19.578125 22.398438 19.515625 C 22.394531 19.28125 22.386719 19.046875 22.382812 18.8125 C 22.367188 18.027344 22.367188 18.027344 22.347656 17.222656 C 21.996094 18.300781 21.644531 19.378906 21.28125 20.488281 C 21.011719 20.488281 20.742188 20.488281 20.464844 20.488281 C 19.9375 18.875 19.9375 18.875 19.402344 17.222656 C 19.375 18.300781 19.347656 19.378906 19.320312 20.488281 C 19.046875 20.488281 18.777344 20.488281 18.5 20.488281 C 18.5 18.847656 18.5 17.203125 18.5 15.511719 Z M 18.5 15.511719 "/>
        <path style=" stroke:none;fill-rule:nonzero;fill:rgb(41.568628%,80.392158%,58.039218%);fill-opacity:1;"
              d="M 15.707031 15.488281 C 15.769531 15.488281 15.832031 15.488281 15.898438 15.484375 C 16.335938 15.480469 16.636719 15.558594 17.027344 15.753906 C 17.027344 15.996094 17.027344 16.238281 17.027344 16.488281 C 16.972656 16.476562 16.917969 16.464844 16.859375 16.453125 C 16.222656 16.324219 15.574219 16.207031 14.945312 16.421875 C 14.632812 16.644531 14.445312 16.859375 14.324219 17.222656 C 14.304688 17.476562 14.304688 17.726562 14.304688 17.980469 C 14.304688 18.046875 14.300781 18.117188 14.300781 18.1875 C 14.296875 18.730469 14.371094 19.136719 14.761719 19.546875 C 15.175781 19.796875 15.742188 19.695312 16.207031 19.671875 C 16.234375 19.324219 16.261719 18.972656 16.289062 18.613281 C 15.992188 18.613281 15.695312 18.613281 15.390625 18.613281 C 15.390625 18.398438 15.390625 18.179688 15.390625 17.960938 C 15.984375 17.960938 16.578125 17.960938 17.191406 17.960938 C 17.191406 18.714844 17.191406 19.46875 17.191406 20.246094 C 16.5625 20.453125 16.210938 20.53125 15.589844 20.527344 C 15.480469 20.527344 15.480469 20.527344 15.367188 20.53125 C 14.746094 20.53125 14.320312 20.371094 13.847656 19.964844 C 13.324219 19.351562 13.230469 18.75 13.230469 17.96875 C 13.226562 17.898438 13.226562 17.832031 13.222656 17.761719 C 13.222656 17.140625 13.402344 16.632812 13.777344 16.136719 C 14.347656 15.570312 14.9375 15.496094 15.707031 15.488281 Z M 15.707031 15.488281 "/>
    </g>
</svg>