<?xml version="1.0" encoding="UTF-8" standalone="no"?>
<svg xmlns="http://www.w3.org/2000/svg" viewBox="0 0 640 512">
    <path fill="currentColor" d="M256.47 216.77l86.73 109.18s-16.6 102.36-76.57 150.12C206.66 523.85 0 510.19 0 510.19s3.8-23.14 11-55.43l94.62-112.17c3.97-4.7-.87-11.62-6.65-9.5l-60.4 22.09c14.44-41.66 32.72-80.04 54.6-97.47 59.97-47.76 163.3-40.94 163.3-40.94zM636.53 31.03l-19.86-25c-5.49-6.9-15.52-8.05-22.41-2.56l-232.48 177.8-34.14-42.97c-5.09-6.41-15.14-5.21-18.59 2.21l-25.33 54.55 86.73 109.18 58.8-12.45c8-1.69 11.42-11.2 6.34-17.6l-34.09-42.92 232.48-177.8c6.89-5.48 8.04-15.53 2.55-22.44z"/>
    <path style="fill:#a05a2c;stroke-width:2.16949153" d="M 17.030508,510.12087 C -0.16425884,509.03769 0.51973012,511.15919 6.9522553,478.86136 l 4.5691977,-22.94204 46.589703,-55.15966 c 25.624337,-30.33781 47.582904,-56.98203 48.796824,-59.20937 1.64085,-3.01071 1.35055,-4.90629 -1.1315,-7.38834 -3.00517,-3.00516 -6.330753,-2.24652 -33.296532,7.59571 -16.476852,6.01388 -30.297331,10.62633 -30.712173,10.24989 -0.981866,-0.89096 6.241168,-19.95844 14.430957,-38.09505 9.735719,-21.56013 23.362569,-41.92456 35.138428,-52.51207 20.35894,-18.30444 56.47758,-33.10627 96.20246,-39.42486 19.62743,-3.12192 67.37626,-5.39161 69.23096,-3.29082 0.52673,0.59661 19.77826,24.82773 42.78116,53.84693 l 41.82348,52.76219 -1.35856,9.91179 c -1.96445,14.33215 -17.05264,58.18281 -26.43471,76.82692 -32.7042,64.99001 -63.98928,84.01252 -154.99212,94.24103 -27.77409,3.12174 -115.310759,5.50078 -141.559322,3.84726 z"/>
    <path style="fill:#d38d5f;stroke-width:2.16949153" d="M 6.1830508,508.22615 C 3.6251958,505.51884 4.4032351,494.67318 8.591956,474.64667 l 3.864995,-18.47875 41.06644,-48.81653 c 53.421999,-63.50382 55.838119,-66.63891 54.348449,-70.52093 -2.36846,-6.17212 -7.44313,-5.57935 -35.814444,4.18348 -15.647839,5.38457 -28.450616,8.78065 -28.450616,7.54686 0,-5.27767 18.200912,-45.17267 27.184362,-59.58603 27.082489,-43.45207 75.816198,-65.23593 155.147648,-69.35065 l 29.3625,-1.52296 42.77285,53.91544 c 49.2628,62.09609 45.76974,51.59858 31.70391,95.27832 -20.11989,62.47994 -46.45829,99.61144 -82.9622,116.95893 -34.60852,16.44677 -78.98342,22.76754 -171.751443,24.46436 -36.989831,0.67658 -67.9864409,0.45516 -68.8813562,-0.49206 z"/>
    <path style="fill:#ac9d93;stroke-width:2.16949153" d="m 328.90816,250.18652 c -23.27508,-29.2514 -42.31833,-54.54723 -42.31833,-56.21291 0,-1.66568 5.80839,-15.33625 12.90752,-30.37903 12.1269,-25.6964 13.28517,-27.35051 19.15189,-27.35051 5.33715,0 8.70928,3.1622 23.21035,21.76543 9.33129,11.97099 17.80248,22.28241 18.82486,22.91427 1.02238,0.63187 54.60292,-39.18292 119.06788,-88.477291 C 573.64595,20.648905 598.43029,2.6880768 604.3459,2.1554423 c 6.88705,-0.6201005 8.2711,0.4594382 20.54307,16.0233247 14.09156,17.871589 16.37506,25.905607 9.35474,32.912758 -2.09204,2.088136 -55.36082,43.202192 -118.37503,91.364565 -76.98578,58.84099 -114.19229,88.5556 -113.416,90.57858 0.63541,1.65585 8.50757,12.15167 17.49368,23.32406 16.21899,20.16496 19.04432,26.80324 13.40112,31.48667 -1.61549,1.34075 -14.06295,4.8658 -27.66101,7.83347 -13.59807,2.96765 -26.91441,5.91241 -29.59186,6.5439 -4.21887,0.99504 -10.51201,-5.94492 -47.18645,-52.03625 z"/>
</svg>
