<?xml version="1.0" encoding="UTF-8" standalone="no"?>
<svg
        version="1.1"
        viewBox="0 0 30 30"
        width="40"
        height="40"
        id="svg10"
        xmlns="http://www.w3.org/2000/svg"
        xmlns:svg="http://www.w3.org/2000/svg">
    <defs
            id="defs14" />

    <path
            d="m 15.674603,1.6559524 c 3.180159,0.1071428 6.292857,1.4015873 8.605556,3.5873016 0.237301,0.204365 0.454365,0.4146825 0.655952,0.6547619 1.234524,1.3130952 2.19881,2.8761904 2.807143,4.5734131 0.1,0.298015 0.192857,0.598015 0.305556,0.891666 0.536507,-0.707143 0.976587,-1.4944442 1.394841,-2.2761902 C 29.627778,8.7222222 29.80754,8.3555556 30,7.9948413 v 0.159127 c -0.05794,0.4146825 -0.110714,0.8154761 -0.234524,1.2154761 -0.242857,0.7948416 -0.585317,1.5670636 -0.93492,2.3198416 -0.131746,0.286904 -0.272619,0.569841 -0.422619,0.847222 -0.974604,1.815873 -2.053175,3.717063 -3.430556,5.25754 -0.297619,0.351587 -0.634524,0.663492 -0.99127,0.954365 -0.568254,0.470635 -1.318651,0.915079 -2.08254,0.857936 -0.665476,-0.03214 -1.201587,-0.384524 -1.656746,-0.845238 -0.579365,-0.606746 -1.050793,-1.372222 -1.483333,-2.087301 -0.748413,-1.278175 -1.464682,-2.590477 -2.419841,-3.730953 -0.172222,-0.211508 -0.366667,-0.4 -0.559127,-0.59246 -0.806746,-0.847222 -1.855159,-1.483334 -2.990873,-1.772619 -0.563492,-0.138889 -1.142064,-0.199603 -1.722222,-0.18254 -0.808731,-0.02659 -1.62381,0.105952 -2.396429,0.341667 -1.3611111,0.424206 -2.5547619,1.194841 -3.5865079,2.169047 -0.236508,0.239683 -0.4777778,0.474604 -0.7126984,0.715873 -0.8083334,0.875 -1.534127,1.849604 -2.2107143,2.829762 -0.3710318,0.521032 -0.7075397,1.061905 -0.9797619,1.64127 C 0.9734127,18.532143 0.7984127,19.005556 0.71666667,19.487302 0.66626984,19.781746 0.675,20.066667 0.66428571,20.36627 0.25277778,19.856746 0.10039683,19.259127 0,18.625 V 17.994048 C 0.0702381,17.57381 0.14404762,17.167063 0.2968254,16.768254 0.54246032,16.073413 0.93492063,15.454762 1.3777778,14.869841 1.5384921,14.65 1.7456349,14.503571 1.75,14.207937 1.9345238,10.696825 3.5996032,7.3238095 6.2373016,5.006746 7.6178571,3.7797619 9.2535714,2.8531746 11.008333,2.2801587 12.021825,1.9670635 13.071429,1.75 14.130952,1.6797619 c 0.518651,-0.019841 1.024604,-0.086905 1.543651,-0.023809 z"
            fill="#f2a520"
            id="path4"
            style="stroke-width:0.0396825" />

    <path
            d="m 28.483333,14.04246 c 0.08373,2.205556 -0.281349,4.486905 -1.187698,6.507937 -0.561508,1.246825 -1.32381,2.414682 -2.261508,3.411905 -0.181349,0.202777 -0.360714,0.405952 -0.560714,0.590476 -0.402778,0.36627 -0.800794,0.735317 -1.228175,1.073809 -0.889286,0.700794 -1.860317,1.284921 -2.893651,1.747223 -1.342857,0.576984 -2.811111,0.944841 -4.275793,0.974206 -0.503572,0.03929 -1.010715,0.03809 -1.513889,-0.002 -1.194445,-0.05635 -2.380953,-0.261111 -3.523016,-0.61627 C 8.9579365,27.077381 7.0436508,25.924603 5.5253968,24.355556 4.8781746,23.724206 4.3075397,23.008333 3.8357143,22.236905 4.4019841,21.782937 4.9285714,21.24246 5.2964286,20.612698 6.0357143,19.388889 6.7095238,18.060317 7.525,16.890079 7.8535714,16.417063 8.1996032,15.960714 8.6198413,15.564286 8.9527778,15.210317 9.3388889,14.920635 9.7623016,14.683333 10.394444,14.334921 11.15,14.195238 11.86627,14.204762 c 0.805952,0.01349 1.543651,0.531349 2.093254,1.081746 0.911111,0.869048 1.605555,1.913492 2.377381,2.9 0.447222,0.592857 0.921825,1.163492 1.430158,1.705159 0.232937,0.24246 0.490874,0.464285 0.747223,0.681746 0.737301,0.610317 1.600793,1.044841 2.555555,1.178174 1.037302,0.153175 2.138492,-0.146031 2.994445,-0.742063 0.305555,-0.204365 0.588492,-0.440476 0.847619,-0.701191 0.982143,-0.927381 1.730158,-2.173016 2.350397,-3.363889 0.359523,-0.757936 0.706349,-1.511904 0.990873,-2.301984 0.07183,-0.201984 0.146428,-0.402777 0.230158,-0.6 z"
            fill="#00abc5"
            id="path8"
            style="stroke-width:0.0396825" />
</svg>
