<svg xmlns="http://www.w3.org/2000/svg" viewBox="0 0 40 40" width="40" height="40">
	<g id="Page-1" stroke="none" stroke-width="1" fill="none" fill-rule="evenodd">
		<g id="Group" fill-rule="nonzero">
			<path d="M0.41025641,24.4693167 L7.35332839,24.4693167 L10.6839533,8.7183711 C11.9426568,7.55327976 13.5773146,6.78910376 15.3468282,6.53855274 C15.8703972,6.49976526 16.3892552,6.65360916 16.7884189,6.96599136 C17.1875826,7.27837356 17.4340868,7.72349575 17.4733041,8.20271514 L17.4733041,8.20271514 C17.5244216,8.42687814 17.5244216,8.65828045 17.4733041,8.88244345 L14.4245013,24.4693167 L21.4956743,24.4693167 L24.5957175,8.92932126 C25.954341,7.78713199 27.6614451,7.051223 29.4891741,6.81981962 C30.0127431,6.78103214 30.5316011,6.93487605 30.9307648,7.24725825 C31.3299285,7.55964045 31.5764327,8.00476264 31.61565,8.48398203 L31.61565,8.48398203 C31.6667675,8.70814503 31.6667675,8.93954733 31.61565,9.16371033 L28.413126,24.4693167 L35.6123999,24.4693167 L39.224847,6.53855274 C39.5578367,5.37253966 39.3657149,4.1330577 38.6915106,3.09770969 C38.0173062,2.06236167 36.9173588,1.31766592 35.6380201,1.03040957 L35.6380201,1.03040957 C35.1285314,0.959692802 34.6102973,0.959692802 34.1008086,1.03040957 C30.6443384,1.26143478 27.4040321,2.65596895 25.0056405,4.94470705 C24.8964819,2.76192455 22.9361147,1.04061238 20.5477272,1.03040957 L20.2146647,1.03040957 C16.8222083,1.19512253 13.6174894,2.50652941 11.2219773,4.71031798 L11.2219773,1.40543208 L5.27809285,1.40543208 L0.41025641,24.4693167 Z"
				  id="Path" fill="#4682FA"></path>
			<path d="M5.12820513,24 C2.35755331,23.8601695 0.143415909,21.7013855 0,19 L0,17 C0,15.08 0.923076923,13 2.05128205,13 L2.05128205,15 C1.61025641,15 1.02564103,15.58 1.02564103,17 L1.02564103,19 C1.27360309,21.1008756 2.97346095,22.758237 5.12820513,23 L5.12820513,24 Z M2.05128205,15 L2.05128205,13 C2.04897091,12.6774376 2.23631188,12.3820766 2.53333333,12.24 L2.85128205,12.08 C3.08462225,11.9704848 3.35640339,11.9704848 3.58974359,12.08 L3.58974359,15.92 C3.35640339,16.0295152 3.08462225,16.0295152 2.85128205,15.92 L2.53333333,15.76 C2.23631188,15.6179234 2.04897091,15.3225624 2.05128205,15 L2.05128205,15 Z M6.2974359,10 L10.2564103,10 L10.2564103,18 L6.2974359,18 C5.01590489,17.9195585 4.03822537,16.850507 4.1025641,15.6 L4.1025641,12.4 C4.03822537,11.149493 5.01590489,10.0804415 6.2974359,10 Z M10.7692308,17 L10.7692308,16 L14.3589744,16 L14.3589744,17 L10.7692308,17 Z M10.7692308,12 L10.7692308,11 L14.3589744,11 L14.3589744,12 L10.7692308,12 Z"
				  id="Shape" fill="#F77500"></path>
		</g>
	</g>
</svg>
