<svg width="16" height="16" viewBox="0 0 16 16" fill="none" xmlns="http://www.w3.org/2000/svg"><path fill-rule="evenodd" clip-rule="evenodd" stroke-width=".35" stroke="#2684ff" d="M3.227 4.37q-.46.602-.757 1.306l.84 1.418c.33.559.33 1.253 0 1.812l-.84 1.418c.197.468.452.907.757 1.306l1.646-.018c.649-.007 1.25.34 1.568.906l.808 1.435a6 6 0 0 0 1.51 0l.808-1.435c.318-.566.92-.913 1.568-.906l1.647.018c.304-.4.559-.838.756-1.306l-.84-1.418a1.78 1.78 0 0 1 0-1.812l.84-1.418a6 6 0 0 0-.756-1.306l-1.647.018a1.78 1.78 0 0 1-1.568-.906l-.808-1.435a6 6 0 0 0-1.51 0l-.808 1.435c-.318.566-.92.913-1.568.906zM10.655 8a2.651 2.651 0 1 1-5.302 0 2.651 2.651 0 0 1 5.302 0M4.884 3.388a.78.78 0 0 0 .686-.397l.868-1.542a.73.73 0 0 1 .526-.372 7 7 0 0 1 2.08 0 .73.73 0 0 1 .526.372l.868 1.542c.14.248.402.4.686.397l1.77-.02a.73.73 0 0 1 .584.269 7 7 0 0 1 1.043 1.802.73.73 0 0 1-.06.64l-.902 1.525a.78.78 0 0 0 0 .792l.902 1.525c.115.194.142.43.06.64a7 7 0 0 1-1.043 1.802.73.73 0 0 1-.584.269l-1.77-.02a.78.78 0 0 0-.686.396l-.868 1.543a.73.73 0 0 1-.526.372 7 7 0 0 1-2.08 0 .73.73 0 0 1-.526-.372l-.868-1.543a.78.78 0 0 0-.686-.396l-1.77.02a.73.73 0 0 1-.584-.269 7 7 0 0 1-1.043-1.802.73.73 0 0 1 .06-.64l.902-1.525a.78.78 0 0 0 0-.792l-.902-1.525a.73.73 0 0 1-.06-.64A7 7 0 0 1 2.53 3.637a.73.73 0 0 1 .584-.269zM9.655 8a1.651 1.651 0 1 1-3.302 0 1.651 1.651 0 0 1 3.302 0" fill="#2684ff"/><path style="fill:#ff0;stroke:#969696;stroke-width:.00900248" d="M7.67 13.978a3 3 0 0 1-.378-.032c-.036-.014-.148-.197-.443-.721a28 28 0 0 0-.48-.832 1.86 1.86 0 0 0-.813-.659c-.321-.124-.342-.125-1.383-.119l-.944.006-.131-.186a6 6 0 0 1-.489-.828c-.107-.218-.126-.272-.11-.308.011-.024.204-.354.43-.733.225-.38.43-.733.456-.785a1.85 1.85 0 0 0-.005-1.573 40 40 0 0 0-.452-.775 42 42 0 0 1-.428-.73c-.036-.078.28-.683.578-1.11l.151-.216.875.01c1.073.014 1.204 0 1.562-.17a1.9 1.9 0 0 0 .703-.61c.047-.07.263-.445.48-.831.294-.524.406-.708.441-.721.119-.045 1.138-.052 1.386-.01l.08.014.405.72c.223.395.436.767.475.825a1.84 1.84 0 0 0 1.067.742c.175.044.2.045 1.127.039l.948-.006.096.131c.226.307.64 1.052.641 1.151 0 .02-.192.361-.426.757-.47.793-.526.901-.59 1.135a2.2 2.2 0 0 0 0 .894c.064.234.12.342.59 1.135.234.396.426.737.426.757 0 .099-.415.844-.64 1.15l-.097.132-.948-.006c-.926-.006-.952-.005-1.127.039a1.83 1.83 0 0 0-1.066.74c-.04.06-.253.432-.476.827l-.405.72-.08.013c-.152.026-.677.038-1.006.024zm.815-3.365a2.68 2.68 0 0 0 2.104-1.991c.05-.2.054-.244.054-.622s-.004-.423-.054-.622a2.6 2.6 0 0 0-.684-1.228 2.63 2.63 0 0 0-1.429-.766 3.1 3.1 0 0 0-.997.01c-.53.112-.966.347-1.348.728-.38.377-.62.824-.738 1.366-.05.23-.05.793 0 1.024.115.529.356.982.717 1.346.228.23.403.36.671.498.308.158.64.258.98.295.146.016.555-.006.724-.038z"/></svg>