<?xml version="1.0" encoding="UTF-8"?><svg id="a" xmlns="http://www.w3.org/2000/svg" xmlns:xlink="http://www.w3.org/1999/xlink" viewBox="0 0 512 512"><defs><linearGradient id="b" x1="370" y1="58.546" x2="142" y2="453.454" gradientUnits="userSpaceOnUse"><stop offset="0" stop-color="#222"/><stop offset="1" stop-color="#111"/></linearGradient><linearGradient id="c" x1="370" y1="58.546" x2="142" y2="453.454" gradientUnits="userSpaceOnUse"><stop offset="0" stop-color="#ffd966"/><stop offset=".5" stop-color="#ff9059"/><stop offset="1" stop-color="#ff6188"/></linearGradient><linearGradient id="d" x1="370" y1="58.546" x2="142" y2="453.454" gradientUnits="userSpaceOnUse"><stop offset="0" stop-color="#222"/><stop offset="1" stop-color="#111"/></linearGradient><linearGradient id="e" x1="316.669" y1="288.152" x2="281.823" y2="348.507" xlink:href="#c"/><linearGradient id="f" x1="314.79" y1="154.173" x2="197.21" y2="357.827" xlink:href="#c"/></defs><path d="m484,350.685v-189.371c0-22.865-12.198-43.993-32-55.426L288,11.203C268.198-.229,243.802-.229,224,11.203L60,105.889c-19.802,11.432-32,32.561-32,55.426v189.371c0,22.865,12.198,43.993,32,55.426l164,94.685c19.802,11.432,44.198,11.432,64,0l164-94.685c19.802-11.432,32-32.561,32-55.426Z" fill="url(#b)" stroke-width="0"/><path d="m256,26.629c7.012,0,13.928,1.853,20,5.359l164,94.685c12.336,7.123,20,20.396,20,34.641v189.371c0,14.245-7.664,27.519-20,34.641l-164,94.685c-6.072,3.506-12.988,5.359-20,5.359s-13.928-1.853-20-5.359l-164-94.685c-12.336-7.123-20-20.396-20-34.641v-189.371c0-14.245,7.664-27.518,20-34.641L236,31.988c6.072-3.506,12.988-5.359,20-5.359m0-24c-11.05,0-22.099,2.858-32,8.574L60,105.889c-19.802,11.432-32,32.561-32,55.426v189.371c0,22.865,12.198,43.993,32,55.426l164,94.685c9.901,5.716,20.95,8.574,32,8.574s22.099-2.858,32-8.574l164-94.685c19.802-11.433,32-32.561,32-55.426v-189.371c0-22.865-12.198-43.993-32-55.426L288,11.203c-9.901-5.716-20.95-8.574-32-8.574h0Z" fill="url(#c)" stroke-width="0"/><path d="m256,14.629c9.115,0,18.106,2.409,26,6.967l164,94.685c16.037,9.259,26,26.515,26,45.033v189.371c0,18.518-9.963,35.774-26,45.033l-164,94.685c-7.894,4.558-16.885,6.967-26,6.967s-18.106-2.409-26-6.967l-164-94.685c-16.037-9.259-26-26.515-26-45.033v-189.371c0-18.518,9.963-35.774,26-45.033L230,21.596c7.894-4.558,16.885-6.967,26-6.967m0-12c-11.05,0-22.099,2.858-32,8.574L60,105.889c-19.802,11.433-32,32.561-32,55.426v189.371c0,22.865,12.198,43.993,32,55.426l164,94.685c9.901,5.716,20.95,8.574,32,8.574s22.099-2.858,32-8.574l164-94.685c19.802-11.433,32-32.561,32-55.426v-189.371c0-22.865-12.198-43.993-32-55.426L288,11.203c-9.901-5.716-20.95-8.574-32-8.574h0Z" fill="url(#d)" stroke-width="0"/><path d="m327.183,294.8l-56.874,32.836c-.309.179-.5.509-.5.866v12.492c0,.77.833,1.251,1.5.866l56.874-32.836c.309-.179.5-.509.5-.866v-12.492c0-.77-.833-1.251-1.5-.866Z" fill="url(#e)" stroke-width="0"/><path d="m369.579,185.806l-109.579-63.266c-2.475-1.429-5.525-1.429-8,0l-109.579,63.266c-2.475,1.429-4,4.07-4,6.928v126.531c0,2.858,1.525,5.499,4,6.928l109.579,63.266c2.475,1.429,5.525,1.429,8,0l109.579-63.266c2.475-1.429,4-4.07,4-6.928v-126.531c0-2.858-1.525-5.499-4-6.928Zm-4.978,134.006l-17.6-4.473c-2.022-.514-4.164-.218-5.971.825l-75.442,43.557c-1.806,1.043-3.134,2.75-3.7,4.758l-3.926,13.93c-.315,1.118-1.962.89-1.962-.271v-120.983c0-.715.381-1.375,1-1.732l93.62-54.051,11.155-6.44c1.006-.581,2.027.732,1.216,1.564l-10.1,10.365c-1.456,1.494-2.271,3.497-2.271,5.583v87.113c0,2.086.815,4.089,2.271,5.583l12.674,13.005c.705.723.016,1.916-.962,1.667Z" fill="url(#f)" stroke-width="0"/></svg>