<?xml version="1.0" encoding="UTF-8"?>
<svg xmlns="http://www.w3.org/2000/svg" xmlns:xlink="http://www.w3.org/1999/xlink" width="40px" height="40px" viewBox="0 0 40 40" version="1.1">
<g id="surface1">
<path style=" stroke:none;fill-rule:nonzero;fill:rgb(0%,0%,0%);fill-opacity:1;" d="M 10.003906 27.707031 L 6.644531 27.707031 C 6.183594 27.707031 5.8125 27.335938 5.8125 26.875 L 5.8125 21.554688 C 7.058594 21.195312 7.921875 20.050781 7.917969 18.75 L 7.917969 17.082031 L 7.085938 17.082031 L 7.085938 15 C 7.085938 14.65625 6.804688 14.375 6.460938 14.375 C 6.117188 14.375 5.835938 14.65625 5.835938 15 L 5.835938 17.082031 L 4.144531 17.082031 L 4.144531 15 C 4.144531 14.65625 3.863281 14.375 3.519531 14.375 C 3.175781 14.375 2.894531 14.65625 2.894531 15 L 2.894531 17.082031 L 2.085938 17.082031 L 2.085938 18.75 C 2.082031 20.035156 2.917969 21.171875 4.144531 21.550781 L 4.144531 27.316406 C 4.15625 28.46875 5.101562 29.390625 6.253906 29.375 L 9.585938 29.375 C 10.046875 29.375 10.417969 29.75 10.417969 30.207031 L 10.417969 37.761719 L 12.085938 37.761719 L 12.085938 29.792969 C 12.085938 28.640625 11.152344 27.707031 10.003906 27.707031 Z M 10.003906 27.707031 "/>
<path style=" stroke:none;fill-rule:nonzero;fill:rgb(0%,0%,0%);fill-opacity:1;" d="M 6.667969 34.40625 L 7.039062 34.652344 C 7.832031 35.117188 8.691406 35.457031 9.585938 35.652344 L 9.585938 30.207031 L 6.667969 30.207031 Z M 6.667969 34.40625 "/>
<path style=" stroke:none;fill-rule:nonzero;fill:rgb(0%,0%,0%);fill-opacity:1;" d="M 33.332031 27.066406 C 33.3125 25.84375 32.738281 24.695312 31.777344 23.9375 C 30.34375 22.832031 28.738281 21.972656 27.023438 21.394531 L 24.425781 20.351562 C 24.269531 20.285156 24.167969 20.132812 24.167969 19.964844 L 24.167969 18.945312 C 25.746094 17.683594 26.667969 15.773438 26.667969 13.75 L 26.667969 10.832031 L 27.082031 10.832031 C 27.542969 10.832031 27.917969 10.460938 27.917969 10 C 27.917969 9.539062 27.542969 9.167969 27.082031 9.167969 L 26.667969 9.167969 C 26.523438 6.867188 25.199219 4.804688 23.167969 3.710938 L 22.5 6.351562 C 22.453125 6.539062 22.28125 6.671875 22.082031 6.667969 L 21.984375 6.667969 C 21.757812 6.621094 21.613281 6.398438 21.660156 6.171875 C 21.660156 6.164062 21.664062 6.15625 21.667969 6.148438 L 22.457031 3.027344 C 22.320312 2.476562 21.824219 2.085938 21.253906 2.082031 L 18.753906 2.082031 C 18.179688 2.085938 17.683594 2.476562 17.542969 3.027344 L 18.335938 6.148438 C 18.394531 6.371094 18.265625 6.601562 18.042969 6.660156 L 18.019531 6.667969 L 17.917969 6.667969 C 17.722656 6.671875 17.550781 6.539062 17.503906 6.351562 L 16.855469 3.710938 C 14.824219 4.804688 13.5 6.867188 13.355469 9.167969 L 12.917969 9.167969 C 12.457031 9.167969 12.085938 9.539062 12.085938 10 C 12.085938 10.460938 12.457031 10.832031 12.917969 10.832031 L 13.335938 10.832031 L 13.335938 13.75 C 13.335938 15.769531 14.253906 17.679688 15.832031 18.945312 L 15.832031 19.964844 C 15.832031 20.136719 15.730469 20.285156 15.578125 20.351562 L 12.992188 21.402344 C 11.28125 21.976562 9.671875 22.828125 8.238281 23.925781 C 7.324219 24.644531 6.757812 25.714844 6.683594 26.875 L 10.003906 26.875 C 10.75 26.875 11.46875 27.164062 12.007812 27.679688 L 12.691406 23.324219 L 16.207031 21.894531 C 16.230469 21.882812 16.253906 21.871094 16.277344 21.859375 L 19.167969 28.75 L 19.167969 31.667969 L 12.917969 31.667969 L 12.917969 33.332031 L 19.167969 33.332031 L 19.167969 36.6875 C 19.484375 36.691406 19.800781 36.691406 20.117188 36.695312 C 20.355469 36.695312 20.597656 36.691406 20.835938 36.6875 L 20.835938 33.332031 L 28.753906 33.332031 L 28.753906 36.042969 C 30.671875 35.703125 32.191406 35.230469 33 34.625 L 33.332031 34.375 Z M 19.644531 4.710938 L 20.648438 4.710938 L 20.203125 6.292969 L 20.90625 6.292969 L 19.515625 8.75 L 20.003906 6.796875 L 19.308594 6.796875 Z M 15 13.75 L 15 10.832031 L 25 10.832031 L 25 13.75 C 25 16.511719 22.761719 18.75 20 18.75 C 17.238281 18.75 15 16.511719 15 13.75 Z M 20 22.082031 C 18.878906 22.09375 17.765625 21.933594 16.691406 21.609375 C 17.203125 21.214844 17.5 20.609375 17.5 19.96875 L 17.5 19.925781 C 19.101562 20.582031 20.898438 20.582031 22.503906 19.925781 L 22.503906 19.96875 C 22.5 20.613281 22.800781 21.222656 23.316406 21.613281 C 22.238281 21.9375 21.121094 22.09375 20 22.082031 Z M 20.832031 31.667969 L 20.832031 28.75 L 23.722656 21.859375 C 23.75 21.871094 23.769531 21.886719 23.796875 21.898438 L 27.339844 23.3125 L 28.625 31.667969 Z M 20.832031 31.667969 "/>
</g>
</svg>
