<?xml version="1.0" encoding="UTF-8" standalone="no"?>
<svg
   width="3.17508mm"
   height="3.17508mm"
   viewBox="0 0 128 128"
   version="1.1"
   id="svg1"
   sodipodi:docname="vespa.svg"
   inkscape:version="1.3.2 (091e20e, 2023-11-25)"
   xmlns:inkscape="http://www.inkscape.org/namespaces/inkscape"
   xmlns:sodipodi="http://sodipodi.sourceforge.net/DTD/sodipodi-0.dtd"
   xmlns="http://www.w3.org/2000/svg"
   xmlns:svg="http://www.w3.org/2000/svg">
  <defs
     id="defs1" />
  <sodipodi:namedview
     id="namedview1"
     pagecolor="#ffffff"
     bordercolor="#eeeeee"
     borderopacity="1"
     inkscape:showpageshadow="0"
     inkscape:pageopacity="0"
     inkscape:pagecheckerboard="0"
     inkscape:deskcolor="#d1d1d1"
     inkscape:document-units="mm"
     inkscape:zoom="23.795165"
     inkscape:cx="-2.0592419"
     inkscape:cy="5.3582315"
     inkscape:window-width="1915"
     inkscape:window-height="1065"
     inkscape:window-x="1080"
     inkscape:window-y="637"
     inkscape:window-maximized="1"
     inkscape:current-layer="svg1" />
  <path
     id="Selection"
     fill="none"
     stroke="#000000"
     stroke-width="1"
     d="m 20,60 c 1.49,-8.67 6.67,-2.89 10.48,-14.99 1.72,-5.44 -2.59,-7.04 -1.33,-14.99 0.45,-2.91 1.77,-4.89 4.87,-5.29 4.9,-0.64 11.61,4.09 15,7.28 3.54,3.34 3.54,6.42 -2.02,5.99 l -3.74,6.09 c -3.49,6.55 -4.63,13.8 -2.27,20.91 0.82,2.46 1.97,4.6 4.2,5.88 3.93,2.77 16.07,3.25 19.54,0 6.03,-6.16 -5.51,-12.01 -5.64,-21.92 -0.04,-2.67 0.48,-6.11 3.19,-7.36 1.88,-0.88 8.13,-0.52 10.72,-0.77 l 26,-1.22 c 9.92,1.37 10.87,6.38 6,14.39 4.7,2.61 11.69,3.67 14.31,8.04 1.89,3.15 0.31,5.32 0.73,8.38 0.36,2.56 2.24,5.4 1.6,8.53 -0.62,3.08 -2.95,3.89 -4.51,6.31 -1.85,2.86 -3.86,14.05 -16.13,14.7 C 91.56,100.45 84.96,96.63 83,87 L 36,86 c -0.73,2.43 -1.32,4.85 -2.72,7 -5.96,9.09 -19.26,9.51 -25.85,0.96 C 3.94,89.43 5.06,83.32 5.22,78 V 71 C 6.05,63.92 13.89,60.96 20,60 Z m 6.303593,23.226249 C 24.973593,79.556249 15,81 15,81 c -0.536422,1.953988 -0.655036,4.991219 0.494964,6.721219 1.34,4.5 8.968629,4.04503 10.808629,-4.49497 z M 106.06,83.94 91.66,84.16 c 2.84,7.59 11.89,7.83 14.4,-0.22 z"
     sodipodi:nodetypes="cccccccccccccccccccccccccccccccccc"
     style="fill:#000000;fill-opacity:1" />
</svg>
