<?xml version="1.0" encoding="UTF-8"?>
<svg xmlns="http://www.w3.org/2000/svg" xmlns:xlink="http://www.w3.org/1999/xlink" width="32px" height="32px" viewBox="0 0 32 32" version="1.1">
<g id="surface1">
<path style=" stroke:none;fill-rule:nonzero;fill:rgb(10.196078%,10.588235%,22.745098%);fill-opacity:1;" d="M 28.5625 10.488281 L 24.496094 10.488281 C 24.109375 6.078125 20.417969 2.695312 15.992188 2.695312 L 3.421875 2.683594 C 2.996094 2.683594 2.648438 3.027344 2.648438 3.453125 L 2.648438 11.257812 C 2.648438 11.683594 2.996094 12.027344 3.421875 12.03125 L 7.414062 12.03125 C 7.441406 12.03125 7.46875 12.03125 7.496094 12.03125 C 7.902344 16.371094 11.515625 19.710938 15.875 19.769531 L 28.5625 19.769531 C 28.988281 19.769531 29.335938 19.425781 29.335938 19 L 29.335938 11.257812 C 29.335938 10.832031 28.988281 10.488281 28.5625 10.488281 M 15.992188 3.507812 L 16.117188 3.507812 C 18.507812 3.546875 20.75 4.6875 22.1875 6.601562 C 23.625 8.515625 24.097656 10.984375 23.472656 13.292969 C 23.292969 13.46875 23.050781 13.570312 22.800781 13.570312 C 22.269531 13.566406 21.839844 13.136719 21.839844 12.605469 L 21.839844 12.042969 C 21.839844 12.042969 21.839844 12.03125 21.839844 12.027344 L 21.839844 9.917969 C 21.839844 8.945312 21.050781 8.15625 20.078125 8.15625 C 19.105469 8.15625 18.316406 8.945312 18.316406 9.917969 L 18.316406 12.078125 C 18.316406 12.078125 18.316406 12.078125 18.316406 12.09375 L 18.316406 12.605469 C 18.316406 13.136719 17.886719 13.566406 17.355469 13.566406 C 16.828125 13.566406 16.398438 13.136719 16.398438 12.605469 L 16.398438 9.917969 C 16.398438 8.945312 15.609375 8.15625 14.636719 8.15625 C 13.664062 8.15625 12.875 8.945312 12.875 9.917969 L 12.875 12.078125 C 12.875 12.078125 12.875 12.089844 12.875 12.09375 L 12.875 12.605469 C 12.875 13.136719 12.445312 13.566406 11.914062 13.566406 C 11.386719 13.566406 10.957031 13.136719 10.957031 12.605469 L 10.957031 12.289062 C 10.957031 12.289062 10.957031 12.289062 10.957031 12.273438 L 10.957031 9.917969 C 10.957031 8.941406 10.171875 8.152344 9.195312 8.148438 C 9.089844 8.148438 8.980469 8.15625 8.875 8.175781 C 10.105469 5.339844 12.902344 3.507812 15.992188 3.507812 M 15.617188 19.003906 C 13.273438 18.890625 11.109375 17.722656 9.730469 15.828125 C 8.347656 13.933594 7.902344 11.515625 8.511719 9.25 C 8.6875 9.058594 8.9375 8.949219 9.203125 8.949219 C 9.734375 8.953125 10.160156 9.386719 10.160156 9.917969 L 10.160156 10.226562 C 10.160156 10.226562 10.160156 10.238281 10.160156 10.242188 L 10.160156 12.605469 C 10.160156 13.578125 10.949219 14.367188 11.921875 14.367188 C 12.894531 14.367188 13.683594 13.578125 13.683594 12.605469 L 13.683594 10.699219 C 13.683594 10.699219 13.683594 10.6875 13.683594 10.679688 L 13.683594 9.917969 C 13.667969 9.5625 13.847656 9.230469 14.148438 9.050781 C 14.453125 8.867188 14.832031 8.867188 15.136719 9.050781 C 15.4375 9.230469 15.617188 9.5625 15.601562 9.917969 L 15.601562 12.59375 C 15.582031 13.234375 15.914062 13.839844 16.464844 14.164062 C 17.019531 14.492188 17.707031 14.492188 18.261719 14.164062 C 18.8125 13.839844 19.144531 13.234375 19.125 12.59375 L 19.125 10.699219 C 19.125 10.699219 19.125 10.6875 19.125 10.679688 L 19.125 9.917969 C 19.109375 9.5625 19.289062 9.230469 19.589844 9.050781 C 19.894531 8.867188 20.273438 8.867188 20.578125 9.050781 C 20.878906 9.230469 21.058594 9.5625 21.042969 9.917969 L 21.042969 9.972656 C 21.042969 9.972656 21.042969 9.980469 21.042969 9.988281 L 21.042969 12.605469 C 21.046875 13.488281 21.703125 14.234375 22.578125 14.355469 C 22.753906 14.378906 22.933594 14.371094 23.109375 14.339844 C 21.878906 17.175781 19.082031 19.007812 15.992188 19.003906 C 15.863281 19.003906 15.734375 19.003906 15.605469 19.003906 "/>
<path style=" stroke:none;fill-rule:nonzero;fill:rgb(0.392157%,50.196078%,63.137255%);fill-opacity:1;" d="M 23.105469 14.339844 C 21.875 17.171875 19.082031 19.003906 15.992188 19.003906 C 15.863281 19.003906 15.734375 19.003906 15.605469 19.003906 C 13.265625 18.886719 11.105469 17.714844 9.726562 15.824219 C 8.351562 13.929688 7.902344 11.511719 8.507812 9.25 C 8.6875 9.058594 8.9375 8.949219 9.203125 8.949219 C 9.734375 8.953125 10.160156 9.386719 10.160156 9.917969 L 10.160156 10.226562 C 10.160156 10.226562 10.160156 10.238281 10.160156 10.242188 L 10.160156 12.605469 C 10.160156 13.578125 10.949219 14.367188 11.921875 14.367188 C 12.894531 14.367188 13.683594 13.578125 13.683594 12.605469 L 13.683594 10.699219 C 13.683594 10.699219 13.683594 10.6875 13.683594 10.679688 L 13.683594 9.917969 C 13.667969 9.5625 13.847656 9.230469 14.148438 9.050781 C 14.453125 8.867188 14.832031 8.867188 15.136719 9.050781 C 15.4375 9.230469 15.617188 9.5625 15.601562 9.917969 L 15.601562 12.59375 C 15.582031 13.234375 15.914062 13.839844 16.464844 14.164062 C 17.019531 14.492188 17.707031 14.492188 18.261719 14.164062 C 18.8125 13.839844 19.144531 13.234375 19.125 12.59375 L 19.125 10.699219 C 19.125 10.699219 19.125 10.6875 19.125 10.679688 L 19.125 9.917969 C 19.109375 9.5625 19.289062 9.230469 19.589844 9.050781 C 19.894531 8.867188 20.273438 8.867188 20.578125 9.050781 C 20.878906 9.230469 21.058594 9.5625 21.042969 9.917969 L 21.042969 9.972656 C 21.042969 9.972656 21.042969 9.980469 21.042969 9.988281 L 21.042969 12.605469 C 21.046875 13.488281 21.703125 14.234375 22.578125 14.355469 C 22.753906 14.378906 22.933594 14.371094 23.109375 14.339844 "/>
<path style=" stroke:none;fill-rule:nonzero;fill:rgb(24.313725%,71.764706%,69.411765%);fill-opacity:1;" d="M 23.742188 11.257812 C 23.742188 11.941406 23.652344 12.625 23.472656 13.285156 C 23.199219 13.558594 22.785156 13.640625 22.429688 13.492188 C 22.070312 13.34375 21.835938 12.992188 21.839844 12.605469 L 21.839844 12.042969 C 21.839844 12.042969 21.839844 12.03125 21.839844 12.027344 L 21.839844 9.917969 C 21.839844 8.945312 21.050781 8.15625 20.078125 8.15625 C 19.105469 8.15625 18.316406 8.945312 18.316406 9.917969 L 18.316406 12.078125 C 18.316406 12.078125 18.316406 12.078125 18.316406 12.09375 L 18.316406 12.605469 C 18.316406 13.136719 17.886719 13.566406 17.355469 13.566406 C 16.828125 13.566406 16.398438 13.136719 16.398438 12.605469 L 16.398438 9.917969 C 16.398438 8.945312 15.609375 8.15625 14.636719 8.15625 C 13.664062 8.15625 12.875 8.945312 12.875 9.917969 L 12.875 12.078125 C 12.875 12.078125 12.875 12.089844 12.875 12.09375 L 12.875 12.605469 C 12.875 13.136719 12.445312 13.566406 11.914062 13.566406 C 11.386719 13.566406 10.957031 13.136719 10.957031 12.605469 L 10.957031 12.289062 C 10.957031 12.289062 10.957031 12.289062 10.957031 12.273438 L 10.957031 9.917969 C 10.957031 8.941406 10.167969 8.152344 9.195312 8.148438 C 9.085938 8.148438 8.980469 8.15625 8.875 8.175781 C 10.105469 5.339844 12.902344 3.507812 15.992188 3.507812 L 16.117188 3.507812 C 20.347656 3.578125 23.742188 7.027344 23.742188 11.257812 "/>
<path style=" stroke:none;fill-rule:nonzero;fill:rgb(24.313725%,71.764706%,69.411765%);fill-opacity:1;" d="M 7.464844 11.230469 C 7.464844 7.875 9.433594 4.832031 12.488281 3.453125 L 3.609375 3.453125 C 3.503906 3.453125 3.421875 3.539062 3.421875 3.640625 L 3.421875 11.074219 C 3.421875 11.179688 3.503906 11.261719 3.609375 11.261719 L 7.464844 11.261719 L 7.464844 11.230469 "/>
<path style=" stroke:none;fill-rule:nonzero;fill:rgb(0.392157%,50.196078%,63.137255%);fill-opacity:1;" d="M 24.53125 11.257812 C 24.535156 14.613281 22.566406 17.652344 19.511719 19.03125 L 28.390625 19.03125 C 28.496094 19.03125 28.578125 18.945312 28.578125 18.84375 L 28.578125 11.414062 C 28.578125 11.3125 28.496094 11.226562 28.390625 11.226562 L 24.53125 11.226562 L 24.53125 11.257812 "/>
<path style=" stroke:none;fill-rule:nonzero;fill:rgb(10.196078%,10.588235%,22.745098%);fill-opacity:1;" d="M 25.449219 27.976562 L 25.449219 24.144531 L 26.378906 24.144531 C 26.714844 24.117188 27.046875 24.226562 27.304688 24.441406 C 27.535156 24.691406 27.652344 25.023438 27.636719 25.363281 C 27.648438 25.535156 27.65625 25.765625 27.65625 26.050781 C 27.65625 26.335938 27.65625 26.566406 27.636719 26.75 C 27.625 27.175781 27.523438 27.488281 27.332031 27.691406 C 27.082031 27.902344 26.753906 28.007812 26.425781 27.980469 Z M 24.007812 29.316406 L 26.472656 29.316406 C 27.390625 29.316406 28.089844 29.105469 28.570312 28.6875 C 29.050781 28.269531 29.308594 27.628906 29.339844 26.769531 C 29.339844 26.59375 29.347656 26.359375 29.347656 26.058594 C 29.347656 25.761719 29.347656 25.523438 29.339844 25.34375 C 29.316406 24.519531 29.050781 23.890625 28.550781 23.460938 C 28.046875 23.03125 27.339844 22.816406 26.425781 22.8125 L 24.007812 22.8125 C 23.949219 22.808594 23.890625 22.832031 23.847656 22.875 C 23.800781 22.917969 23.773438 22.980469 23.777344 23.042969 L 23.777344 29.089844 C 23.773438 29.152344 23.800781 29.210938 23.847656 29.253906 C 23.886719 29.296875 23.945312 29.324219 24.007812 29.324219 M 17.0625 29.324219 L 18.179688 29.324219 C 18.242188 29.324219 18.304688 29.300781 18.347656 29.253906 C 18.390625 29.210938 18.414062 29.152344 18.410156 29.089844 L 18.410156 25.703125 L 20.683594 29.148438 C 20.742188 29.261719 20.863281 29.328125 20.988281 29.324219 L 21.984375 29.324219 C 22.046875 29.324219 22.109375 29.300781 22.152344 29.253906 C 22.195312 29.207031 22.21875 29.144531 22.21875 29.082031 L 22.21875 23.035156 C 22.21875 22.972656 22.195312 22.914062 22.152344 22.867188 C 22.109375 22.824219 22.046875 22.800781 21.984375 22.804688 L 20.871094 22.804688 C 20.808594 22.800781 20.75 22.824219 20.707031 22.867188 C 20.660156 22.910156 20.632812 22.972656 20.636719 23.035156 L 20.636719 26.554688 L 18.367188 22.976562 C 18.308594 22.859375 18.183594 22.789062 18.050781 22.800781 L 17.0625 22.800781 C 17.003906 22.800781 16.945312 22.824219 16.902344 22.867188 C 16.855469 22.910156 16.828125 22.972656 16.832031 23.035156 L 16.832031 29.082031 C 16.832031 29.144531 16.855469 29.203125 16.902344 29.242188 C 16.941406 29.289062 17 29.3125 17.0625 29.3125 M 10.835938 29.3125 L 15.257812 29.3125 C 15.320312 29.316406 15.382812 29.289062 15.425781 29.242188 C 15.464844 29.199219 15.488281 29.140625 15.488281 29.082031 L 15.488281 28.207031 C 15.492188 28.144531 15.46875 28.082031 15.425781 28.039062 C 15.378906 27.996094 15.320312 27.972656 15.257812 27.972656 L 12.214844 27.972656 L 12.214844 26.679688 L 14.976562 26.679688 C 15.039062 26.683594 15.101562 26.65625 15.144531 26.613281 C 15.1875 26.566406 15.210938 26.507812 15.210938 26.449219 L 15.210938 25.640625 C 15.210938 25.574219 15.1875 25.515625 15.144531 25.46875 C 15.101562 25.421875 15.039062 25.394531 14.976562 25.398438 L 12.214844 25.398438 L 12.214844 24.140625 L 15.179688 24.140625 C 15.246094 24.144531 15.304688 24.117188 15.347656 24.070312 C 15.390625 24.027344 15.414062 23.96875 15.414062 23.90625 L 15.414062 23.035156 C 15.417969 22.972656 15.394531 22.910156 15.347656 22.867188 C 15.304688 22.820312 15.242188 22.800781 15.179688 22.800781 L 10.835938 22.800781 C 10.777344 22.800781 10.71875 22.824219 10.671875 22.867188 C 10.628906 22.910156 10.601562 22.972656 10.605469 23.035156 L 10.605469 29.082031 C 10.601562 29.144531 10.628906 29.203125 10.671875 29.242188 C 10.714844 29.289062 10.777344 29.3125 10.835938 29.3125 M 2.882812 29.3125 L 4 29.3125 C 4.0625 29.316406 4.125 29.289062 4.167969 29.242188 C 4.210938 29.199219 4.234375 29.140625 4.234375 29.082031 L 4.234375 25.589844 L 5.28125 27.535156 C 5.316406 27.59375 5.359375 27.648438 5.414062 27.691406 C 5.46875 27.730469 5.535156 27.75 5.601562 27.746094 L 6.089844 27.746094 C 6.230469 27.746094 6.355469 27.660156 6.414062 27.535156 L 7.460938 25.589844 L 7.460938 29.078125 C 7.460938 29.140625 7.484375 29.203125 7.53125 29.246094 C 7.578125 29.289062 7.640625 29.3125 7.703125 29.308594 L 8.8125 29.308594 C 8.875 29.3125 8.9375 29.289062 8.980469 29.246094 C 9.027344 29.203125 9.054688 29.140625 9.050781 29.078125 L 9.050781 23.035156 C 9.054688 22.972656 9.027344 22.910156 8.980469 22.867188 C 8.9375 22.824219 8.875 22.800781 8.8125 22.804688 L 7.8125 22.804688 C 7.671875 22.796875 7.542969 22.878906 7.488281 23.007812 L 5.851562 25.9375 L 4.214844 23.007812 C 4.160156 22.878906 4.03125 22.796875 3.890625 22.804688 L 2.882812 22.804688 C 2.824219 22.800781 2.765625 22.824219 2.71875 22.867188 C 2.675781 22.910156 2.648438 22.972656 2.652344 23.035156 L 2.652344 29.082031 C 2.648438 29.144531 2.675781 29.203125 2.71875 29.246094 C 2.761719 29.289062 2.824219 29.316406 2.882812 29.316406 "/>
</g>
</svg>
