<?xml version="1.0" encoding="UTF-8" standalone="no"?>
<svg
   xmlns:rdf="http://www.w3.org/1999/02/22-rdf-syntax-ns#"
   xmlns:svg="http://www.w3.org/2000/svg"
   xmlns="http://www.w3.org/2000/svg"
   xmlns:sodipodi="http://sodipodi.sourceforge.net/DTD/sodipodi-0.dtd"
   xmlns:inkscape="http://www.inkscape.org/namespaces/inkscape"
   width="40px"
   height="40px"
   viewBox="0 0 256 256"
   version="1.1"
   id="svg860"
   sodipodi:docname="pluginIcon.svg"
   inkscape:version="0.92.4 (5da689c313, 2019-01-14)">
  <sodipodi:namedview
     pagecolor="#ffffff"
     bordercolor="#666666"
     borderopacity="1"
     objecttolerance="10"
     gridtolerance="10"
     guidetolerance="10"
     inkscape:pageopacity="0"
     inkscape:pageshadow="2"
     inkscape:window-width="1811"
     inkscape:window-height="1048"
     id="namedview862"
     showgrid="true"
     inkscape:zoom="11.1"
     inkscape:cx="-13.720464"
     inkscape:cy="14.246506"
     inkscape:window-x="0"
     inkscape:window-y="0"
     inkscape:window-maximized="0"
     inkscape:current-layer="gradle-runner-stepicon">
    <inkscape:grid
       type="xygrid"
       id="grid866" />
  </sodipodi:namedview>
  <title
     id="title832">gradle-runner-stepicon</title>
  <desc
     id="desc834">Created with Sketch.</desc>
  <defs
     id="defs851">
    <linearGradient
       x1="50%"
       y1="0.688674133%"
       x2="50%"
       y2="97.6477244%"
       id="linearGradient-1">
      <stop
         stop-color="#22DA27"
         offset="0%"
         id="stop836" />
      <stop
         stop-color="#0BC010"
         offset="100%"
         id="stop838" />
    </linearGradient>
    <linearGradient
       x1="50%"
       y1="0%"
       x2="41.6636044%"
       y2="168.636397%"
       id="linearGradient-2">
      <stop
         stop-color="#FFFFFF"
         offset="0%"
         id="stop841" />
      <stop
         stop-color="#FFFFFF"
         stop-opacity="0.339928668"
         offset="100%"
         id="stop843" />
    </linearGradient>
    <linearGradient
       x1="368.907281%"
       y1="-611.979166%"
       x2="208.54166%"
       y2="352.290783%"
       id="linearGradient-3">
      <stop
         stop-color="#008DA0"
         offset="0%"
         id="stop846" />
      <stop
         stop-color="#005466"
         offset="100%"
         id="stop848" />
    </linearGradient>
  </defs>
  <g
     id="New-Icons"
     style="fill:none;fill-rule:evenodd;stroke:none;stroke-width:1">
    <g
       id="Gradle-Runner">
      <g
         id="gradle-runner-stepicon">
        <rect
           id="Rectangle-path"
           x="0"
           y="0"
           width="256"
           height="256"
           style="fill:url(#linearGradient-1);fill-rule:nonzero" />
        <path
           d="m 202.27592,80.7907 c -0.0278,0.02279 -0.0556,0.04574 -0.0833,0.06883 -0.93303,-0.622019 -1.86606,-1.244038 -2.59175,-1.866057 -0.58054,-0.516037 -1.16108,-0.991939 -1.06736,-1.827273 -0.003,-0.523171 0.2517,-1.190775 0.96369,-2.11218 0.11177,-0.152418 0.2833,-0.281928 0.50229,-0.392144 1.27487,-1.471706 3.49066,-3.196819 3.95551,-3.754649 2.03053,-2.43663 8.63469,0.396369 12.89915,4.214668 4.7119,3.400184 9.76236,9.670847 11.56693,14.96425 2.48808,7.464228 2.59175,16.898185 -1.55504,26.435805 -6.84221,16.06882 -17.41654,26.64315 -40.01656,29.64957 -13.26974,1.86606 -10.57432,11.61102 -10.57432,37.52848 h -18.03855 c 0,0 -30.47893,-48.62115 -44.6817,0 H 97.486091 c -3.213765,-23.94773 -22.496353,-24.88076 -27.887184,0 H 48.450262 c 0,0 -11.507351,-67.59273 30.997279,-82.93586 0,0 3.835783,9.12294 8.811935,17.10552 5.494501,8.81193 19.904604,14.92845 36.699124,-10.36698 0,0 -22.60003,24.98443 -32.86334,7.8789 -6.531199,-10.78166 -4.354133,-6.73854 -10.989002,-19.800934 -4.872482,-9.537624 0.829359,-13.684417 13.269738,-17.83121 12.440374,-4.146794 49.968854,-14.721116 77.959714,11.300011 26.33213,24.466083 32.75966,23.222043 38.4615,18.038553 5.07982,-4.66514 2.17707,-12.336713 0.93303,-15.654147 -2.22821,-5.762607 -6.39258,-8.620969 -9.45432,-10.643153 z m -41.24916,27.44981 c -4.6986,-1.55691 -7.55896,-2.50022 -7.55896,-2.50022 0,0 -4.04313,11.30001 7.15322,14.92845 8.39725,2.90276 14.92845,-3.83578 15.65414,-7.36055 -2.09212,-0.69738 -4.09914,-1.3655 -5.99466,-1.99585 0.0735,0.27451 0.12657,0.55794 0.15749,0.84891 0.33277,3.13141 -2.02828,5.94949 -5.27356,6.29436 -3.24527,0.34487 -6.14585,-1.91406 -6.47863,-5.04547 -0.21962,-2.06664 0.7341,-3.99682 2.34096,-5.16963 z"
           id="Combined-Shape"
           inkscape:connector-curvature="0"
           style="fill:url(#linearGradient-2);fill-rule:nonzero" />
        <text
           xml:space="preserve"
           style="font-style:normal;font-variant:normal;font-weight:normal;font-stretch:normal;font-size:68.26667023px;line-height:0.5;font-family:Consolas;-inkscape-font-specification:Consolas;letter-spacing:0px;word-spacing:0px;fill:#adff2f;fill-opacity:1;stroke:none;stroke-width:6.4000001;"
           x="14.875678"
           y="224"
           id="text882"><tspan
             sodipodi:role="line"
             x="14.875678"
             y="224"
             style="font-size:51.20000076px;stroke-width:6.4000001;fill:#adff2f;"
             id="tspan884">taskinfo</tspan></text>
      </g>
    </g>
  </g>
</svg>
