<?xml version="1.0" encoding="UTF-8"?>
<!DOCTYPE svg PUBLIC "-//W3C//DTD SVG 1.1//EN" "http://www.w3.org/Graphics/SVG/1.1/DTD/svg11.dtd">
<svg xmlns="http://www.w3.org/2000/svg" version="1.1" width="1632px" height="1592px" style="shape-rendering:geometricPrecision; text-rendering:geometricPrecision; image-rendering:optimizeQuality; fill-rule:evenodd; clip-rule:evenodd" xmlns:xlink="http://www.w3.org/1999/xlink">
<g><path style="opacity:0.995" fill="#e99d43" d="M 466.5,128.5 C 455.648,138.852 444.981,149.352 434.5,160C 423.295,170.043 411.961,179.876 400.5,189.5C 399.239,175.545 398.573,161.545 398.5,147.5C 399.658,138.343 399.824,129.009 399,119.5C 398.235,125.817 397.735,132.151 397.5,138.5C 396.622,155.817 396.288,173.15 396.5,190.5C 382.073,184.121 367.739,177.454 353.5,170.5C 352.83,172.291 352.163,173.958 351.5,175.5C 351.966,148.105 355.466,121.105 362,94.5C 364.823,76.9173 375.156,68.2506 393,68.5C 406.326,68.72 418.492,72.5533 429.5,80C 444.962,90.7904 456.795,104.624 465,121.5C 465.977,123.74 466.477,126.073 466.5,128.5 Z"/></g>
<g><path style="opacity:0.998" fill="#de863e" d="M 960.5,94.5 C 969.745,93.1384 977.745,95.4718 984.5,101.5C 981.402,101.413 981.068,101.913 983.5,103C 980.833,103.667 980.833,104.333 983.5,105C 980.833,105.667 980.833,106.333 983.5,107C 980.833,107.667 980.833,108.333 983.5,109C 982.833,109.333 982.167,109.667 981.5,110C 982.833,111 984.167,112 985.5,113C 982.833,113.667 982.833,114.333 985.5,115C 982.833,115.667 982.833,116.333 985.5,117C 982.833,117.667 982.833,118.333 985.5,119C 982.833,119.667 982.833,120.333 985.5,121C 982.833,121.667 982.833,122.333 985.5,123C 985.167,124 984.833,125 984.5,126C 985.167,127.333 986.167,128.333 987.5,129C 984.833,130.333 984.833,131.667 987.5,133C 984.833,133.667 984.833,134.333 987.5,135C 984.833,135.667 984.833,136.333 987.5,137C 984.833,137.667 984.833,138.333 987.5,139C 984.833,139.667 984.833,140.333 987.5,141C 986.833,141.333 986.167,141.667 985.5,142C 989.335,143.803 989.669,145.136 986.5,146C 987.5,147 988.5,148 989.5,149C 986.833,149.667 986.833,150.333 989.5,151C 986.833,151.667 986.833,152.333 989.5,153C 986.833,153.667 986.833,154.333 989.5,155C 986.833,155.667 986.833,156.333 989.5,157C 988.833,157.333 988.167,157.667 987.5,158C 990.785,159.372 991.451,161.039 989.5,163C 989.905,163.945 990.572,164.612 991.5,165C 988.833,165.667 988.833,166.333 991.5,167C 988.833,167.667 988.833,168.333 991.5,169C 988.833,169.667 988.833,170.333 991.5,171C 988.833,171.667 988.833,172.333 991.5,173C 990.833,173.333 990.167,173.667 989.5,174C 993.335,175.803 993.669,177.136 990.5,178C 991.5,179 992.5,180 993.5,181C 990.833,181.667 990.833,182.333 993.5,183C 990.833,183.667 990.833,184.333 993.5,185C 990.833,185.667 990.833,186.333 993.5,187C 992.167,187.667 992.167,188.333 993.5,189C 992.833,189.333 992.167,189.667 991.5,190C 993.928,191.162 994.595,192.829 993.5,195C 993.905,195.945 994.572,196.612 995.5,197C 992.833,197.667 992.833,198.333 995.5,199C 992.833,199.667 992.833,200.333 995.5,201C 992.833,201.667 992.833,202.333 995.5,203C 992.833,203.667 992.833,204.333 995.5,205C 994.833,205.333 994.167,205.667 993.5,206C 997.335,207.803 997.669,209.136 994.5,210C 995.416,210.278 996.082,210.778 996.5,211.5C 990.158,211.666 983.825,211.5 977.5,211C 974.833,210.333 974.833,209.667 977.5,209C 975.839,208.005 974.505,206.672 973.5,205C 973.905,204.055 974.572,203.388 975.5,203C 972.833,201.667 972.833,200.333 975.5,199C 972.833,198.333 972.833,197.667 975.5,197C 974.833,196.667 974.167,196.333 973.5,196C 974.833,195.333 974.833,194.667 973.5,194C 974.167,193.667 974.833,193.333 975.5,193C 974.167,192.333 973.167,191.333 972.5,190C 972.833,189 973.167,188 973.5,187C 970.833,186.333 970.833,185.667 973.5,185C 970.833,184.333 970.833,183.667 973.5,183C 970.833,182.333 970.833,181.667 973.5,181C 970.833,180.333 970.833,179.667 973.5,179C 970.833,178.333 970.833,177.667 973.5,177C 971.839,176.005 970.505,174.672 969.5,173C 969.905,172.055 970.572,171.388 971.5,171C 968.833,169.667 968.833,168.333 971.5,167C 968.833,166.333 968.833,165.667 971.5,165C 970.833,164.667 970.167,164.333 969.5,164C 970.833,163.333 970.833,162.667 969.5,162C 970.167,161.667 970.833,161.333 971.5,161C 969.072,159.838 968.405,158.171 969.5,156C 969.095,155.055 968.428,154.388 967.5,154C 970.167,153.333 970.167,152.667 967.5,152C 970.167,151.333 970.167,150.667 967.5,150C 970.167,149.333 970.167,148.667 967.5,148C 970.167,147.333 970.167,146.667 967.5,146C 968.167,145.667 968.833,145.333 969.5,145C 967.839,144.005 966.505,142.672 965.5,141C 965.905,140.055 966.572,139.388 967.5,139C 964.833,137.667 964.833,136.333 967.5,135C 964.833,134.333 964.833,133.667 967.5,133C 966.833,132.667 966.167,132.333 965.5,132C 966.833,131.333 966.833,130.667 965.5,130C 966.167,129.667 966.833,129.333 967.5,129C 966.167,128.333 965.167,127.333 964.5,126C 964.833,125 965.167,124 965.5,123C 962.833,122.333 962.833,121.667 965.5,121C 962.833,120.333 962.833,119.667 965.5,119C 962.833,118.333 962.833,117.667 965.5,117C 962.833,116.333 962.833,115.667 965.5,115C 962.833,114.333 962.833,113.667 965.5,113C 963.839,112.005 962.505,110.672 961.5,109C 961.905,108.055 962.572,107.388 963.5,107C 960.833,105.667 960.833,104.333 963.5,103C 960.833,102.333 960.833,101.667 963.5,101C 962.833,100.667 962.167,100.333 961.5,100C 962.833,99.3333 962.833,98.6667 961.5,98C 962.167,97.6667 962.833,97.3333 963.5,97C 962.058,96.6232 961.058,95.7899 960.5,94.5 Z"/></g>
<g><path style="opacity:0.999" fill="#e28f40" d="M 960.5,94.5 C 961.058,95.7899 962.058,96.6232 963.5,97C 962.833,97.3333 962.167,97.6667 961.5,98C 962.833,98.6667 962.833,99.3333 961.5,100C 962.167,100.333 962.833,100.667 963.5,101C 960.833,101.667 960.833,102.333 963.5,103C 960.833,104.333 960.833,105.667 963.5,107C 962.572,107.388 961.905,108.055 961.5,109C 962.505,110.672 963.839,112.005 965.5,113C 962.833,113.667 962.833,114.333 965.5,115C 962.833,115.667 962.833,116.333 965.5,117C 962.833,117.667 962.833,118.333 965.5,119C 962.833,119.667 962.833,120.333 965.5,121C 962.833,121.667 962.833,122.333 965.5,123C 965.167,124 964.833,125 964.5,126C 965.167,127.333 966.167,128.333 967.5,129C 966.833,129.333 966.167,129.667 965.5,130C 966.833,130.667 966.833,131.333 965.5,132C 966.167,132.333 966.833,132.667 967.5,133C 964.833,133.667 964.833,134.333 967.5,135C 964.833,136.333 964.833,137.667 967.5,139C 966.572,139.388 965.905,140.055 965.5,141C 966.505,142.672 967.839,144.005 969.5,145C 968.833,145.333 968.167,145.667 967.5,146C 970.167,146.667 970.167,147.333 967.5,148C 970.167,148.667 970.167,149.333 967.5,150C 970.167,150.667 970.167,151.333 967.5,152C 970.167,152.667 970.167,153.333 967.5,154C 968.428,154.388 969.095,155.055 969.5,156C 968.405,158.171 969.072,159.838 971.5,161C 970.833,161.333 970.167,161.667 969.5,162C 970.833,162.667 970.833,163.333 969.5,164C 970.167,164.333 970.833,164.667 971.5,165C 968.833,165.667 968.833,166.333 971.5,167C 968.833,168.333 968.833,169.667 971.5,171C 970.572,171.388 969.905,172.055 969.5,173C 970.505,174.672 971.839,176.005 973.5,177C 970.833,177.667 970.833,178.333 973.5,179C 970.833,179.667 970.833,180.333 973.5,181C 970.833,181.667 970.833,182.333 973.5,183C 970.833,183.667 970.833,184.333 973.5,185C 970.833,185.667 970.833,186.333 973.5,187C 973.167,188 972.833,189 972.5,190C 973.167,191.333 974.167,192.333 975.5,193C 974.833,193.333 974.167,193.667 973.5,194C 974.833,194.667 974.833,195.333 973.5,196C 974.167,196.333 974.833,196.667 975.5,197C 972.833,197.667 972.833,198.333 975.5,199C 972.833,200.333 972.833,201.667 975.5,203C 974.572,203.388 973.905,204.055 973.5,205C 974.505,206.672 975.839,208.005 977.5,209C 974.833,209.667 974.833,210.333 977.5,211C 983.825,211.5 990.158,211.666 996.5,211.5C 998.806,211.007 1001.14,210.674 1003.5,210.5C 1003.01,211.995 1002.34,213.329 1001.5,214.5C 975.675,212.832 949.675,211.498 923.5,210.5C 928.297,210.879 932.964,210.379 937.5,209C 936.5,208 935.5,207 934.5,206C 937.669,205.136 937.335,203.803 933.5,202C 936.167,201.333 936.167,200.667 933.5,200C 936.167,199.333 936.167,198.667 933.5,198C 936.167,197.333 936.167,196.667 933.5,196C 936.167,195.333 936.167,194.667 933.5,194C 934.167,193.667 934.833,193.333 935.5,193C 934.167,190.667 932.833,188.333 931.5,186C 934.167,185.333 934.167,184.667 931.5,184C 934.167,183.333 934.167,182.667 931.5,182C 934.167,181.333 934.167,180.667 931.5,180C 934.167,179.333 934.167,178.667 931.5,178C 932.167,177.667 932.833,177.333 933.5,177C 931.822,176.516 931.156,175.683 931.5,174.5C 937.232,168.453 943.232,162.619 949.5,157C 948.833,156.333 948.167,156.333 947.5,157C 942.324,162.074 936.99,166.908 931.5,171.5C 931.082,170.778 930.416,170.278 929.5,170C 932.167,169.333 932.167,168.667 929.5,168C 932.167,167.333 932.167,166.667 929.5,166C 932.167,165.333 932.167,164.667 929.5,164C 932.167,163.333 932.167,162.667 929.5,162C 930.167,161.667 930.833,161.333 931.5,161C 930.167,158.667 928.833,156.333 927.5,154C 928.167,153.667 928.833,153.333 929.5,153C 928.167,152.333 928.167,151.667 929.5,151C 926.833,150.333 926.833,149.667 929.5,149C 926.833,148.333 926.833,147.667 929.5,147C 926.833,146.333 926.833,145.667 929.5,145C 926.833,144.333 926.833,143.667 929.5,143C 926.833,142.333 926.833,141.667 929.5,141C 928.167,140 926.833,139 925.5,138C 928.167,137.333 928.167,136.667 925.5,136C 928.167,135.333 928.167,134.667 925.5,134C 928.167,133.333 928.167,132.667 925.5,132C 928.167,131.333 928.167,130.667 925.5,130C 926.167,129.667 926.833,129.333 927.5,129C 925.408,128.047 925.075,126.714 926.5,125C 925.833,123.667 924.833,122.667 923.5,122C 924.167,121.667 924.833,121.333 925.5,121C 924.167,120.333 924.167,119.667 925.5,119C 922.833,118.333 922.833,117.667 925.5,117C 924.584,116.722 923.918,116.222 923.5,115.5C 934.72,106.718 947.053,99.7181 960.5,94.5 Z"/></g>
<g><path style="opacity:0.995" fill="#dc823f" d="M 984.5,101.5 C 998.56,112.776 1007.06,127.443 1010,145.5C 1014.43,167.874 1012.26,189.54 1003.5,210.5C 1001.14,210.674 998.806,211.007 996.5,211.5C 996.082,210.778 995.416,210.278 994.5,210C 997.669,209.136 997.335,207.803 993.5,206C 994.167,205.667 994.833,205.333 995.5,205C 992.833,204.333 992.833,203.667 995.5,203C 992.833,202.333 992.833,201.667 995.5,201C 992.833,200.333 992.833,199.667 995.5,199C 992.833,198.333 992.833,197.667 995.5,197C 994.572,196.612 993.905,195.945 993.5,195C 994.595,192.829 993.928,191.162 991.5,190C 992.167,189.667 992.833,189.333 993.5,189C 992.167,188.333 992.167,187.667 993.5,187C 990.833,186.333 990.833,185.667 993.5,185C 990.833,184.333 990.833,183.667 993.5,183C 990.833,182.333 990.833,181.667 993.5,181C 992.5,180 991.5,179 990.5,178C 993.669,177.136 993.335,175.803 989.5,174C 990.167,173.667 990.833,173.333 991.5,173C 988.833,172.333 988.833,171.667 991.5,171C 988.833,170.333 988.833,169.667 991.5,169C 988.833,168.333 988.833,167.667 991.5,167C 988.833,166.333 988.833,165.667 991.5,165C 990.572,164.612 989.905,163.945 989.5,163C 991.451,161.039 990.785,159.372 987.5,158C 988.167,157.667 988.833,157.333 989.5,157C 986.833,156.333 986.833,155.667 989.5,155C 986.833,154.333 986.833,153.667 989.5,153C 986.833,152.333 986.833,151.667 989.5,151C 986.833,150.333 986.833,149.667 989.5,149C 988.5,148 987.5,147 986.5,146C 989.669,145.136 989.335,143.803 985.5,142C 986.167,141.667 986.833,141.333 987.5,141C 984.833,140.333 984.833,139.667 987.5,139C 984.833,138.333 984.833,137.667 987.5,137C 984.833,136.333 984.833,135.667 987.5,135C 984.833,134.333 984.833,133.667 987.5,133C 984.833,131.667 984.833,130.333 987.5,129C 986.167,128.333 985.167,127.333 984.5,126C 984.833,125 985.167,124 985.5,123C 982.833,122.333 982.833,121.667 985.5,121C 982.833,120.333 982.833,119.667 985.5,119C 982.833,118.333 982.833,117.667 985.5,117C 982.833,116.333 982.833,115.667 985.5,115C 982.833,114.333 982.833,113.667 985.5,113C 984.167,112 982.833,111 981.5,110C 982.167,109.667 982.833,109.333 983.5,109C 980.833,108.333 980.833,107.667 983.5,107C 980.833,106.333 980.833,105.667 983.5,105C 980.833,104.333 980.833,103.667 983.5,103C 981.068,101.913 981.402,101.413 984.5,101.5 Z"/></g>
<g><path style="opacity:1" fill="#f2c28a" d="M 398.5,147.5 C 398.81,144.287 398.477,141.287 397.5,138.5C 397.735,132.151 398.235,125.817 399,119.5C 399.824,129.009 399.658,138.343 398.5,147.5 Z"/></g>
<g><path style="opacity:0.998" fill="#da7e3d" d="M 466.5,128.5 C 468.474,130.428 469.974,132.761 471,135.5C 489.27,185.386 495.937,236.72 491,289.5C 488.63,295.956 486.297,302.289 484,308.5C 491.491,299.523 497.991,289.857 503.5,279.5C 505.121,281.153 506.288,283.153 507,285.5C 514.021,304.916 518.188,324.916 519.5,345.5C 519.243,361.195 515.243,375.861 507.5,389.5C 507.667,389.833 507.833,390.167 508,390.5C 515.153,381.503 521.32,371.836 526.5,361.5C 532.577,386.09 529.577,409.757 517.5,432.5C 518.355,433.293 519.189,432.96 520,431.5C 524.845,425.128 529.678,418.795 534.5,412.5C 551.737,457.586 559.57,504.253 558,552.5C 556.662,571.182 552.496,589.182 545.5,606.5C 544.733,607.172 544.066,608.005 543.5,609C 522.884,613.089 502.551,618.256 482.5,624.5C 448.796,507.816 423.629,389.149 407,268.5C 403.564,242.265 401.397,215.932 400.5,189.5C 411.961,179.876 423.295,170.043 434.5,160C 444.981,149.352 455.648,138.852 466.5,128.5 Z"/></g>
<g><path style="opacity:0.996" fill="#e99d43" d="M 923.5,115.5 C 923.918,116.222 924.584,116.722 925.5,117C 922.833,117.667 922.833,118.333 925.5,119C 924.167,119.667 924.167,120.333 925.5,121C 924.833,121.333 924.167,121.667 923.5,122C 924.833,122.667 925.833,123.667 926.5,125C 925.075,126.714 925.408,128.047 927.5,129C 926.833,129.333 926.167,129.667 925.5,130C 928.167,130.667 928.167,131.333 925.5,132C 928.167,132.667 928.167,133.333 925.5,134C 928.167,134.667 928.167,135.333 925.5,136C 928.167,136.667 928.167,137.333 925.5,138C 926.833,139 928.167,140 929.5,141C 926.833,141.667 926.833,142.333 929.5,143C 926.833,143.667 926.833,144.333 929.5,145C 926.833,145.667 926.833,146.333 929.5,147C 926.833,147.667 926.833,148.333 929.5,149C 926.833,149.667 926.833,150.333 929.5,151C 928.167,151.667 928.167,152.333 929.5,153C 928.833,153.333 928.167,153.667 927.5,154C 928.833,156.333 930.167,158.667 931.5,161C 930.833,161.333 930.167,161.667 929.5,162C 932.167,162.667 932.167,163.333 929.5,164C 932.167,164.667 932.167,165.333 929.5,166C 932.167,166.667 932.167,167.333 929.5,168C 932.167,168.667 932.167,169.333 929.5,170C 930.416,170.278 931.082,170.778 931.5,171.5C 919.167,183.167 907.167,195.167 895.5,207.5C 888.494,189.816 882.494,171.816 877.5,153.5C 891.935,139.731 907.268,127.064 923.5,115.5 Z"/></g>
<g><path style="opacity:1" fill="#fefaf7" d="M 397.5,138.5 C 398.477,141.287 398.81,144.287 398.5,147.5C 398.573,161.545 399.239,175.545 400.5,189.5C 401.397,215.932 403.564,242.265 407,268.5C 423.629,389.149 448.796,507.816 482.5,624.5C 479.67,625.735 476.67,626.735 473.5,627.5C 462.823,583.793 451.99,540.126 441,496.5C 431.912,454.394 423.579,412.061 416,369.5C 415.338,368.016 414.504,366.683 413.5,365.5C 414.638,362.696 414.805,359.696 414,356.5C 410.089,331.544 406.589,306.544 403.5,281.5C 402.5,271.501 401.5,261.501 400.5,251.5C 399.676,238.142 398.676,224.809 397.5,211.5C 397.498,204.48 397.165,197.48 396.5,190.5C 396.288,173.15 396.622,155.817 397.5,138.5 Z"/></g>
<g><path style="opacity:1" fill="#fcf5f4" d="M 931.5,174.5 C 920.162,185.838 909.162,197.505 898.5,209.5C 890.833,218.833 883.167,228.167 875.5,237.5C 871.155,241.847 867.155,246.514 863.5,251.5C 859.091,256.569 855.091,261.902 851.5,267.5C 846.353,273.129 841.686,279.129 837.5,285.5C 829.36,295.101 821.693,305.101 814.5,315.5C 810.167,321.5 805.833,327.5 801.5,333.5C 792.821,345.538 784.155,357.538 775.5,369.5C 754.335,401.16 733.668,433.16 713.5,465.5C 705.668,477.158 698.335,489.158 691.5,501.5C 683,514.494 675,527.827 667.5,541.5C 656.413,558.666 646.08,576.333 636.5,594.5C 632.732,595.787 629.065,595.787 625.5,594.5C 626.913,591.339 628.58,588.339 630.5,585.5C 638.194,572.15 645.861,558.816 653.5,545.5C 661.737,532.703 669.737,519.703 677.5,506.5C 687.5,490.5 697.5,474.5 707.5,458.5C 727.755,426.318 748.755,394.652 770.5,363.5C 780.827,349.823 790.827,335.823 800.5,321.5C 808.64,311.899 816.307,301.899 823.5,291.5C 832.489,280.206 841.489,268.872 850.5,257.5C 858.845,248.486 866.845,239.153 874.5,229.5C 881.5,222.167 888.5,214.833 895.5,207.5C 907.167,195.167 919.167,183.167 931.5,171.5C 936.99,166.908 942.324,162.074 947.5,157C 948.167,156.333 948.833,156.333 949.5,157C 943.232,162.619 937.232,168.453 931.5,174.5 Z"/></g>
<g><path style="opacity:0.996" fill="#d97c3d" d="M 877.5,153.5 C 882.494,171.816 888.494,189.816 895.5,207.5C 888.5,214.833 881.5,222.167 874.5,229.5C 873.77,227.955 872.437,227.122 870.5,227C 871.167,226.667 871.833,226.333 872.5,226C 870.5,225.667 868.5,225.333 866.5,225C 867.167,224.667 867.833,224.333 868.5,224C 867.167,223.667 865.833,223.333 864.5,223C 865.167,222.667 865.833,222.333 866.5,222C 864.5,221.667 862.5,221.333 860.5,221C 861.167,220.667 861.833,220.333 862.5,220C 861.167,219.667 859.833,219.333 858.5,219C 859.167,218.667 859.833,218.333 860.5,218C 858.5,217.667 856.5,217.333 854.5,217C 855.167,216.667 855.833,216.333 856.5,216C 855.167,215.667 853.833,215.333 852.5,215C 853.167,214.667 853.833,214.333 854.5,214C 852.5,213.667 850.5,213.333 848.5,213C 849.167,212.667 849.833,212.333 850.5,212C 849.167,211.667 847.833,211.333 846.5,211C 847.167,210.667 847.833,210.333 848.5,210C 846.5,209.667 844.5,209.333 842.5,209C 843.167,208.667 843.833,208.333 844.5,208C 841.833,207 839.167,206 836.5,205C 837.167,204.667 837.833,204.333 838.5,204C 837.167,203.667 835.833,203.333 834.5,203C 835.167,202.667 835.833,202.333 836.5,202C 834.5,201.667 832.5,201.333 830.5,201C 832.932,199.913 832.598,199.413 829.5,199.5C 845.17,183.83 861.17,168.497 877.5,153.5 Z"/></g>
<g><path style="opacity:1" fill="#e89a43" d="M 931.5,174.5 C 931.156,175.683 931.822,176.516 933.5,177C 932.833,177.333 932.167,177.667 931.5,178C 934.167,178.667 934.167,179.333 931.5,180C 934.167,180.667 934.167,181.333 931.5,182C 934.167,182.667 934.167,183.333 931.5,184C 934.167,184.667 934.167,185.333 931.5,186C 932.833,188.333 934.167,190.667 935.5,193C 934.833,193.333 934.167,193.667 933.5,194C 936.167,194.667 936.167,195.333 933.5,196C 936.167,196.667 936.167,197.333 933.5,198C 936.167,198.667 936.167,199.333 933.5,200C 936.167,200.667 936.167,201.333 933.5,202C 937.335,203.803 937.669,205.136 934.5,206C 935.5,207 936.5,208 937.5,209C 932.964,210.379 928.297,210.879 923.5,210.5C 915.152,210.457 906.819,210.124 898.5,209.5C 909.162,197.505 920.162,185.838 931.5,174.5 Z"/></g>
<g><path style="opacity:0.999" fill="#cd5f3f" d="M 396.5,190.5 C 397.165,197.48 397.498,204.48 397.5,211.5C 396.778,211.082 396.278,210.416 396,209.5C 393.667,210.833 391.333,212.167 389,213.5C 388.667,212.833 388.333,212.167 388,211.5C 376.179,215.328 364.012,217.994 351.5,219.5C 351.5,232.167 351.5,244.833 351.5,257.5C 351.5,263.167 351.5,268.833 351.5,274.5C 350.206,241.653 350.206,208.653 351.5,175.5C 352.163,173.958 352.83,172.291 353.5,170.5C 367.739,177.454 382.073,184.121 396.5,190.5 Z"/></g>
<g><path style="opacity:0.998" fill="#da7d3d" d="M 898.5,209.5 C 906.819,210.124 915.152,210.457 923.5,210.5C 949.675,211.498 975.675,212.832 1001.5,214.5C 991.255,242.342 976.922,267.675 958.5,290.5C 952.059,286.441 945.393,282.608 938.5,279C 939.167,278.667 939.833,278.333 940.5,278C 936.143,275.155 931.477,272.822 926.5,271C 927.167,270.667 927.833,270.333 928.5,270C 924.143,267.155 919.477,264.822 914.5,263C 915.167,262.667 915.833,262.333 916.5,262C 912.143,259.155 907.477,256.822 902.5,255C 903.167,254.667 903.833,254.333 904.5,254C 900.143,251.155 895.477,248.822 890.5,247C 891.167,246.667 891.833,246.333 892.5,246C 890.5,245.667 888.5,245.333 886.5,245C 887.167,244.667 887.833,244.333 888.5,244C 886.666,242.084 883.332,240.417 878.5,239C 879.167,238.667 879.833,238.333 880.5,238C 878.866,237.506 877.199,237.34 875.5,237.5C 883.167,228.167 890.833,218.833 898.5,209.5 Z"/></g>
<g><path style="opacity:0.997" fill="#d4703d" d="M 829.5,199.5 C 832.598,199.413 832.932,199.913 830.5,201C 832.5,201.333 834.5,201.667 836.5,202C 835.833,202.333 835.167,202.667 834.5,203C 835.833,203.333 837.167,203.667 838.5,204C 837.833,204.333 837.167,204.667 836.5,205C 839.167,206 841.833,207 844.5,208C 843.833,208.333 843.167,208.667 842.5,209C 844.5,209.333 846.5,209.667 848.5,210C 847.833,210.333 847.167,210.667 846.5,211C 847.833,211.333 849.167,211.667 850.5,212C 849.833,212.333 849.167,212.667 848.5,213C 850.5,213.333 852.5,213.667 854.5,214C 853.833,214.333 853.167,214.667 852.5,215C 853.833,215.333 855.167,215.667 856.5,216C 855.833,216.333 855.167,216.667 854.5,217C 856.5,217.333 858.5,217.667 860.5,218C 859.833,218.333 859.167,218.667 858.5,219C 859.833,219.333 861.167,219.667 862.5,220C 861.833,220.333 861.167,220.667 860.5,221C 862.5,221.333 864.5,221.667 866.5,222C 865.833,222.333 865.167,222.667 864.5,223C 865.833,223.333 867.167,223.667 868.5,224C 867.833,224.333 867.167,224.667 866.5,225C 868.5,225.333 870.5,225.667 872.5,226C 871.833,226.333 871.167,226.667 870.5,227C 872.437,227.122 873.77,227.955 874.5,229.5C 866.845,239.153 858.845,248.486 850.5,257.5C 847.769,256.973 845.102,256.14 842.5,255C 843.167,254.667 843.833,254.333 844.5,254C 842.5,253.667 840.5,253.333 838.5,253C 839.167,252.667 839.833,252.333 840.5,252C 839.167,251.667 837.833,251.333 836.5,251C 837.167,250.667 837.833,250.333 838.5,250C 835.833,249 833.167,248 830.5,247C 831.167,246.667 831.833,246.333 832.5,246C 830.5,245.667 828.5,245.333 826.5,245C 827.167,244.667 827.833,244.333 828.5,244C 827.167,243.667 825.833,243.333 824.5,243C 825.167,242.667 825.833,242.333 826.5,242C 824.5,241.667 822.5,241.333 820.5,241C 821.167,240.667 821.833,240.333 822.5,240C 821.167,239.667 819.833,239.333 818.5,239C 819.167,238.667 819.833,238.333 820.5,238C 818.5,237.667 816.5,237.333 814.5,237C 815.167,236.667 815.833,236.333 816.5,236C 815.167,235.667 813.833,235.333 812.5,235C 813.167,234.667 813.833,234.333 814.5,234C 812.5,233.667 810.5,233.333 808.5,233C 809.167,232.667 809.833,232.333 810.5,232C 809.167,231.667 807.833,231.333 806.5,231C 807.167,230.667 807.833,230.333 808.5,230C 806.292,229.809 804.292,229.309 802.5,228.5C 811.139,218.526 820.139,208.86 829.5,199.5 Z"/></g>
<g><path style="opacity:1" fill="#c7513c" d="M 397.5,211.5 C 398.676,224.809 399.676,238.142 400.5,251.5C 399.839,250.282 399.172,248.949 398.5,247.5C 391.151,249.025 383.985,251.025 377,253.5C 376.667,252.833 376.333,252.167 376,251.5C 369.599,253.248 363.265,255.248 357,257.5C 356.667,256.833 356.333,256.167 356,255.5C 354.951,257.107 353.451,257.773 351.5,257.5C 351.5,244.833 351.5,232.167 351.5,219.5C 364.012,217.994 376.179,215.328 388,211.5C 388.333,212.167 388.667,212.833 389,213.5C 391.333,212.167 393.667,210.833 396,209.5C 396.278,210.416 396.778,211.082 397.5,211.5 Z"/></g>
<g><path style="opacity:0.999" fill="#d6743c" d="M 875.5,237.5 C 877.199,237.34 878.866,237.506 880.5,238C 879.833,238.333 879.167,238.667 878.5,239C 883.332,240.417 886.666,242.084 888.5,244C 887.833,244.333 887.167,244.667 886.5,245C 888.5,245.333 890.5,245.667 892.5,246C 891.833,246.333 891.167,246.667 890.5,247C 895.477,248.822 900.143,251.155 904.5,254C 903.833,254.333 903.167,254.667 902.5,255C 907.477,256.822 912.143,259.155 916.5,262C 915.833,262.333 915.167,262.667 914.5,263C 919.477,264.822 924.143,267.155 928.5,270C 927.833,270.333 927.167,270.667 926.5,271C 931.477,272.822 936.143,275.155 940.5,278C 939.833,278.333 939.167,278.667 938.5,279C 945.393,282.608 952.059,286.441 958.5,290.5C 954.934,297.064 950.601,303.064 945.5,308.5C 944.737,307.732 943.737,307.232 942.5,307C 943.973,306.29 944.64,305.124 944.5,303.5C 943.022,303.762 941.689,303.429 940.5,302.5C 929.848,294.822 919.848,288.322 910.5,283C 911.167,282.667 911.833,282.333 912.5,282C 910.5,281.667 908.5,281.333 906.5,281C 907.167,280.667 907.833,280.333 908.5,280C 905.833,279 903.167,278 900.5,277C 901.167,276.667 901.833,276.333 902.5,276C 901.167,275.667 899.833,275.333 898.5,275C 899.167,274.667 899.833,274.333 900.5,274C 898.5,273.667 896.5,273.333 894.5,273C 895.167,272.667 895.833,272.333 896.5,272C 893.833,271 891.167,270 888.5,269C 889.167,268.667 889.833,268.333 890.5,268C 889.167,267.667 887.833,267.333 886.5,267C 887.167,266.667 887.833,266.333 888.5,266C 886.5,265.667 884.5,265.333 882.5,265C 883.167,264.667 883.833,264.333 884.5,264C 881.833,263 879.167,262 876.5,261C 877.167,260.667 877.833,260.333 878.5,260C 877.167,259.667 875.833,259.333 874.5,259C 875.167,258.667 875.833,258.333 876.5,258C 874.5,257.667 872.5,257.333 870.5,257C 871.167,256.667 871.833,256.333 872.5,256C 869.165,254.999 866.165,253.499 863.5,251.5C 867.155,246.514 871.155,241.847 875.5,237.5 Z"/></g>
<g><path style="opacity:1" fill="#cf633d" d="M 802.5,228.5 C 804.292,229.309 806.292,229.809 808.5,230C 807.833,230.333 807.167,230.667 806.5,231C 807.833,231.333 809.167,231.667 810.5,232C 809.833,232.333 809.167,232.667 808.5,233C 810.5,233.333 812.5,233.667 814.5,234C 813.833,234.333 813.167,234.667 812.5,235C 813.833,235.333 815.167,235.667 816.5,236C 815.833,236.333 815.167,236.667 814.5,237C 816.5,237.333 818.5,237.667 820.5,238C 819.833,238.333 819.167,238.667 818.5,239C 819.833,239.333 821.167,239.667 822.5,240C 821.833,240.333 821.167,240.667 820.5,241C 822.5,241.333 824.5,241.667 826.5,242C 825.833,242.333 825.167,242.667 824.5,243C 825.833,243.333 827.167,243.667 828.5,244C 827.833,244.333 827.167,244.667 826.5,245C 828.5,245.333 830.5,245.667 832.5,246C 831.833,246.333 831.167,246.667 830.5,247C 833.167,248 835.833,249 838.5,250C 837.833,250.333 837.167,250.667 836.5,251C 837.833,251.333 839.167,251.667 840.5,252C 839.833,252.333 839.167,252.667 838.5,253C 840.5,253.333 842.5,253.667 844.5,254C 843.833,254.333 843.167,254.667 842.5,255C 845.102,256.14 847.769,256.973 850.5,257.5C 841.489,268.872 832.489,280.206 823.5,291.5C 821.962,289.898 818.962,288.398 814.5,287C 815.167,286.667 815.833,286.333 816.5,286C 812.143,283.155 807.477,280.822 802.5,279C 803.167,278.667 803.833,278.333 804.5,278C 800.143,275.155 795.477,272.822 790.5,271C 791.167,270.667 791.833,270.333 792.5,270C 788.143,267.155 783.477,264.822 778.5,263C 779.167,262.667 779.833,262.333 780.5,262C 778.5,261.667 776.5,261.333 774.5,261C 776.932,259.913 776.598,259.413 773.5,259.5C 782.828,248.839 792.495,238.506 802.5,228.5 Z"/></g>
<g><path style="opacity:0.999" fill="#d36d3c" d="M 863.5,251.5 C 866.165,253.499 869.165,254.999 872.5,256C 871.833,256.333 871.167,256.667 870.5,257C 872.5,257.333 874.5,257.667 876.5,258C 875.833,258.333 875.167,258.667 874.5,259C 875.833,259.333 877.167,259.667 878.5,260C 877.833,260.333 877.167,260.667 876.5,261C 879.167,262 881.833,263 884.5,264C 883.833,264.333 883.167,264.667 882.5,265C 884.5,265.333 886.5,265.667 888.5,266C 887.833,266.333 887.167,266.667 886.5,267C 887.833,267.333 889.167,267.667 890.5,268C 889.833,268.333 889.167,268.667 888.5,269C 891.167,270 893.833,271 896.5,272C 895.833,272.333 895.167,272.667 894.5,273C 896.5,273.333 898.5,273.667 900.5,274C 899.833,274.333 899.167,274.667 898.5,275C 899.833,275.333 901.167,275.667 902.5,276C 901.833,276.333 901.167,276.667 900.5,277C 903.167,278 905.833,279 908.5,280C 907.833,280.333 907.167,280.667 906.5,281C 908.5,281.333 910.5,281.667 912.5,282C 911.833,282.333 911.167,282.667 910.5,283C 919.848,288.322 929.848,294.822 940.5,302.5C 941.689,303.429 943.022,303.762 944.5,303.5C 944.64,305.124 943.973,306.29 942.5,307C 943.737,307.232 944.737,307.732 945.5,308.5C 941.822,313.206 938.156,317.872 934.5,322.5C 934.082,321.778 933.416,321.278 932.5,321C 933.167,320.667 933.833,320.333 934.5,320C 931.833,319 929.167,318 926.5,317C 927.167,316.667 927.833,316.333 928.5,316C 926.5,315.667 924.5,315.333 922.5,315C 923.167,314.667 923.833,314.333 924.5,314C 923.167,313.667 921.833,313.333 920.5,313C 921.167,312.667 921.833,312.333 922.5,312C 920.5,311.667 918.5,311.333 916.5,311C 917.167,310.667 917.833,310.333 918.5,310C 917.167,309.667 915.833,309.333 914.5,309C 915.167,308.667 915.833,308.333 916.5,308C 914.5,307.667 912.5,307.333 910.5,307C 911.167,306.667 911.833,306.333 912.5,306C 911.167,305.667 909.833,305.333 908.5,305C 909.167,304.667 909.833,304.333 910.5,304C 908.5,303.667 906.5,303.333 904.5,303C 905.167,302.667 905.833,302.333 906.5,302C 905.167,301.667 903.833,301.333 902.5,301C 903.167,300.667 903.833,300.333 904.5,300C 902.5,299.667 900.5,299.333 898.5,299C 899.167,298.667 899.833,298.333 900.5,298C 899.167,297.667 897.833,297.333 896.5,297C 897.167,296.667 897.833,296.333 898.5,296C 896.5,295.667 894.5,295.333 892.5,295C 893.167,294.667 893.833,294.333 894.5,294C 893.167,293.667 891.833,293.333 890.5,293C 891.167,292.667 891.833,292.333 892.5,292C 890.5,291.667 888.5,291.333 886.5,291C 887.167,290.667 887.833,290.333 888.5,290C 880.16,284.495 871.493,279.495 862.5,275C 863.167,274.667 863.833,274.333 864.5,274C 860.44,271.303 856.107,269.137 851.5,267.5C 855.091,261.902 859.091,256.569 863.5,251.5 Z"/></g>
<g><path style="opacity:0.999" fill="#d1673c" d="M 851.5,267.5 C 856.107,269.137 860.44,271.303 864.5,274C 863.833,274.333 863.167,274.667 862.5,275C 871.493,279.495 880.16,284.495 888.5,290C 887.833,290.333 887.167,290.667 886.5,291C 888.5,291.333 890.5,291.667 892.5,292C 891.833,292.333 891.167,292.667 890.5,293C 891.833,293.333 893.167,293.667 894.5,294C 893.833,294.333 893.167,294.667 892.5,295C 894.5,295.333 896.5,295.667 898.5,296C 897.833,296.333 897.167,296.667 896.5,297C 897.833,297.333 899.167,297.667 900.5,298C 899.833,298.333 899.167,298.667 898.5,299C 900.5,299.333 902.5,299.667 904.5,300C 903.833,300.333 903.167,300.667 902.5,301C 903.833,301.333 905.167,301.667 906.5,302C 905.833,302.333 905.167,302.667 904.5,303C 906.5,303.333 908.5,303.667 910.5,304C 909.833,304.333 909.167,304.667 908.5,305C 909.833,305.333 911.167,305.667 912.5,306C 911.833,306.333 911.167,306.667 910.5,307C 912.5,307.333 914.5,307.667 916.5,308C 915.833,308.333 915.167,308.667 914.5,309C 915.833,309.333 917.167,309.667 918.5,310C 917.833,310.333 917.167,310.667 916.5,311C 918.5,311.333 920.5,311.667 922.5,312C 921.833,312.333 921.167,312.667 920.5,313C 921.833,313.333 923.167,313.667 924.5,314C 923.833,314.333 923.167,314.667 922.5,315C 924.5,315.333 926.5,315.667 928.5,316C 927.833,316.333 927.167,316.667 926.5,317C 929.167,318 931.833,319 934.5,320C 933.833,320.333 933.167,320.667 932.5,321C 933.416,321.278 934.082,321.778 934.5,322.5C 930.177,328.155 925.51,333.488 920.5,338.5C 915.736,336.283 911.069,333.783 906.5,331C 907.167,330.667 907.833,330.333 908.5,330C 903.523,328.178 898.857,325.845 894.5,323C 895.167,322.667 895.833,322.333 896.5,322C 891.523,320.178 886.857,317.845 882.5,315C 883.167,314.667 883.833,314.333 884.5,314C 870.521,306.523 857.188,298.023 844.5,288.5C 842.242,287.201 839.908,286.201 837.5,285.5C 841.686,279.129 846.353,273.129 851.5,267.5 Z"/></g>
<g><path style="opacity:1" fill="#c2453c" d="M 400.5,251.5 C 401.5,261.501 402.5,271.501 403.5,281.5C 394.922,283.476 386.256,285.143 377.5,286.5C 374.373,286.98 371.54,287.98 369,289.5C 368.667,288.833 368.333,288.167 368,287.5C 363.185,289.83 358.018,291.163 352.5,291.5C 352.5,292.5 352.5,293.5 352.5,294.5C 351.509,288.021 351.176,281.354 351.5,274.5C 351.5,268.833 351.5,263.167 351.5,257.5C 353.451,257.773 354.951,257.107 356,255.5C 356.333,256.167 356.667,256.833 357,257.5C 363.265,255.248 369.599,253.248 376,251.5C 376.333,252.167 376.667,252.833 377,253.5C 383.985,251.025 391.151,249.025 398.5,247.5C 399.172,248.949 399.839,250.282 400.5,251.5 Z"/></g>
<g><path style="opacity:1" fill="#ca583d" d="M 773.5,259.5 C 776.598,259.413 776.932,259.913 774.5,261C 776.5,261.333 778.5,261.667 780.5,262C 779.833,262.333 779.167,262.667 778.5,263C 783.477,264.822 788.143,267.155 792.5,270C 791.833,270.333 791.167,270.667 790.5,271C 795.477,272.822 800.143,275.155 804.5,278C 803.833,278.333 803.167,278.667 802.5,279C 807.477,280.822 812.143,283.155 816.5,286C 815.833,286.333 815.167,286.667 814.5,287C 818.962,288.398 821.962,289.898 823.5,291.5C 816.307,301.899 808.64,311.899 800.5,321.5C 799.314,320.018 796.648,319.184 792.5,319C 793.167,318.667 793.833,318.333 794.5,318C 793.167,317.667 791.833,317.333 790.5,317C 791.167,316.667 791.833,316.333 792.5,316C 790.5,315.667 788.5,315.333 786.5,315C 787.167,314.667 787.833,314.333 788.5,314C 787.167,313.667 785.833,313.333 784.5,313C 785.167,312.667 785.833,312.333 786.5,312C 784.5,311.667 782.5,311.333 780.5,311C 781.167,310.667 781.833,310.333 782.5,310C 781.167,309.667 779.833,309.333 778.5,309C 779.167,308.667 779.833,308.333 780.5,308C 778.5,307.667 776.5,307.333 774.5,307C 775.167,306.667 775.833,306.333 776.5,306C 775.167,305.667 773.833,305.333 772.5,305C 773.167,304.667 773.833,304.333 774.5,304C 772.5,303.667 770.5,303.333 768.5,303C 769.167,302.667 769.833,302.333 770.5,302C 769.167,301.667 767.833,301.333 766.5,301C 767.167,300.667 767.833,300.333 768.5,300C 766.5,299.667 764.5,299.333 762.5,299C 763.167,298.667 763.833,298.333 764.5,298C 761.833,297 759.167,296 756.5,295C 757.167,294.667 757.833,294.333 758.5,294C 757.167,293.667 755.833,293.333 754.5,293C 755.167,292.667 755.833,292.333 756.5,292C 753.843,291.825 751.176,291.992 748.5,292.5C 748.5,293.5 748.5,294.5 748.5,295.5C 747.9,294.1 746.9,293.1 745.5,292.5C 754.089,280.907 763.423,269.907 773.5,259.5 Z"/></g>
<g><path style="opacity:0.999" fill="#cd5f3c" d="M 837.5,285.5 C 839.908,286.201 842.242,287.201 844.5,288.5C 857.188,298.023 870.521,306.523 884.5,314C 883.833,314.333 883.167,314.667 882.5,315C 886.857,317.845 891.523,320.178 896.5,322C 895.833,322.333 895.167,322.667 894.5,323C 898.857,325.845 903.523,328.178 908.5,330C 907.833,330.333 907.167,330.667 906.5,331C 911.069,333.783 915.736,336.283 920.5,338.5C 911.164,349.843 899.831,358.51 886.5,364.5C 886.082,363.778 885.416,363.278 884.5,363C 885.167,362.667 885.833,362.333 886.5,362C 885.167,361.667 883.833,361.333 882.5,361C 883.167,360.667 883.833,360.333 884.5,360C 882.5,359.667 880.5,359.333 878.5,359C 879.167,358.667 879.833,358.333 880.5,358C 877.833,357 875.167,356 872.5,355C 873.167,354.667 873.833,354.333 874.5,354C 873.167,353.667 871.833,353.333 870.5,353C 871.167,352.667 871.833,352.333 872.5,352C 870.5,351.667 868.5,351.333 866.5,351C 867.167,350.667 867.833,350.333 868.5,350C 865.833,349 863.167,348 860.5,347C 861.167,346.667 861.833,346.333 862.5,346C 861.167,345.667 859.833,345.333 858.5,345C 859.167,344.667 859.833,344.333 860.5,344C 858.5,343.667 856.5,343.333 854.5,343C 855.167,342.667 855.833,342.333 856.5,342C 851.523,340.178 846.857,337.845 842.5,335C 843.167,334.667 843.833,334.333 844.5,334C 841.721,333.111 839.055,331.944 836.5,330.5C 829.109,325.48 821.776,320.48 814.5,315.5C 821.693,305.101 829.36,295.101 837.5,285.5 Z"/></g>
<g><path style="opacity:1" fill="#c64d3c" d="M 800.5,321.5 C 790.827,335.823 780.827,349.823 770.5,363.5C 763.287,340.734 755.954,318.068 748.5,295.5C 748.5,294.5 748.5,293.5 748.5,292.5C 751.176,291.992 753.843,291.825 756.5,292C 755.833,292.333 755.167,292.667 754.5,293C 755.833,293.333 757.167,293.667 758.5,294C 757.833,294.333 757.167,294.667 756.5,295C 759.167,296 761.833,297 764.5,298C 763.833,298.333 763.167,298.667 762.5,299C 764.5,299.333 766.5,299.667 768.5,300C 767.833,300.333 767.167,300.667 766.5,301C 767.833,301.333 769.167,301.667 770.5,302C 769.833,302.333 769.167,302.667 768.5,303C 770.5,303.333 772.5,303.667 774.5,304C 773.833,304.333 773.167,304.667 772.5,305C 773.833,305.333 775.167,305.667 776.5,306C 775.833,306.333 775.167,306.667 774.5,307C 776.5,307.333 778.5,307.667 780.5,308C 779.833,308.333 779.167,308.667 778.5,309C 779.833,309.333 781.167,309.667 782.5,310C 781.833,310.333 781.167,310.667 780.5,311C 782.5,311.333 784.5,311.667 786.5,312C 785.833,312.333 785.167,312.667 784.5,313C 785.833,313.333 787.167,313.667 788.5,314C 787.833,314.333 787.167,314.667 786.5,315C 788.5,315.333 790.5,315.667 792.5,316C 791.833,316.333 791.167,316.667 790.5,317C 791.833,317.333 793.167,317.667 794.5,318C 793.833,318.333 793.167,318.667 792.5,319C 796.648,319.184 799.314,320.018 800.5,321.5 Z"/></g>
<g><path style="opacity:0.722" fill="#e9b5b3" d="M 745.5,292.5 C 744.92,294.749 743.587,296.415 741.5,297.5C 742.08,295.251 743.413,293.585 745.5,292.5 Z"/></g>
<g><path style="opacity:0.999" fill="#bd393d" d="M 403.5,281.5 C 406.589,306.544 410.089,331.544 414,356.5C 414.805,359.696 414.638,362.696 413.5,365.5C 394.171,355.836 374.838,346.169 355.5,336.5C 353.658,322.709 352.658,308.709 352.5,294.5C 352.5,293.5 352.5,292.5 352.5,291.5C 358.018,291.163 363.185,289.83 368,287.5C 368.333,288.167 368.667,288.833 369,289.5C 371.54,287.98 374.373,286.98 377.5,286.5C 386.256,285.143 394.922,283.476 403.5,281.5 Z"/></g>
<g><path style="opacity:1" fill="#ca563d" d="M 814.5,315.5 C 821.776,320.48 829.109,325.48 836.5,330.5C 839.055,331.944 841.721,333.111 844.5,334C 843.833,334.333 843.167,334.667 842.5,335C 846.857,337.845 851.523,340.178 856.5,342C 855.833,342.333 855.167,342.667 854.5,343C 856.5,343.333 858.5,343.667 860.5,344C 859.833,344.333 859.167,344.667 858.5,345C 859.833,345.333 861.167,345.667 862.5,346C 861.833,346.333 861.167,346.667 860.5,347C 863.167,348 865.833,349 868.5,350C 867.833,350.333 867.167,350.667 866.5,351C 868.5,351.333 870.5,351.667 872.5,352C 871.833,352.333 871.167,352.667 870.5,353C 871.833,353.333 873.167,353.667 874.5,354C 873.833,354.333 873.167,354.667 872.5,355C 875.167,356 877.833,357 880.5,358C 879.833,358.333 879.167,358.667 878.5,359C 880.5,359.333 882.5,359.667 884.5,360C 883.833,360.333 883.167,360.667 882.5,361C 883.833,361.333 885.167,361.667 886.5,362C 885.833,362.333 885.167,362.667 884.5,363C 885.416,363.278 886.082,363.778 886.5,364.5C 881.823,367.166 876.823,369.333 871.5,371C 872.448,371.483 873.448,371.649 874.5,371.5C 866.833,372.833 859.167,372.833 851.5,371.5C 855.226,371.823 858.893,371.489 862.5,370.5C 857.796,366.301 852.463,363.134 846.5,361C 847.167,360.667 847.833,360.333 848.5,360C 844.143,357.155 839.477,354.822 834.5,353C 835.167,352.667 835.833,352.333 836.5,352C 834.5,351.667 832.5,351.333 830.5,351C 831.167,350.667 831.833,350.333 832.5,350C 830.666,348.084 827.332,346.417 822.5,345C 823.167,344.667 823.833,344.333 824.5,344C 822.5,343.667 820.5,343.333 818.5,343C 819.167,342.667 819.833,342.333 820.5,342C 818.666,340.084 815.332,338.417 810.5,337C 811.167,336.667 811.833,336.333 812.5,336C 810.5,335.667 808.5,335.333 806.5,335C 807.167,334.667 807.833,334.333 808.5,334C 806.19,333.503 803.857,333.337 801.5,333.5C 805.833,327.5 810.167,321.5 814.5,315.5 Z"/></g>
<g><path style="opacity:1" fill="#c64d3c" d="M 801.5,333.5 C 803.857,333.337 806.19,333.503 808.5,334C 807.833,334.333 807.167,334.667 806.5,335C 808.5,335.333 810.5,335.667 812.5,336C 811.833,336.333 811.167,336.667 810.5,337C 815.332,338.417 818.666,340.084 820.5,342C 819.833,342.333 819.167,342.667 818.5,343C 820.5,343.333 822.5,343.667 824.5,344C 823.833,344.333 823.167,344.667 822.5,345C 827.332,346.417 830.666,348.084 832.5,350C 831.833,350.333 831.167,350.667 830.5,351C 832.5,351.333 834.5,351.667 836.5,352C 835.833,352.333 835.167,352.667 834.5,353C 839.477,354.822 844.143,357.155 848.5,360C 847.833,360.333 847.167,360.667 846.5,361C 852.463,363.134 857.796,366.301 862.5,370.5C 858.893,371.489 855.226,371.823 851.5,371.5C 843.167,371.5 834.833,371.5 826.5,371.5C 809.55,370.341 792.55,369.675 775.5,369.5C 784.155,357.538 792.821,345.538 801.5,333.5 Z"/></g>
<g><path style="opacity:0.997" fill="#da7f3d" d="M 355.5,336.5 C 374.838,346.169 394.171,355.836 413.5,365.5C 414.504,366.683 415.338,368.016 416,369.5C 423.579,412.061 431.912,454.394 441,496.5C 451.99,540.126 462.823,583.793 473.5,627.5C 457.609,632.574 441.943,638.241 426.5,644.5C 426.768,642.901 426.434,641.568 425.5,640.5C 404.943,595.663 389.443,548.996 379,500.5C 367.367,446.371 359.534,391.705 355.5,336.5 Z"/></g>
<g><path style="opacity:1" fill="#bb363d" d="M 745.5,292.5 C 746.9,293.1 747.9,294.1 748.5,295.5C 755.954,318.068 763.287,340.734 770.5,363.5C 748.755,394.652 727.755,426.318 707.5,458.5C 704.142,457.975 700.809,457.142 697.5,456C 699.5,455.667 701.5,455.333 703.5,455C 700.042,454.403 696.709,453.403 693.5,452C 694.833,451.667 696.167,451.333 697.5,451C 692.069,450.885 688.069,449.885 685.5,448C 686.833,447.667 688.167,447.333 689.5,447C 686.833,446 684.167,445 681.5,444C 682.833,443.667 684.167,443.333 685.5,443C 680.069,442.885 676.069,441.885 673.5,440C 674.833,439.667 676.167,439.333 677.5,439C 674.291,437.597 670.958,436.597 667.5,436C 669.5,435.667 671.5,435.333 673.5,435C 668.069,434.885 664.069,433.885 661.5,432C 662.833,431.667 664.167,431.333 665.5,431C 662.291,429.597 658.958,428.597 655.5,428C 656.833,427.667 658.167,427.333 659.5,427C 656.167,426 652.833,425 649.5,424C 650.833,423.667 652.167,423.333 653.5,423C 651.563,422.878 650.23,422.045 649.5,420.5C 677.492,377.525 708.158,336.525 741.5,297.5C 743.587,296.415 744.92,294.749 745.5,292.5 Z"/></g>
<g><path style="opacity:1" fill="#c1413e" d="M 884.5,412.5 C 883.02,410.588 881.02,409.421 878.5,409C 879.167,408.667 879.833,408.333 880.5,408C 878.5,407.667 876.5,407.333 874.5,407C 875.167,406.667 875.833,406.333 876.5,406C 875.167,405.667 873.833,405.333 872.5,405C 873.167,404.667 873.833,404.333 874.5,404C 871.833,403 869.167,402 866.5,401C 867.167,400.667 867.833,400.333 868.5,400C 866.5,399.667 864.5,399.333 862.5,399C 863.167,398.667 863.833,398.333 864.5,398C 862.666,396.084 859.332,394.417 854.5,393C 855.167,392.667 855.833,392.333 856.5,392C 854.5,391.667 852.5,391.333 850.5,391C 851.167,390.667 851.833,390.333 852.5,390C 850.666,388.084 847.332,386.417 842.5,385C 843.167,384.667 843.833,384.333 844.5,384C 842.5,383.667 840.5,383.333 838.5,383C 839.167,382.667 839.833,382.333 840.5,382C 838.666,380.084 835.332,378.417 830.5,377C 831.167,376.667 831.833,376.333 832.5,376C 830.5,375.667 828.5,375.333 826.5,375C 827.167,374.667 827.833,374.333 828.5,374C 827.167,373.667 825.833,373.333 824.5,373C 825.416,372.722 826.082,372.222 826.5,371.5C 834.833,371.5 843.167,371.5 851.5,371.5C 859.167,372.833 866.833,372.833 874.5,371.5C 886.97,369.606 899.303,366.939 911.5,363.5C 904.814,381.213 895.814,397.546 884.5,412.5 Z"/></g>
<g><path style="opacity:1" fill="#bb363d" d="M 775.5,369.5 C 792.55,369.675 809.55,370.341 826.5,371.5C 826.082,372.222 825.416,372.722 824.5,373C 825.833,373.333 827.167,373.667 828.5,374C 827.833,374.333 827.167,374.667 826.5,375C 828.5,375.333 830.5,375.667 832.5,376C 831.833,376.333 831.167,376.667 830.5,377C 835.332,378.417 838.666,380.084 840.5,382C 839.833,382.333 839.167,382.667 838.5,383C 840.5,383.333 842.5,383.667 844.5,384C 843.833,384.333 843.167,384.667 842.5,385C 847.332,386.417 850.666,388.084 852.5,390C 851.833,390.333 851.167,390.667 850.5,391C 852.5,391.333 854.5,391.667 856.5,392C 855.833,392.333 855.167,392.667 854.5,393C 859.332,394.417 862.666,396.084 864.5,398C 863.833,398.333 863.167,398.667 862.5,399C 864.5,399.333 866.5,399.667 868.5,400C 867.833,400.333 867.167,400.667 866.5,401C 869.167,402 871.833,403 874.5,404C 873.833,404.333 873.167,404.667 872.5,405C 873.833,405.333 875.167,405.667 876.5,406C 875.833,406.333 875.167,406.667 874.5,407C 876.5,407.333 878.5,407.667 880.5,408C 879.833,408.333 879.167,408.667 878.5,409C 881.02,409.421 883.02,410.588 884.5,412.5C 871.304,433.684 852.637,447.684 828.5,454.5C 820.695,455.914 821.028,456.581 829.5,456.5C 833.447,456.637 837.114,455.97 840.5,454.5C 841.568,453.566 842.901,453.232 844.5,453.5C 849.289,453.346 853.622,452.013 857.5,449.5C 867.249,444.234 868.749,445.901 862,454.5C 845.896,475.781 825.063,490.114 799.5,497.5C 797.436,497.687 795.436,498.187 793.5,499C 797.689,499.812 801.689,499.645 805.5,498.5C 813.702,497.215 821.868,495.548 830,493.5C 830.5,493.833 831,494.167 831.5,494.5C 825.997,506.177 819.997,517.51 813.5,528.5C 811.473,528.662 809.473,528.495 807.5,528C 808.833,527.667 810.167,527.333 811.5,527C 808.167,526 804.833,525 801.5,524C 802.833,523.667 804.167,523.333 805.5,523C 803.5,522.667 801.5,522.333 799.5,522C 800.167,521.667 800.833,521.333 801.5,521C 798.833,520.667 796.167,520.333 793.5,520C 795.5,519.667 797.5,519.333 799.5,519C 796.042,518.403 792.709,517.403 789.5,516C 790.833,515.667 792.167,515.333 793.5,515C 791.5,514.667 789.5,514.333 787.5,514C 788.167,513.667 788.833,513.333 789.5,513C 786.833,512.667 784.167,512.333 781.5,512C 783.5,511.667 785.5,511.333 787.5,511C 784.167,510 780.833,509 777.5,508C 778.833,507.667 780.167,507.333 781.5,507C 779.5,506.667 777.5,506.333 775.5,506C 776.167,505.667 776.833,505.333 777.5,505C 774.833,504.667 772.167,504.333 769.5,504C 771.5,503.667 773.5,503.333 775.5,503C 772.042,502.403 768.709,501.403 765.5,500C 766.833,499.667 768.167,499.333 769.5,499C 767.5,498.667 765.5,498.333 763.5,498C 764.167,497.667 764.833,497.333 765.5,497C 762.833,496.667 760.167,496.333 757.5,496C 759.5,495.667 761.5,495.333 763.5,495C 760.042,494.403 756.709,493.403 753.5,492C 754.833,491.667 756.167,491.333 757.5,491C 755.5,490.667 753.5,490.333 751.5,490C 752.167,489.667 752.833,489.333 753.5,489C 750.833,488.667 748.167,488.333 745.5,488C 747.5,487.667 749.5,487.333 751.5,487C 748.042,486.403 744.709,485.403 741.5,484C 742.833,483.667 744.167,483.333 745.5,483C 740.069,482.885 736.069,481.885 733.5,480C 735.5,479.667 737.5,479.333 739.5,479C 736.042,478.403 732.709,477.403 729.5,476C 730.833,475.667 732.167,475.333 733.5,475C 731.5,474.667 729.5,474.333 727.5,474C 728.167,473.667 728.833,473.333 729.5,473C 726.833,472.667 724.167,472.333 721.5,472C 723.5,471.667 725.5,471.333 727.5,471C 724.042,470.403 720.709,469.403 717.5,468C 718.833,467.667 720.167,467.333 721.5,467C 718.635,466.817 715.969,466.317 713.5,465.5C 733.668,433.16 754.335,401.16 775.5,369.5 Z"/></g>
<g><path style="opacity:1" fill="#112f39" d="M 1520.5,637.5 C 1520.45,643.389 1521.12,649.056 1522.5,654.5C 1525.98,712.62 1515.14,767.953 1490,820.5C 1464.15,873.22 1431.15,920.887 1391,963.5C 1349.9,1007.13 1305.4,1046.46 1257.5,1081.5C 1255.97,1081.43 1254.97,1082.09 1254.5,1083.5C 1253.83,1084.83 1252.83,1085.83 1251.5,1086.5C 1249.97,1086.43 1248.97,1087.09 1248.5,1088.5C 1248.17,1089.5 1247.5,1090.17 1246.5,1090.5C 1244.25,1091.08 1242.58,1092.41 1241.5,1094.5C 1241.17,1095.5 1240.5,1096.17 1239.5,1096.5C 1236.24,1098.09 1233.57,1100.43 1231.5,1103.5C 1227.83,1107.83 1223.83,1111.83 1219.5,1115.5C 1217.74,1116.26 1216.74,1117.6 1216.5,1119.5C 1215.17,1121.5 1213.5,1123.17 1211.5,1124.5C 1210.09,1124.97 1209.43,1125.97 1209.5,1127.5C 1208.83,1128.83 1207.83,1129.83 1206.5,1130.5C 1205.09,1130.97 1204.43,1131.97 1204.5,1133.5C 1203.3,1135.91 1201.63,1137.91 1199.5,1139.5C 1198.09,1139.97 1197.43,1140.97 1197.5,1142.5C 1197.5,1143.17 1197.17,1143.5 1196.5,1143.5C 1195.09,1143.97 1194.43,1144.97 1194.5,1146.5C 1193.09,1146.97 1192.43,1147.97 1192.5,1149.5C 1191.53,1151.8 1190.19,1153.8 1188.5,1155.5C 1187.09,1155.97 1186.43,1156.97 1186.5,1158.5C 1181.5,1167.17 1176.5,1175.84 1171.5,1184.5C 1169.75,1185.66 1168.75,1187.33 1168.5,1189.5C 1167.67,1192.48 1166.34,1195.15 1164.5,1197.5C 1162.71,1199.43 1161.71,1201.76 1161.5,1204.5C 1151.63,1227.12 1142.96,1250.12 1135.5,1273.5C 1134.08,1275.51 1133.41,1277.85 1133.5,1280.5C 1127.97,1303.17 1122.97,1325.83 1118.5,1348.5C 1116.58,1354.9 1115.58,1361.57 1115.5,1368.5C 1115.24,1374.88 1114.58,1381.22 1113.5,1387.5C 1111.26,1397.57 1110.26,1407.9 1110.5,1418.5C 1108.87,1430.63 1108.2,1442.96 1108.5,1455.5C 1110.35,1472.16 1103.19,1482.16 1087,1485.5C 1050.85,1484.69 1014.68,1484.19 978.5,1484C 968.172,1477.85 963.172,1468.68 963.5,1456.5C 962.724,1448.72 960.724,1441.39 957.5,1434.5C 954.324,1427.66 951.324,1420.66 948.5,1413.5C 948.13,1410.73 946.796,1408.73 944.5,1407.5C 941.2,1402.52 937.867,1397.52 934.5,1392.5C 934.573,1390.97 933.906,1389.97 932.5,1389.5C 931.167,1388.83 930.167,1387.83 929.5,1386.5C 928.581,1383.91 926.914,1381.91 924.5,1380.5C 922.833,1379.5 921.5,1378.17 920.5,1376.5C 918.431,1373.43 915.764,1371.09 912.5,1369.5C 911.415,1367.41 909.749,1366.08 907.5,1365.5C 902.32,1362.41 897.32,1359.08 892.5,1355.5C 892.027,1354.09 891.027,1353.43 889.5,1353.5C 882.976,1350.74 876.643,1347.74 870.5,1344.5C 865.915,1341.86 860.915,1340.19 855.5,1339.5C 852.572,1339.43 849.905,1338.77 847.5,1337.5C 843.79,1335.86 839.79,1335.2 835.5,1335.5C 822.499,1334.2 809.499,1334.2 796.5,1335.5C 788.07,1335.61 780.07,1337.28 772.5,1340.5C 770.786,1341.74 768.786,1342.41 766.5,1342.5C 763.351,1342.42 760.684,1343.42 758.5,1345.5C 751.872,1348.81 745.205,1352.15 738.5,1355.5C 736.973,1355.43 735.973,1356.09 735.5,1357.5C 730.36,1360.91 725.36,1364.58 720.5,1368.5C 718.596,1368.74 717.262,1369.74 716.5,1371.5C 715.833,1372.83 714.833,1373.83 713.5,1374.5C 710.167,1375.83 707.833,1378.17 706.5,1381.5C 705.833,1382.83 704.833,1383.83 703.5,1384.5C 700.757,1386.24 698.757,1388.57 697.5,1391.5C 695.738,1392.26 694.738,1393.6 694.5,1395.5C 693.094,1395.97 692.427,1396.97 692.5,1398.5C 692.5,1399.17 692.167,1399.5 691.5,1399.5C 689.75,1400.66 688.75,1402.33 688.5,1404.5C 687.094,1404.97 686.427,1405.97 686.5,1407.5C 686.672,1408.49 686.338,1409.16 685.5,1409.5C 684.094,1409.97 683.427,1410.97 683.5,1412.5C 680.462,1419.24 677.462,1425.9 674.5,1432.5C 670.628,1440.65 668.295,1449.31 667.5,1458.5C 667.533,1470.94 661.866,1479.44 650.5,1484C 631.593,1484.17 612.76,1484.67 594,1485.5C 575.24,1484.67 556.407,1484.17 537.5,1484C 532.14,1481.64 527.64,1478.14 524,1473.5C 522.241,1470.39 521.408,1467.06 521.5,1463.5C 521.375,1458.21 520.375,1453.21 518.5,1448.5C 515.994,1441.65 513.66,1434.65 511.5,1427.5C 511.293,1424.76 510.293,1422.43 508.5,1420.5C 506.326,1417.48 504.659,1414.15 503.5,1410.5C 503.573,1408.97 502.906,1407.97 501.5,1407.5C 500.662,1407.16 500.328,1406.49 500.5,1405.5C 500.573,1403.97 499.906,1402.97 498.5,1402.5C 498.573,1400.97 497.906,1399.97 496.5,1399.5C 496.573,1397.97 495.906,1396.97 494.5,1396.5C 493.026,1395.56 492.026,1394.23 491.5,1392.5C 491.573,1390.97 490.906,1389.97 489.5,1389.5C 488.5,1389.17 487.833,1388.5 487.5,1387.5C 487.573,1385.97 486.906,1384.97 485.5,1384.5C 482.167,1381.83 479.167,1378.83 476.5,1375.5C 474.431,1372.43 471.764,1370.09 468.5,1368.5C 467.415,1366.41 465.749,1365.08 463.5,1364.5C 459.223,1362.22 455.223,1359.55 451.5,1356.5C 451.027,1355.09 450.027,1354.43 448.5,1354.5C 446.181,1354.01 444.181,1353.01 442.5,1351.5C 442.027,1350.09 441.027,1349.43 439.5,1349.5C 437.824,1347.17 435.491,1346.17 432.5,1346.5C 431.508,1346.67 430.842,1346.34 430.5,1345.5C 428.497,1343.02 425.831,1342.02 422.5,1342.5C 418.622,1339.99 414.289,1338.65 409.5,1338.5C 402.358,1337.26 395.358,1335.92 388.5,1334.5C 377.674,1333.34 366.674,1333.17 355.5,1334C 353.618,1334.2 351.952,1334.7 350.5,1335.5C 350.167,1335.5 349.833,1335.5 349.5,1335.5C 344.5,1335.5 339.833,1336.5 335.5,1338.5C 335.167,1338.5 334.833,1338.5 334.5,1338.5C 331.848,1338.41 329.515,1339.08 327.5,1340.5C 321.576,1342.81 315.576,1345.15 309.5,1347.5C 306.911,1347.46 304.911,1348.46 303.5,1350.5C 297.522,1354.13 291.522,1357.8 285.5,1361.5C 283.973,1361.43 282.973,1362.09 282.5,1363.5C 282.5,1364.17 282.167,1364.5 281.5,1364.5C 279.973,1364.43 278.973,1365.09 278.5,1366.5C 278.167,1367.5 277.5,1368.17 276.5,1368.5C 274.251,1369.08 272.585,1370.41 271.5,1372.5C 268.5,1376.17 265.167,1379.5 261.5,1382.5C 259.738,1383.26 258.738,1384.6 258.5,1386.5C 257.833,1387.83 256.833,1388.83 255.5,1389.5C 253.738,1390.26 252.738,1391.6 252.5,1393.5C 252.5,1394.17 252.167,1394.5 251.5,1394.5C 250.094,1394.97 249.427,1395.97 249.5,1397.5C 248.094,1397.97 247.427,1398.97 247.5,1400.5C 246.094,1400.97 245.427,1401.97 245.5,1403.5C 244.094,1403.97 243.427,1404.97 243.5,1406.5C 243.672,1407.49 243.338,1408.16 242.5,1408.5C 241.094,1408.97 240.427,1409.97 240.5,1411.5C 238.461,1412.91 237.461,1414.91 237.5,1417.5C 233.946,1426.17 230.613,1434.84 227.5,1443.5C 225.037,1449.13 223.704,1455.13 223.5,1461.5C 223.029,1472.47 217.696,1479.97 207.5,1484C 168.833,1484.67 130.167,1484.67 91.5,1484C 84.4269,1481.93 79.5936,1477.43 77,1470.5C 54.6819,1362.43 55.0152,1254.43 78,1146.5C 80.0592,1137.25 82.5592,1128.25 85.5,1119.5C 86.9238,1117.49 87.5905,1115.15 87.5,1112.5C 89.6098,1108.5 90.9431,1104.16 91.5,1099.5C 110.572,1035.69 139.905,977.355 179.5,924.5C 181.587,923.415 182.92,921.749 183.5,919.5C 183.738,917.596 184.738,916.262 186.5,915.5C 188.587,914.415 189.92,912.749 190.5,910.5C 205.159,891.663 221.159,873.83 238.5,857C 252.203,844.295 266.203,831.961 280.5,820C 285.922,815.539 291.755,811.706 298,808.5C 299.261,808.759 300.261,809.426 301,810.5C 327.363,855.229 353.196,900.229 378.5,945.5C 378.427,947.027 379.094,948.027 380.5,948.5C 381.338,948.842 381.672,949.508 381.5,950.5C 381.427,952.027 382.094,953.027 383.5,953.5C 384.674,954.514 385.34,955.847 385.5,957.5C 385.427,959.027 386.094,960.027 387.5,960.5C 388.338,960.842 388.672,961.508 388.5,962.5C 388.427,964.027 389.094,965.027 390.5,965.5C 391.338,965.842 391.672,966.508 391.5,967.5C 391.427,969.027 392.094,970.027 393.5,970.5C 395.218,972.223 396.551,974.223 397.5,976.5C 398.757,979.427 400.757,981.761 403.5,983.5C 405.833,987.833 409.167,991.167 413.5,993.5C 414.585,995.587 416.251,996.92 418.5,997.5C 419.167,997.5 419.5,997.833 419.5,998.5C 419.973,999.906 420.973,1000.57 422.5,1000.5C 424.23,1001.03 425.564,1002.03 426.5,1003.5C 426.973,1004.91 427.973,1005.57 429.5,1005.5C 430.492,1005.33 431.158,1005.66 431.5,1006.5C 431.973,1007.91 432.973,1008.57 434.5,1008.5C 447.209,1014.96 460.543,1019.63 474.5,1022.5C 480.419,1024.04 486.586,1024.71 493,1024.5C 497.68,1024.5 502.18,1024.17 506.5,1023.5C 510.639,1022.44 514.972,1021.77 519.5,1021.5C 524.622,1021.39 529.288,1020.06 533.5,1017.5C 540.089,1014.52 546.756,1011.52 553.5,1008.5C 556.331,1007.92 558.664,1006.59 560.5,1004.5C 576.104,995.694 591.771,986.861 607.5,978C 622.833,967.667 638.167,957.333 653.5,947C 668.559,935.815 683.559,924.648 698.5,913.5C 700.749,912.92 702.415,911.587 703.5,909.5C 706.089,908.581 708.089,906.914 709.5,904.5C 715.554,898.113 722.221,892.446 729.5,887.5C 734.167,884.833 737.833,881.167 740.5,876.5C 741.758,874.313 742.758,871.98 743.5,869.5C 744.643,866.024 744.81,862.358 744,858.5C 743.8,856.68 742.966,855.347 741.5,854.5C 740.662,854.158 740.328,853.492 740.5,852.5C 739.5,849.5 737.5,847.5 734.5,846.5C 732.847,846.34 731.514,845.674 730.5,844.5C 723.287,840.525 715.954,840.692 708.5,845C 707.619,845.708 706.953,846.542 706.5,847.5C 706.5,848.167 706.167,848.5 705.5,848.5C 703.596,848.738 702.262,849.738 701.5,851.5C 646.479,900.981 585.812,942.481 519.5,976C 487.111,986.402 459.111,979.569 435.5,955.5C 433.13,952.14 430.797,948.807 428.5,945.5C 393.602,886.719 359.435,827.386 326,767.5C 321.578,753.748 320.411,739.748 322.5,725.5C 323.924,723.485 324.59,721.152 324.5,718.5C 328.412,702.853 336.746,690.02 349.5,680C 372.129,666.686 395.796,655.519 420.5,646.5C 422.858,646.747 424.858,646.081 426.5,644.5C 441.943,638.241 457.609,632.574 473.5,627.5C 476.67,626.735 479.67,625.735 482.5,624.5C 502.551,618.256 522.884,613.089 543.5,609C 544.066,608.005 544.733,607.172 545.5,606.5C 545.917,607.124 546.584,607.457 547.5,607.5C 550.519,606.83 553.519,606.163 556.5,605.5C 560.387,605.354 564.054,604.687 567.5,603.5C 584.746,600.608 602.079,598.274 619.5,596.5C 621.785,596.324 623.785,595.657 625.5,594.5C 629.065,595.787 632.732,595.787 636.5,594.5C 674.582,592.618 712.582,593.618 750.5,597.5C 755.186,598.037 759.853,598.704 764.5,599.5C 767.43,600.299 770.43,600.632 773.5,600.5C 825.37,608.218 875.703,621.718 924.5,641C 984.374,665.271 1042.71,692.771 1099.5,723.5C 1102.91,726.54 1106.91,728.54 1111.5,729.5C 1132.45,739.478 1153.45,749.144 1174.5,758.5C 1176.79,760.267 1179.46,761.267 1182.5,761.5C 1185.78,761.928 1188.78,762.928 1191.5,764.5C 1195.08,766.806 1199.08,768.139 1203.5,768.5C 1205.51,769.924 1207.85,770.59 1210.5,770.5C 1213.43,770.565 1216.09,771.232 1218.5,772.5C 1237.89,778.407 1257.56,779.741 1277.5,776.5C 1291.48,774.175 1304.81,769.841 1317.5,763.5C 1319.67,763.25 1321.34,762.25 1322.5,760.5C 1322.84,759.662 1323.51,759.328 1324.5,759.5C 1326.03,759.573 1327.03,758.906 1327.5,757.5C 1327.97,756.094 1328.97,755.427 1330.5,755.5C 1333.89,754.471 1336.56,752.471 1338.5,749.5C 1339.58,747.413 1341.25,746.08 1343.5,745.5C 1348.83,742.167 1353.17,737.833 1356.5,732.5C 1356.83,731.5 1357.5,730.833 1358.5,730.5C 1360.91,729.089 1362.58,727.089 1363.5,724.5C 1365.34,720.808 1367.68,717.475 1370.5,714.5C 1372.25,713.341 1373.25,711.674 1373.5,709.5C 1374.99,705.182 1376.99,701.182 1379.5,697.5C 1381.83,695.824 1382.83,693.491 1382.5,690.5C 1383.12,690.389 1383.62,690.056 1384,689.5C 1385.15,685.888 1385.98,682.222 1386.5,678.5C 1387.94,670.846 1389.28,663.179 1390.5,655.5C 1391.66,646.343 1391.82,637.009 1391,627.5C 1390.85,623.867 1390.02,620.534 1388.5,617.5C 1388.5,617.167 1388.5,616.833 1388.5,616.5C 1388.42,612.163 1387.42,608.163 1385.5,604.5C 1383.79,601.05 1382.46,597.383 1381.5,593.5C 1381.29,590.759 1380.29,588.426 1378.5,586.5C 1377.33,585.486 1376.66,584.153 1376.5,582.5C 1376.25,580.326 1375.25,578.659 1373.5,577.5C 1372.66,577.158 1372.33,576.492 1372.5,575.5C 1372.57,573.973 1371.91,572.973 1370.5,572.5C 1367.6,569.048 1364.93,565.382 1362.5,561.5C 1362.57,559.973 1361.91,558.973 1360.5,558.5C 1359.17,557.833 1358.17,556.833 1357.5,555.5C 1354.5,550.5 1350.5,546.5 1345.5,543.5C 1344.09,541.086 1342.09,539.419 1339.5,538.5C 1336.88,537.214 1334.55,535.547 1332.5,533.5C 1332.03,532.094 1331.03,531.427 1329.5,531.5C 1322.47,527.319 1315.14,523.653 1307.5,520.5C 1300.78,516.646 1293.45,514.312 1285.5,513.5C 1279.65,513.184 1273.98,512.518 1268.5,511.5C 1260.68,510.344 1252.68,510.177 1244.5,511C 1240.23,511.189 1236.23,512.023 1232.5,513.5C 1229.5,513.294 1226.84,513.96 1224.5,515.5C 1221.38,516.87 1218.05,517.87 1214.5,518.5C 1212.45,518.402 1210.78,519.069 1209.5,520.5C 1207.45,520.402 1205.78,521.069 1204.5,522.5C 1203.49,523.674 1202.15,524.34 1200.5,524.5C 1198.62,524.229 1197.29,524.896 1196.5,526.5C 1194.82,528.008 1192.82,529.008 1190.5,529.5C 1188.97,529.427 1187.97,530.094 1187.5,531.5C 1181.44,537.529 1174.11,540.862 1165.5,541.5C 1162.08,541.518 1158.74,541.018 1155.5,540C 1151,536.664 1147,532.831 1143.5,528.5C 1142.17,526.5 1140.5,524.833 1138.5,523.5C 1129.76,516.257 1122.26,507.923 1116,498.5C 1113.32,490.302 1114.32,482.635 1119,475.5C 1154.26,441.122 1196.42,420.456 1245.5,413.5C 1251.05,413.473 1256.38,412.806 1261.5,411.5C 1351.24,407.459 1422.08,441.792 1474,514.5C 1499,551.852 1514.5,592.852 1520.5,637.5 Z M 1028.5,820.5 C 1059.83,818.678 1077.83,833.178 1082.5,864C 1081.65,878.532 1075.65,890.365 1064.5,899.5C 1041.17,887.833 1017.83,876.167 994.5,864.5C 994.274,847.79 1001.27,834.956 1015.5,826C 1019.9,824.041 1024.24,822.208 1028.5,820.5 Z"/></g>
<g><path style="opacity:1" fill="#72838a" d="M 1261.5,411.5 C 1256.38,412.806 1251.05,413.473 1245.5,413.5C 1250.6,412.043 1255.93,411.376 1261.5,411.5 Z"/></g>
<g><path style="opacity:1" fill="#b33443" d="M 649.5,420.5 C 650.23,422.045 651.563,422.878 653.5,423C 652.167,423.333 650.833,423.667 649.5,424C 652.833,425 656.167,426 659.5,427C 658.167,427.333 656.833,427.667 655.5,428C 658.958,428.597 662.291,429.597 665.5,431C 664.167,431.333 662.833,431.667 661.5,432C 664.069,433.885 668.069,434.885 673.5,435C 671.5,435.333 669.5,435.667 667.5,436C 670.958,436.597 674.291,437.597 677.5,439C 676.167,439.333 674.833,439.667 673.5,440C 676.069,441.885 680.069,442.885 685.5,443C 684.167,443.333 682.833,443.667 681.5,444C 684.167,445 686.833,446 689.5,447C 688.167,447.333 686.833,447.667 685.5,448C 688.069,449.885 692.069,450.885 697.5,451C 696.167,451.333 694.833,451.667 693.5,452C 696.709,453.403 700.042,454.403 703.5,455C 701.5,455.333 699.5,455.667 697.5,456C 700.809,457.142 704.142,457.975 707.5,458.5C 697.5,474.5 687.5,490.5 677.5,506.5C 674.526,506.8 671.526,506.3 668.5,505C 669.833,504.667 671.167,504.333 672.5,504C 669.167,503.667 665.833,503.333 662.5,503C 667.833,502.333 667.833,501.667 662.5,501C 663.167,500.667 663.833,500.333 664.5,500C 662.5,499.667 660.5,499.333 658.5,499C 661.167,498.333 661.167,497.667 658.5,497C 659.167,496.667 659.833,496.333 660.5,496C 657.167,495.667 653.833,495.333 650.5,495C 655.833,494.333 655.833,493.667 650.5,493C 651.167,492.667 651.833,492.333 652.5,492C 650.5,491.667 648.5,491.333 646.5,491C 647.167,490.667 647.833,490.333 648.5,490C 643.167,489.333 643.167,488.667 648.5,488C 645.167,487.667 641.833,487.333 638.5,487C 643.833,486.333 643.833,485.667 638.5,485C 639.167,484.667 639.833,484.333 640.5,484C 638.5,483.667 636.5,483.333 634.5,483C 635.167,482.667 635.833,482.333 636.5,482C 631.167,481.333 631.167,480.667 636.5,480C 633.167,479.667 629.833,479.333 626.5,479C 627.833,478.667 629.167,478.333 630.5,478C 627.167,476.333 623.833,474.667 620.5,473C 625.508,472.131 625.175,471.464 619.5,471C 620.464,469.275 621.131,467.441 621.5,465.5C 624.743,459.074 628.243,452.74 632,446.5C 637.609,437.595 643.442,428.928 649.5,420.5 Z"/></g>
<g><path style="opacity:1" fill="#e8b3b3" d="M 857.5,449.5 C 853.622,452.013 849.289,453.346 844.5,453.5C 848.617,451.796 852.951,450.463 857.5,449.5 Z"/></g>
<g><path style="opacity:1" fill="#e5abad" d="M 828.5,454.5 C 832.333,455.405 836.333,455.405 840.5,454.5C 837.114,455.97 833.447,456.637 829.5,456.5C 821.028,456.581 820.695,455.914 828.5,454.5 Z"/></g>
<g><path style="opacity:1" fill="#ac334a" d="M 621.5,465.5 C 621.131,467.441 620.464,469.275 619.5,471C 625.175,471.464 625.508,472.131 620.5,473C 623.833,474.667 627.167,476.333 630.5,478C 629.167,478.333 627.833,478.667 626.5,479C 629.833,479.333 633.167,479.667 636.5,480C 631.167,480.667 631.167,481.333 636.5,482C 635.833,482.333 635.167,482.667 634.5,483C 636.5,483.333 638.5,483.667 640.5,484C 639.833,484.333 639.167,484.667 638.5,485C 643.833,485.667 643.833,486.333 638.5,487C 641.833,487.333 645.167,487.667 648.5,488C 643.167,488.667 643.167,489.333 648.5,490C 647.833,490.333 647.167,490.667 646.5,491C 648.5,491.333 650.5,491.667 652.5,492C 651.833,492.333 651.167,492.667 650.5,493C 655.833,493.667 655.833,494.333 650.5,495C 653.833,495.333 657.167,495.667 660.5,496C 659.833,496.333 659.167,496.667 658.5,497C 661.167,497.667 661.167,498.333 658.5,499C 660.5,499.333 662.5,499.667 664.5,500C 663.833,500.333 663.167,500.667 662.5,501C 667.833,501.667 667.833,502.333 662.5,503C 665.833,503.333 669.167,503.667 672.5,504C 671.167,504.333 669.833,504.667 668.5,505C 671.526,506.3 674.526,506.8 677.5,506.5C 669.737,519.703 661.737,532.703 653.5,545.5C 650.402,545.587 650.068,545.087 652.5,544C 650.5,543.667 648.5,543.333 646.5,543C 647.167,542.667 647.833,542.333 648.5,542C 647.167,541.667 645.833,541.333 644.5,541C 645.167,540.667 645.833,540.333 646.5,540C 643.833,539.667 641.167,539.333 638.5,539C 643.833,538.333 643.833,537.667 638.5,537C 639.167,536.667 639.833,536.333 640.5,536C 637.167,535 633.833,534 630.5,533C 631.833,532.667 633.167,532.333 634.5,532C 631.833,531.667 629.167,531.333 626.5,531C 631.833,530.333 631.833,529.667 626.5,529C 627.167,528.667 627.833,528.333 628.5,528C 626.5,527.667 624.5,527.333 622.5,527C 623.167,526.667 623.833,526.333 624.5,526C 623.167,525.667 621.833,525.333 620.5,525C 621.167,524.667 621.833,524.333 622.5,524C 619.833,523.667 617.167,523.333 614.5,523C 619.833,522.333 619.833,521.667 614.5,521C 615.167,520.667 615.833,520.333 616.5,520C 613.167,519 609.833,518 606.5,517C 607.833,516.667 609.167,516.333 610.5,516C 607.833,515.667 605.167,515.333 602.5,515C 603.833,514.667 605.167,514.333 606.5,514C 604.771,512.21 601.771,510.71 597.5,509.5C 604.487,494.185 612.487,479.519 621.5,465.5 Z"/></g>
<g><path style="opacity:1" fill="#b33342" d="M 713.5,465.5 C 715.969,466.317 718.635,466.817 721.5,467C 720.167,467.333 718.833,467.667 717.5,468C 720.709,469.403 724.042,470.403 727.5,471C 725.5,471.333 723.5,471.667 721.5,472C 724.167,472.333 726.833,472.667 729.5,473C 728.833,473.333 728.167,473.667 727.5,474C 729.5,474.333 731.5,474.667 733.5,475C 732.167,475.333 730.833,475.667 729.5,476C 732.709,477.403 736.042,478.403 739.5,479C 737.5,479.333 735.5,479.667 733.5,480C 736.069,481.885 740.069,482.885 745.5,483C 744.167,483.333 742.833,483.667 741.5,484C 744.709,485.403 748.042,486.403 751.5,487C 749.5,487.333 747.5,487.667 745.5,488C 748.167,488.333 750.833,488.667 753.5,489C 752.833,489.333 752.167,489.667 751.5,490C 753.5,490.333 755.5,490.667 757.5,491C 756.167,491.333 754.833,491.667 753.5,492C 756.709,493.403 760.042,494.403 763.5,495C 761.5,495.333 759.5,495.667 757.5,496C 760.167,496.333 762.833,496.667 765.5,497C 764.833,497.333 764.167,497.667 763.5,498C 765.5,498.333 767.5,498.667 769.5,499C 768.167,499.333 766.833,499.667 765.5,500C 768.709,501.403 772.042,502.403 775.5,503C 773.5,503.333 771.5,503.667 769.5,504C 772.167,504.333 774.833,504.667 777.5,505C 776.833,505.333 776.167,505.667 775.5,506C 777.5,506.333 779.5,506.667 781.5,507C 780.167,507.333 778.833,507.667 777.5,508C 780.833,509 784.167,510 787.5,511C 785.5,511.333 783.5,511.667 781.5,512C 784.167,512.333 786.833,512.667 789.5,513C 788.833,513.333 788.167,513.667 787.5,514C 789.5,514.333 791.5,514.667 793.5,515C 792.167,515.333 790.833,515.667 789.5,516C 792.709,517.403 796.042,518.403 799.5,519C 797.5,519.333 795.5,519.667 793.5,520C 796.167,520.333 798.833,520.667 801.5,521C 800.833,521.333 800.167,521.667 799.5,522C 801.5,522.333 803.5,522.667 805.5,523C 804.167,523.333 802.833,523.667 801.5,524C 804.833,525 808.167,526 811.5,527C 810.167,527.333 808.833,527.667 807.5,528C 809.473,528.495 811.473,528.662 813.5,528.5C 806.486,541.878 798.486,554.545 789.5,566.5C 787.537,565.04 785.704,563.373 784,561.5C 783.667,561.833 783.333,562.167 783,562.5C 782.333,561.167 781.667,559.833 781,558.5C 779.667,558.5 778.333,558.5 777,558.5C 775.333,556.833 773.667,555.167 772,553.5C 771.667,553.833 771.333,554.167 771,554.5C 770.333,553.167 769.667,551.833 769,550.5C 767.667,550.5 766.333,550.5 765,550.5C 763.333,548.833 761.667,547.167 760,545.5C 759.667,545.833 759.333,546.167 759,546.5C 753.333,542.167 747.667,537.833 742,533.5C 741.667,533.833 741.333,534.167 741,534.5C 739.333,532.833 737.667,531.167 736,529.5C 735.667,529.833 735.333,530.167 735,530.5C 733.333,528.833 731.667,527.167 730,525.5C 729.667,525.833 729.333,526.167 729,526.5C 727.333,524.833 725.667,523.167 724,521.5C 723.667,521.833 723.333,522.167 723,522.5C 721.333,520.833 719.667,519.167 718,517.5C 717,517.833 716,518.167 715,518.5C 715.178,516.56 714.178,514.893 712,513.5C 711.667,513.833 711.333,514.167 711,514.5C 709.333,512.833 707.667,511.167 706,509.5C 705.667,509.833 705.333,510.167 705,510.5C 703.333,508.833 701.667,507.167 700,505.5C 699.667,505.833 699.333,506.167 699,506.5C 696.913,503.468 694.413,501.801 691.5,501.5C 698.335,489.158 705.668,477.158 713.5,465.5 Z"/></g>
<g><path style="opacity:0.031" fill="#e6b7b9" d="M 799.5,497.5 C 801.265,498.461 803.265,498.795 805.5,498.5C 801.689,499.645 797.689,499.812 793.5,499C 795.436,498.187 797.436,497.687 799.5,497.5 Z"/></g>
<g><path style="opacity:1" fill="#a6314f" d="M 597.5,509.5 C 601.771,510.71 604.771,512.21 606.5,514C 605.167,514.333 603.833,514.667 602.5,515C 605.167,515.333 607.833,515.667 610.5,516C 609.167,516.333 607.833,516.667 606.5,517C 609.833,518 613.167,519 616.5,520C 615.833,520.333 615.167,520.667 614.5,521C 619.833,521.667 619.833,522.333 614.5,523C 617.167,523.333 619.833,523.667 622.5,524C 621.833,524.333 621.167,524.667 620.5,525C 621.833,525.333 623.167,525.667 624.5,526C 623.833,526.333 623.167,526.667 622.5,527C 624.5,527.333 626.5,527.667 628.5,528C 627.833,528.333 627.167,528.667 626.5,529C 631.833,529.667 631.833,530.333 626.5,531C 629.167,531.333 631.833,531.667 634.5,532C 633.167,532.333 631.833,532.667 630.5,533C 633.833,534 637.167,535 640.5,536C 639.833,536.333 639.167,536.667 638.5,537C 643.833,537.667 643.833,538.333 638.5,539C 641.167,539.333 643.833,539.667 646.5,540C 645.833,540.333 645.167,540.667 644.5,541C 645.833,541.333 647.167,541.667 648.5,542C 647.833,542.333 647.167,542.667 646.5,543C 648.5,543.333 650.5,543.667 652.5,544C 650.068,545.087 650.402,545.587 653.5,545.5C 645.861,558.816 638.194,572.15 630.5,585.5C 627.944,584.457 625.777,582.79 624,580.5C 622.636,581.258 621.469,580.758 620.5,579C 620.833,578.667 621.167,578.333 621.5,578C 620.234,577.691 619.067,577.191 618,576.5C 617.667,576.833 617.333,577.167 617,577.5C 614.822,576.107 613.822,574.44 614,572.5C 612.667,572.5 611.333,572.5 610,572.5C 608.513,571.747 608.346,570.914 609.5,570C 608.234,569.691 607.067,569.191 606,568.5C 605.667,568.833 605.333,569.167 605,569.5C 603.333,567.833 601.667,566.167 600,564.5C 598.636,565.258 597.469,564.758 596.5,563C 596.833,562.667 597.167,562.333 597.5,562C 596.234,561.691 595.067,561.191 594,560.5C 593.667,560.833 593.333,561.167 593,561.5C 591.333,559.833 589.667,558.167 588,556.5C 586.636,557.258 585.469,556.758 584.5,555C 584.833,554.667 585.167,554.333 585.5,554C 580.379,552.577 580.379,551.577 585.5,551C 584.062,550.781 582.729,550.281 581.5,549.5C 581.611,547.891 581.278,546.225 580.5,544.5C 585.386,532.397 591.052,520.73 597.5,509.5 Z"/></g>
<g><path style="opacity:0.039" fill="#bfc7ca" d="M 1268.5,511.5 C 1256.45,511.369 1244.45,512.036 1232.5,513.5C 1236.23,512.023 1240.23,511.189 1244.5,511C 1252.68,510.177 1260.68,510.344 1268.5,511.5 Z"/></g>
<g><path style="opacity:1" fill="#aab5b8" d="M 1285.5,513.5 C 1293.45,514.312 1300.78,516.646 1307.5,520.5C 1300.07,518.148 1292.73,515.815 1285.5,513.5 Z"/></g>
<g><path style="opacity:0.031" fill="#dfe3e4" d="M 1232.5,513.5 C 1230.09,514.768 1227.43,515.435 1224.5,515.5C 1226.84,513.96 1229.5,513.294 1232.5,513.5 Z"/></g>
<g><path style="opacity:1" fill="#ad3248" d="M 691.5,501.5 C 694.413,501.801 696.913,503.468 699,506.5C 699.333,506.167 699.667,505.833 700,505.5C 701.667,507.167 703.333,508.833 705,510.5C 705.333,510.167 705.667,509.833 706,509.5C 707.667,511.167 709.333,512.833 711,514.5C 711.333,514.167 711.667,513.833 712,513.5C 714.178,514.893 715.178,516.56 715,518.5C 716,518.167 717,517.833 718,517.5C 719.667,519.167 721.333,520.833 723,522.5C 723.333,522.167 723.667,521.833 724,521.5C 725.667,523.167 727.333,524.833 729,526.5C 729.333,526.167 729.667,525.833 730,525.5C 731.667,527.167 733.333,528.833 735,530.5C 735.333,530.167 735.667,529.833 736,529.5C 737.667,531.167 739.333,532.833 741,534.5C 741.333,534.167 741.667,533.833 742,533.5C 747.667,537.833 753.333,542.167 759,546.5C 759.333,546.167 759.667,545.833 760,545.5C 761.667,547.167 763.333,548.833 765,550.5C 766.333,550.5 767.667,550.5 769,550.5C 769.667,551.833 770.333,553.167 771,554.5C 771.333,554.167 771.667,553.833 772,553.5C 773.667,555.167 775.333,556.833 777,558.5C 778.333,558.5 779.667,558.5 781,558.5C 781.667,559.833 782.333,561.167 783,562.5C 783.333,562.167 783.667,561.833 784,561.5C 785.704,563.373 787.537,565.04 789.5,566.5C 782.653,576.864 775.319,586.864 767.5,596.5C 766.167,597.167 765.167,598.167 764.5,599.5C 759.853,598.704 755.186,598.037 750.5,597.5C 749.048,596.698 747.382,596.198 745.5,596C 746.833,595.667 748.167,595.333 749.5,595C 747.5,594.667 745.5,594.333 743.5,594C 744.167,593.667 744.833,593.333 745.5,593C 742.833,592.667 740.167,592.333 737.5,592C 739.5,591.667 741.5,591.333 743.5,591C 740.042,590.403 736.709,589.403 733.5,588C 734.833,587.667 736.167,587.333 737.5,587C 734.931,585.115 730.931,584.115 725.5,584C 727.5,583.667 729.5,583.333 731.5,583C 728.167,582 724.833,581 721.5,580C 722.833,579.667 724.167,579.333 725.5,579C 722.931,577.115 718.931,576.115 713.5,576C 715.5,575.667 717.5,575.333 719.5,575C 716.042,574.403 712.709,573.403 709.5,572C 710.833,571.667 712.167,571.333 713.5,571C 710.931,569.115 706.931,568.115 701.5,568C 703.5,567.667 705.5,567.333 707.5,567C 704.042,566.403 700.709,565.403 697.5,564C 698.833,563.667 700.167,563.333 701.5,563C 698.931,561.115 694.931,560.115 689.5,560C 691.5,559.667 693.5,559.333 695.5,559C 692.042,558.403 688.709,557.403 685.5,556C 686.833,555.667 688.167,555.333 689.5,555C 684.069,554.885 680.069,553.885 677.5,552C 679.5,551.667 681.5,551.333 683.5,551C 680.042,550.403 676.709,549.403 673.5,548C 674.833,547.667 676.167,547.333 677.5,547C 674.833,546.667 672.167,546.333 669.5,546C 670.167,545.667 670.833,545.333 671.5,545C 664.833,544.333 664.833,543.667 671.5,543C 669.942,542.79 668.609,542.29 667.5,541.5C 675,527.827 683,514.494 691.5,501.5 Z"/></g>
<g><path style="opacity:0.118" fill="#cfd5d6" d="M 1214.5,518.5 C 1213.22,519.931 1211.55,520.598 1209.5,520.5C 1210.78,519.069 1212.45,518.402 1214.5,518.5 Z"/></g>
<g><path style="opacity:0.137" fill="#d0d5d9" d="M 1209.5,520.5 C 1208.22,521.931 1206.55,522.598 1204.5,522.5C 1205.78,521.069 1207.45,520.402 1209.5,520.5 Z"/></g>
<g><path style="opacity:0.004" fill="#bfc7ca" d="M 1138.5,523.5 C 1140.5,524.833 1142.17,526.5 1143.5,528.5C 1140.83,527.833 1139.17,526.167 1138.5,523.5 Z"/></g>
<g><path style="opacity:0.016" fill="#dadee0" d="M 1200.5,524.5 C 1199.49,525.674 1198.15,526.34 1196.5,526.5C 1197.29,524.896 1198.62,524.229 1200.5,524.5 Z"/></g>
<g><path style="opacity:0.008" fill="#d5dadc" d="M 1190.5,529.5 C 1190.03,530.906 1189.03,531.573 1187.5,531.5C 1187.97,530.094 1188.97,529.427 1190.5,529.5 Z"/></g>
<g><path style="opacity:0.345" fill="#cfd6d7" d="M 1329.5,531.5 C 1331.03,531.427 1332.03,532.094 1332.5,533.5C 1330.97,533.573 1329.97,532.906 1329.5,531.5 Z"/></g>
<g><path style="opacity:1" fill="#c0c7ca" d="M 1339.5,538.5 C 1342.09,539.419 1344.09,541.086 1345.5,543.5C 1342.91,542.581 1340.91,540.914 1339.5,538.5 Z"/></g>
<g><path style="opacity:1" fill="#adb7ba" d="M 1345.5,543.5 C 1350.5,546.5 1354.5,550.5 1357.5,555.5C 1353.17,551.833 1349.17,547.833 1345.5,543.5 Z"/></g>
<g><path style="opacity:1" fill="#a03156" d="M 580.5,544.5 C 581.278,546.225 581.611,547.891 581.5,549.5C 582.729,550.281 584.062,550.781 585.5,551C 580.379,551.577 580.379,552.577 585.5,554C 585.167,554.333 584.833,554.667 584.5,555C 585.469,556.758 586.636,557.258 588,556.5C 589.667,558.167 591.333,559.833 593,561.5C 593.333,561.167 593.667,560.833 594,560.5C 595.067,561.191 596.234,561.691 597.5,562C 597.167,562.333 596.833,562.667 596.5,563C 597.469,564.758 598.636,565.258 600,564.5C 601.667,566.167 603.333,567.833 605,569.5C 605.333,569.167 605.667,568.833 606,568.5C 607.067,569.191 608.234,569.691 609.5,570C 608.346,570.914 608.513,571.747 610,572.5C 611.333,572.5 612.667,572.5 614,572.5C 613.822,574.44 614.822,576.107 617,577.5C 617.333,577.167 617.667,576.833 618,576.5C 619.067,577.191 620.234,577.691 621.5,578C 621.167,578.333 620.833,578.667 620.5,579C 621.469,580.758 622.636,581.258 624,580.5C 625.777,582.79 627.944,584.457 630.5,585.5C 628.58,588.339 626.913,591.339 625.5,594.5C 623.785,595.657 621.785,596.324 619.5,596.5C 602.079,598.274 584.746,600.608 567.5,603.5C 566.5,603.5 565.5,603.5 564.5,603.5C 564.289,599.818 562.956,596.818 560.5,594.5C 566.094,577.326 572.761,560.659 580.5,544.5 Z"/></g>
<g><path style="opacity:1" fill="#a6304d" d="M 667.5,541.5 C 668.609,542.29 669.942,542.79 671.5,543C 664.833,543.667 664.833,544.333 671.5,545C 670.833,545.333 670.167,545.667 669.5,546C 672.167,546.333 674.833,546.667 677.5,547C 676.167,547.333 674.833,547.667 673.5,548C 676.709,549.403 680.042,550.403 683.5,551C 681.5,551.333 679.5,551.667 677.5,552C 680.069,553.885 684.069,554.885 689.5,555C 688.167,555.333 686.833,555.667 685.5,556C 688.709,557.403 692.042,558.403 695.5,559C 693.5,559.333 691.5,559.667 689.5,560C 694.931,560.115 698.931,561.115 701.5,563C 700.167,563.333 698.833,563.667 697.5,564C 700.709,565.403 704.042,566.403 707.5,567C 705.5,567.333 703.5,567.667 701.5,568C 706.931,568.115 710.931,569.115 713.5,571C 712.167,571.333 710.833,571.667 709.5,572C 712.709,573.403 716.042,574.403 719.5,575C 717.5,575.333 715.5,575.667 713.5,576C 718.931,576.115 722.931,577.115 725.5,579C 724.167,579.333 722.833,579.667 721.5,580C 724.833,581 728.167,582 731.5,583C 729.5,583.333 727.5,583.667 725.5,584C 730.931,584.115 734.931,585.115 737.5,587C 736.167,587.333 734.833,587.667 733.5,588C 736.709,589.403 740.042,590.403 743.5,591C 741.5,591.333 739.5,591.667 737.5,592C 740.167,592.333 742.833,592.667 745.5,593C 744.833,593.333 744.167,593.667 743.5,594C 745.5,594.333 747.5,594.667 749.5,595C 748.167,595.333 746.833,595.667 745.5,596C 747.382,596.198 749.048,596.698 750.5,597.5C 712.582,593.618 674.582,592.618 636.5,594.5C 646.08,576.333 656.413,558.666 667.5,541.5 Z"/></g>
<g><path style="opacity:0.008" fill="#d4d9db" d="M 1360.5,558.5 C 1361.91,558.973 1362.57,559.973 1362.5,561.5C 1361.09,561.027 1360.43,560.027 1360.5,558.5 Z"/></g>
<g><path style="opacity:0.004" fill="#d9dee0" d="M 1370.5,572.5 C 1371.91,572.973 1372.57,573.973 1372.5,575.5C 1371.09,575.027 1370.43,574.027 1370.5,572.5 Z"/></g>
<g><path style="opacity:0.169" fill="#cdd1d5" d="M 1373.5,577.5 C 1375.25,578.659 1376.25,580.326 1376.5,582.5C 1374.75,581.341 1373.75,579.674 1373.5,577.5 Z"/></g>
<g><path style="opacity:0.22" fill="#c1c8cb" d="M 1378.5,586.5 C 1380.29,588.426 1381.29,590.759 1381.5,593.5C 1379.71,591.574 1378.71,589.241 1378.5,586.5 Z"/></g>
<g><path style="opacity:0.996" fill="#93487a" d="M 560.5,594.5 C 562.956,596.818 564.289,599.818 564.5,603.5C 565.5,603.5 566.5,603.5 567.5,603.5C 564.054,604.687 560.387,605.354 556.5,605.5C 557.065,601.463 558.399,597.797 560.5,594.5 Z"/></g>
<g><path style="opacity:0.51" fill="#c0c0c3" d="M 767.5,596.5 C 767.414,597.496 767.748,598.329 768.5,599C 770.382,599.198 772.048,599.698 773.5,600.5C 770.43,600.632 767.43,600.299 764.5,599.5C 765.167,598.167 766.167,597.167 767.5,596.5 Z"/></g>
<g><path style="opacity:0.004" fill="#c9d0d1" d="M 1385.5,604.5 C 1387.42,608.163 1388.42,612.163 1388.5,616.5C 1386.9,612.761 1385.9,608.761 1385.5,604.5 Z"/></g>
<g><path style="opacity:0.079" fill="#d2d7d9" d="M 1388.5,617.5 C 1390.02,620.534 1390.85,623.867 1391,627.5C 1391.82,637.009 1391.66,646.343 1390.5,655.5C 1390.89,642.761 1390.23,630.094 1388.5,617.5 Z"/></g>
<g><path style="opacity:0.331" fill="#d6d3d3" d="M 425.5,640.5 C 426.434,641.568 426.768,642.901 426.5,644.5C 424.858,646.081 422.858,646.747 420.5,646.5C 421.848,645.399 423.348,644.399 425,643.5C 425.483,642.552 425.649,641.552 425.5,640.5 Z"/></g>
<g><path style="opacity:1" fill="#708287" d="M 1520.5,637.5 C 1521.88,642.944 1522.55,648.611 1522.5,654.5C 1521.12,649.056 1520.45,643.389 1520.5,637.5 Z"/></g>
<g><path style="opacity:0.914" fill="#a3afb2" d="M 1386.5,678.5 C 1385.98,682.222 1385.15,685.888 1384,689.5C 1383.62,690.056 1383.12,690.389 1382.5,690.5C 1383.26,686.216 1384.59,682.216 1386.5,678.5 Z"/></g>
<g><path style="opacity:1" fill="#929fa4" d="M 1382.5,690.5 C 1382.83,693.491 1381.83,695.824 1379.5,697.5C 1379.93,694.843 1380.93,692.509 1382.5,690.5 Z"/></g>
<g><path style="opacity:0.231" fill="#d4dadb" d="M 1373.5,709.5 C 1373.25,711.674 1372.25,713.341 1370.5,714.5C 1370.75,712.326 1371.75,710.659 1373.5,709.5 Z"/></g>
<g><path style="opacity:0.545" fill="#95a2a7" d="M 324.5,718.5 C 324.59,721.152 323.924,723.485 322.5,725.5C 322.41,722.848 323.076,720.515 324.5,718.5 Z"/></g>
<g><path style="opacity:0.259" fill="#bfc8ca" d="M 1099.5,723.5 C 1103.82,724.992 1107.82,726.992 1111.5,729.5C 1106.91,728.54 1102.91,726.54 1099.5,723.5 Z"/></g>
<g><path style="opacity:0.737" fill="#a1adb0" d="M 1363.5,724.5 C 1362.58,727.089 1360.91,729.089 1358.5,730.5C 1359.42,727.911 1361.09,725.911 1363.5,724.5 Z"/></g>
<g><path style="opacity:0.855" fill="#8a989d" d="M 1356.5,732.5 C 1353.17,737.833 1348.83,742.167 1343.5,745.5C 1347.5,740.833 1351.83,736.5 1356.5,732.5 Z"/></g>
<g><path style="opacity:0.659" fill="#bcc5c7" d="M 1338.5,749.5 C 1336.56,752.471 1333.89,754.471 1330.5,755.5C 1332.8,753.016 1335.47,751.016 1338.5,749.5 Z"/></g>
<g><path style="opacity:0.922" fill="#ccd3d5" d="M 1327.5,757.5 C 1327.03,758.906 1326.03,759.573 1324.5,759.5C 1324.97,758.094 1325.97,757.427 1327.5,757.5 Z"/></g>
<g><path style="opacity:0.345" fill="#b1babd" d="M 1174.5,758.5 C 1177.54,758.733 1180.21,759.733 1182.5,761.5C 1179.46,761.267 1176.79,760.267 1174.5,758.5 Z"/></g>
<g><path style="opacity:0.176" fill="#d2d9da" d="M 1322.5,760.5 C 1321.34,762.25 1319.67,763.25 1317.5,763.5C 1318.66,761.75 1320.33,760.75 1322.5,760.5 Z"/></g>
<g><path style="opacity:0.478" fill="#b6bfc2" d="M 1191.5,764.5 C 1195.78,765.261 1199.78,766.595 1203.5,768.5C 1199.08,768.139 1195.08,766.806 1191.5,764.5 Z"/></g>
<g><path style="opacity:0.008" fill="#c7cdd0" d="M 1203.5,768.5 C 1206.15,768.41 1208.49,769.076 1210.5,770.5C 1207.85,770.59 1205.51,769.924 1203.5,768.5 Z"/></g>
<g><path style="opacity:0.769" fill="#abb6b9" d="M 1218.5,772.5 C 1237.99,776.541 1257.66,777.874 1277.5,776.5C 1257.56,779.741 1237.89,778.407 1218.5,772.5 Z"/></g>
<g><path style="opacity:0.337" fill="#c0c8ca" d="M 730.5,844.5 C 721.959,841.369 713.959,842.369 706.5,847.5C 706.953,846.542 707.619,845.708 708.5,845C 715.954,840.692 723.287,840.525 730.5,844.5 Z"/></g>
<g><path style="opacity:0.992" fill="#abb6ba" d="M 734.5,846.5 C 737.5,847.5 739.5,849.5 740.5,852.5C 738.167,850.833 736.167,848.833 734.5,846.5 Z"/></g>
<g><path style="opacity:0.016" fill="#dfe3e5" d="M 705.5,848.5 C 704.738,850.262 703.404,851.262 701.5,851.5C 702.262,849.738 703.596,848.738 705.5,848.5 Z"/></g>
<g><path style="opacity:0.522" fill="#c6cdcf" d="M 741.5,854.5 C 742.966,855.347 743.8,856.68 744,858.5C 744.81,862.358 744.643,866.024 743.5,869.5C 743.818,864.341 743.152,859.341 741.5,854.5 Z"/></g>
<g><path style="opacity:0.855" fill="#c2c9cc" d="M 740.5,876.5 C 737.833,881.167 734.167,884.833 729.5,887.5C 732.833,883.5 736.5,879.833 740.5,876.5 Z"/></g>
<g><path style="opacity:0.965" fill="#9da8ac" d="M 709.5,904.5 C 708.089,906.914 706.089,908.581 703.5,909.5C 704.911,907.086 706.911,905.419 709.5,904.5 Z"/></g>
<g><path style="opacity:0.784" fill="#a5b0b4" d="M 703.5,909.5 C 702.415,911.587 700.749,912.92 698.5,913.5C 699.585,911.413 701.251,910.08 703.5,909.5 Z"/></g>
<g><path style="opacity:0.702" fill="#95a2a7" d="M 190.5,910.5 C 189.92,912.749 188.587,914.415 186.5,915.5C 187.08,913.251 188.413,911.585 190.5,910.5 Z"/></g>
<g><path style="opacity:0.318" fill="#9ca8ad" d="M 183.5,919.5 C 182.92,921.749 181.587,923.415 179.5,924.5C 180.08,922.251 181.413,920.585 183.5,919.5 Z"/></g>
<g><path style="opacity:0.263" fill="#c9d1d2" d="M 378.5,945.5 C 379.906,945.973 380.573,946.973 380.5,948.5C 379.094,948.027 378.427,947.027 378.5,945.5 Z"/></g>
<g><path style="opacity:0.347" fill="#9b9ab3" d="M 428.5,945.5 C 430.797,948.807 433.13,952.14 435.5,955.5C 430.72,953.956 428.387,950.623 428.5,945.5 Z"/></g>
<g><path style="opacity:0.2" fill="#dbe1e2" d="M 381.5,950.5 C 382.906,950.973 383.573,951.973 383.5,953.5C 382.094,953.027 381.427,952.027 381.5,950.5 Z"/></g>
<g><path style="opacity:0.337" fill="#d4dadb" d="M 385.5,957.5 C 386.906,957.973 387.573,958.973 387.5,960.5C 386.094,960.027 385.427,959.027 385.5,957.5 Z"/></g>
<g><path style="opacity:0.302" fill="#dfe3e4" d="M 388.5,962.5 C 389.906,962.973 390.573,963.973 390.5,965.5C 389.094,965.027 388.427,964.027 388.5,962.5 Z"/></g>
<g><path style="opacity:0.31" fill="#cdd3d5" d="M 391.5,967.5 C 392.906,967.973 393.573,968.973 393.5,970.5C 392.094,970.027 391.427,969.027 391.5,967.5 Z"/></g>
<g><path style="opacity:0.808" fill="#bac2c5" d="M 397.5,976.5 C 400.243,978.239 402.243,980.573 403.5,983.5C 400.757,981.761 398.757,979.427 397.5,976.5 Z"/></g>
<g><path style="opacity:1" fill="#b2bbbf" d="M 403.5,983.5 C 407.167,986.5 410.5,989.833 413.5,993.5C 409.167,991.167 405.833,987.833 403.5,983.5 Z"/></g>
<g><path style="opacity:0.004" fill="#dbe0e1" d="M 413.5,993.5 C 415.749,994.08 417.415,995.413 418.5,997.5C 416.251,996.92 414.585,995.587 413.5,993.5 Z"/></g>
<g><path style="opacity:0.008" fill="#dee2e3" d="M 419.5,998.5 C 421.027,998.427 422.027,999.094 422.5,1000.5C 420.973,1000.57 419.973,999.906 419.5,998.5 Z"/></g>
<g><path style="opacity:0.012" fill="#d0d6d8" d="M 426.5,1003.5 C 428.027,1003.43 429.027,1004.09 429.5,1005.5C 427.973,1005.57 426.973,1004.91 426.5,1003.5 Z"/></g>
<g><path style="opacity:0.208" fill="#cdd3d6" d="M 560.5,1004.5 C 558.664,1006.59 556.331,1007.92 553.5,1008.5C 555.336,1006.41 557.669,1005.08 560.5,1004.5 Z"/></g>
<g><path style="opacity:0.004" fill="#e7eaeb" d="M 431.5,1006.5 C 433.027,1006.43 434.027,1007.09 434.5,1008.5C 432.973,1008.57 431.973,1007.91 431.5,1006.5 Z"/></g>
<g><path style="opacity:0.769" fill="#b4bdc0" d="M 533.5,1017.5 C 529.288,1020.06 524.622,1021.39 519.5,1021.5C 523.978,1019.88 528.645,1018.54 533.5,1017.5 Z"/></g>
<g><path style="opacity:0.092" fill="#c4cbcd" d="M 474.5,1022.5 C 485.143,1023.35 495.81,1023.68 506.5,1023.5C 502.18,1024.17 497.68,1024.5 493,1024.5C 486.586,1024.71 480.419,1024.04 474.5,1022.5 Z"/></g>
<g><path style="opacity:0.008" fill="#d1d5d7" d="M 1257.5,1081.5 C 1257.03,1082.91 1256.03,1083.57 1254.5,1083.5C 1254.97,1082.09 1255.97,1081.43 1257.5,1081.5 Z"/></g>
<g><path style="opacity:0.004" fill="#e6e9ea" d="M 1251.5,1086.5 C 1251.03,1087.91 1250.03,1088.57 1248.5,1088.5C 1248.97,1087.09 1249.97,1086.43 1251.5,1086.5 Z"/></g>
<g><path style="opacity:0.004" fill="#eff1f1" d="M 1246.5,1090.5 C 1245.42,1092.59 1243.75,1093.92 1241.5,1094.5C 1242.58,1092.41 1244.25,1091.08 1246.5,1090.5 Z"/></g>
<g><path style="opacity:0.012" fill="#eff1f2" d="M 1239.5,1096.5 C 1237.43,1099.57 1234.76,1101.91 1231.5,1103.5C 1233.57,1100.43 1236.24,1098.09 1239.5,1096.5 Z"/></g>
<g><path style="opacity:1" fill="#7d8d92" d="M 91.5,1099.5 C 90.9431,1104.16 89.6098,1108.5 87.5,1112.5C 88.0569,1107.84 89.3902,1103.5 91.5,1099.5 Z"/></g>
<g><path style="opacity:0.004" fill="#dfe3e4" d="M 1219.5,1115.5 C 1219.26,1117.4 1218.26,1118.74 1216.5,1119.5C 1216.74,1117.6 1217.74,1116.26 1219.5,1115.5 Z"/></g>
<g><path style="opacity:0.729" fill="#8f9ea3" d="M 87.5,1112.5 C 87.5905,1115.15 86.9238,1117.49 85.5,1119.5C 85.4095,1116.85 86.0762,1114.51 87.5,1112.5 Z"/></g>
<g><path style="opacity:0.004" fill="#dde1e2" d="M 1211.5,1124.5 C 1211.57,1126.03 1210.91,1127.03 1209.5,1127.5C 1209.43,1125.97 1210.09,1124.97 1211.5,1124.5 Z"/></g>
<g><path style="opacity:0.004" fill="#d1d7d9" d="M 1206.5,1130.5 C 1206.57,1132.03 1205.91,1133.03 1204.5,1133.5C 1204.43,1131.97 1205.09,1130.97 1206.5,1130.5 Z"/></g>
<g><path style="opacity:0.004" fill="#ced4d6" d="M 1199.5,1139.5 C 1199.57,1141.03 1198.91,1142.03 1197.5,1142.5C 1197.43,1140.97 1198.09,1139.97 1199.5,1139.5 Z"/></g>
<g><path style="opacity:0.008" fill="#cbd1d5" d="M 1196.5,1143.5 C 1196.57,1145.03 1195.91,1146.03 1194.5,1146.5C 1194.43,1144.97 1195.09,1143.97 1196.5,1143.5 Z"/></g>
<g><path style="opacity:0.004" fill="#d5dadc" d="M 1194.5,1146.5 C 1194.57,1148.03 1193.91,1149.03 1192.5,1149.5C 1192.43,1147.97 1193.09,1146.97 1194.5,1146.5 Z"/></g>
<g><path style="opacity:0.004" fill="#d8dde0" d="M 1188.5,1155.5 C 1188.57,1157.03 1187.91,1158.03 1186.5,1158.5C 1186.43,1156.97 1187.09,1155.97 1188.5,1155.5 Z"/></g>
<g><path style="opacity:0.18" fill="#cad0d3" d="M 1171.5,1184.5 C 1171.25,1186.67 1170.25,1188.34 1168.5,1189.5C 1168.75,1187.33 1169.75,1185.66 1171.5,1184.5 Z"/></g>
<g><path style="opacity:0.2" fill="#c1c8cc" d="M 1164.5,1197.5 C 1164.29,1200.24 1163.29,1202.57 1161.5,1204.5C 1161.71,1201.76 1162.71,1199.43 1164.5,1197.5 Z"/></g>
<g><path style="opacity:0.004" fill="#c9d0d2" d="M 1135.5,1273.5 C 1135.59,1276.15 1134.92,1278.49 1133.5,1280.5C 1133.41,1277.85 1134.08,1275.51 1135.5,1273.5 Z"/></g>
<g><path style="opacity:0.224" fill="#c3cacd" d="M 388.5,1334.5 C 375.813,1334.32 363.147,1334.65 350.5,1335.5C 351.952,1334.7 353.618,1334.2 355.5,1334C 366.674,1333.17 377.674,1333.34 388.5,1334.5 Z"/></g>
<g><path style="opacity:0.176" fill="#d4d9db" d="M 349.5,1335.5 C 345.058,1336.99 340.391,1337.99 335.5,1338.5C 339.833,1336.5 344.5,1335.5 349.5,1335.5 Z"/></g>
<g><path style="opacity:0.322" fill="#bfc8cb" d="M 835.5,1335.5 C 839.79,1335.2 843.79,1335.86 847.5,1337.5C 843.295,1337.28 839.295,1336.62 835.5,1335.5 Z"/></g>
<g><path style="opacity:1" fill="#b9c2c5" d="M 409.5,1338.5 C 414.289,1338.65 418.622,1339.99 422.5,1342.5C 417.951,1341.54 413.617,1340.2 409.5,1338.5 Z"/></g>
<g><path style="opacity:0.027" fill="#d5dadc" d="M 796.5,1335.5 C 788.619,1337.14 780.619,1338.81 772.5,1340.5C 780.07,1337.28 788.07,1335.61 796.5,1335.5 Z"/></g>
<g><path style="opacity:0.045" fill="#e2e5e7" d="M 334.5,1338.5 C 332.485,1339.92 330.152,1340.59 327.5,1340.5C 329.515,1339.08 331.848,1338.41 334.5,1338.5 Z"/></g>
<g><path style="opacity:0.965" fill="#aeb8bb" d="M 855.5,1339.5 C 860.915,1340.19 865.915,1341.86 870.5,1344.5C 865.216,1343.41 860.216,1341.74 855.5,1339.5 Z"/></g>
<g><path style="opacity:0.333" fill="#cbd2d3" d="M 766.5,1342.5 C 764.11,1344.02 761.443,1345.02 758.5,1345.5C 760.684,1343.42 763.351,1342.42 766.5,1342.5 Z"/></g>
<g><path style="opacity:0.063" fill="#c4cbce" d="M 422.5,1342.5 C 425.831,1342.02 428.497,1343.02 430.5,1345.5C 427.557,1345.02 424.89,1344.02 422.5,1342.5 Z"/></g>
<g><path style="opacity:1" fill="#97a4a9" d="M 432.5,1346.5 C 435.491,1346.17 437.824,1347.17 439.5,1349.5C 436.759,1349.29 434.426,1348.29 432.5,1346.5 Z"/></g>
<g><path style="opacity:0.235" fill="#c4cbce" d="M 309.5,1347.5 C 307.819,1349.01 305.819,1350.01 303.5,1350.5C 304.911,1348.46 306.911,1347.46 309.5,1347.5 Z"/></g>
<g><path style="opacity:0.173" fill="#d2d9da" d="M 439.5,1349.5 C 441.027,1349.43 442.027,1350.09 442.5,1351.5C 440.973,1351.57 439.973,1350.91 439.5,1349.5 Z"/></g>
<g><path style="opacity:0.329" fill="#ced4d5" d="M 889.5,1353.5 C 891.027,1353.43 892.027,1354.09 892.5,1355.5C 890.973,1355.57 889.973,1354.91 889.5,1353.5 Z"/></g>
<g><path style="opacity:0.341" fill="#d0d6d9" d="M 448.5,1354.5 C 450.027,1354.43 451.027,1355.09 451.5,1356.5C 449.973,1356.57 448.973,1355.91 448.5,1354.5 Z"/></g>
<g><path style="opacity:0.004" fill="#ecefef" d="M 738.5,1355.5 C 738.027,1356.91 737.027,1357.57 735.5,1357.5C 735.973,1356.09 736.973,1355.43 738.5,1355.5 Z"/></g>
<g><path style="opacity:0.424" fill="#b0babe" d="M 1118.5,1348.5 C 1118.04,1355.38 1117.04,1362.05 1115.5,1368.5C 1115.58,1361.57 1116.58,1354.9 1118.5,1348.5 Z"/></g>
<g><path style="opacity:0.004" fill="#ecefef" d="M 285.5,1361.5 C 285.027,1362.91 284.027,1363.57 282.5,1363.5C 282.973,1362.09 283.973,1361.43 285.5,1361.5 Z"/></g>
<g><path style="opacity:1" fill="#a9b4b7" d="M 463.5,1364.5 C 465.749,1365.08 467.415,1366.41 468.5,1368.5C 466.251,1367.92 464.585,1366.59 463.5,1364.5 Z"/></g>
<g><path style="opacity:0.004" fill="#e7eaeb" d="M 281.5,1364.5 C 281.027,1365.91 280.027,1366.57 278.5,1366.5C 278.973,1365.09 279.973,1364.43 281.5,1364.5 Z"/></g>
<g><path style="opacity:1" fill="#b1bbbe" d="M 468.5,1368.5 C 471.764,1370.09 474.431,1372.43 476.5,1375.5C 473.236,1373.91 470.569,1371.57 468.5,1368.5 Z"/></g>
<g><path style="opacity:0.376" fill="#b5bec1" d="M 907.5,1365.5 C 909.749,1366.08 911.415,1367.41 912.5,1369.5C 910.251,1368.92 908.585,1367.59 907.5,1365.5 Z"/></g>
<g><path style="opacity:0.004" fill="#e9eced" d="M 720.5,1368.5 C 719.738,1370.26 718.404,1371.26 716.5,1371.5C 717.262,1369.74 718.596,1368.74 720.5,1368.5 Z"/></g>
<g><path style="opacity:0.992" fill="#b4bec1" d="M 912.5,1369.5 C 915.764,1371.09 918.431,1373.43 920.5,1376.5C 917.236,1374.91 914.569,1372.57 912.5,1369.5 Z"/></g>
<g><path style="opacity:0.227" fill="#f6f7f7" d="M 276.5,1368.5 C 275.415,1370.59 273.749,1371.92 271.5,1372.5C 272.585,1370.41 274.251,1369.08 276.5,1368.5 Z"/></g>
<g><path style="opacity:0.106" fill="#d7dcde" d="M 713.5,1374.5 C 711.5,1377.17 709.167,1379.5 706.5,1381.5C 707.833,1378.17 710.167,1375.83 713.5,1374.5 Z"/></g>
<g><path style="opacity:0.004" fill="#ced4d6" d="M 924.5,1380.5 C 926.914,1381.91 928.581,1383.91 929.5,1386.5C 927.086,1385.09 925.419,1383.09 924.5,1380.5 Z"/></g>
<g><path style="opacity:0.008" fill="#e3e6e8" d="M 261.5,1382.5 C 261.262,1384.4 260.262,1385.74 258.5,1386.5C 258.738,1384.6 259.738,1383.26 261.5,1382.5 Z"/></g>
<g><path style="opacity:0.004" fill="#cbd1d3" d="M 485.5,1384.5 C 486.906,1384.97 487.573,1385.97 487.5,1387.5C 486.094,1387.03 485.427,1386.03 485.5,1384.5 Z"/></g>
<g><path style="opacity:0.047" fill="#e2e6e7" d="M 703.5,1384.5 C 702.243,1387.43 700.243,1389.76 697.5,1391.5C 698.757,1388.57 700.757,1386.24 703.5,1384.5 Z"/></g>
<g><path style="opacity:0.004" fill="#d9dddf" d="M 489.5,1389.5 C 490.906,1389.97 491.573,1390.97 491.5,1392.5C 490.094,1392.03 489.427,1391.03 489.5,1389.5 Z"/></g>
<g><path style="opacity:0.008" fill="#dce0e2" d="M 932.5,1389.5 C 933.906,1389.97 934.573,1390.97 934.5,1392.5C 933.094,1392.03 932.427,1391.03 932.5,1389.5 Z"/></g>
<g><path style="opacity:0.024" fill="#e2e6e7" d="M 255.5,1389.5 C 255.262,1391.4 254.262,1392.74 252.5,1393.5C 252.738,1391.6 253.738,1390.26 255.5,1389.5 Z"/></g>
<g><path style="opacity:0.035" fill="#e1e5e6" d="M 697.5,1391.5 C 697.262,1393.4 696.262,1394.74 694.5,1395.5C 694.738,1393.6 695.738,1392.26 697.5,1391.5 Z"/></g>
<g><path style="opacity:0.016" fill="#d2d8da" d="M 251.5,1394.5 C 251.573,1396.03 250.906,1397.03 249.5,1397.5C 249.427,1395.97 250.094,1394.97 251.5,1394.5 Z"/></g>
<g><path style="opacity:0.004" fill="#dee2e4" d="M 694.5,1395.5 C 694.573,1397.03 693.906,1398.03 692.5,1398.5C 692.427,1396.97 693.094,1395.97 694.5,1395.5 Z"/></g>
<g><path style="opacity:0.004" fill="#d6dadc" d="M 494.5,1396.5 C 495.906,1396.97 496.573,1397.97 496.5,1399.5C 495.094,1399.03 494.427,1398.03 494.5,1396.5 Z"/></g>
<g><path style="opacity:0.004" fill="#e0e4e5" d="M 249.5,1397.5 C 249.573,1399.03 248.906,1400.03 247.5,1400.5C 247.427,1398.97 248.094,1397.97 249.5,1397.5 Z"/></g>
<g><path style="opacity:0.004" fill="#dee1e3" d="M 496.5,1399.5 C 497.906,1399.97 498.573,1400.97 498.5,1402.5C 497.094,1402.03 496.427,1401.03 496.5,1399.5 Z"/></g>
<g><path style="opacity:0.004" fill="#ebeced" d="M 247.5,1400.5 C 247.573,1402.03 246.906,1403.03 245.5,1403.5C 245.427,1401.97 246.094,1400.97 247.5,1400.5 Z"/></g>
<g><path style="opacity:0.004" fill="#dee2e3" d="M 691.5,1399.5 C 691.25,1401.67 690.25,1403.34 688.5,1404.5C 688.75,1402.33 689.75,1400.66 691.5,1399.5 Z"/></g>
<g><path style="opacity:0.021" fill="#c5cbce" d="M 1113.5,1387.5 C 1112.79,1398.01 1111.79,1408.34 1110.5,1418.5C 1110.26,1407.9 1111.26,1397.57 1113.5,1387.5 Z"/></g>
<g><path style="opacity:0.008" fill="#d3d8da" d="M 498.5,1402.5 C 499.906,1402.97 500.573,1403.97 500.5,1405.5C 499.094,1405.03 498.427,1404.03 498.5,1402.5 Z"/></g>
<g><path style="opacity:0.004" fill="#dee3e4" d="M 245.5,1403.5 C 245.573,1405.03 244.906,1406.03 243.5,1406.5C 243.427,1404.97 244.094,1403.97 245.5,1403.5 Z"/></g>
<g><path style="opacity:0.008" fill="#d9dee0" d="M 688.5,1404.5 C 688.573,1406.03 687.906,1407.03 686.5,1407.5C 686.427,1405.97 687.094,1404.97 688.5,1404.5 Z"/></g>
<g><path style="opacity:1" fill="#99a4a8" d="M 944.5,1407.5 C 946.796,1408.73 948.13,1410.73 948.5,1413.5C 946.684,1411.88 945.351,1409.88 944.5,1407.5 Z"/></g>
<g><path style="opacity:0.008" fill="#d7ddde" d="M 501.5,1407.5 C 502.906,1407.97 503.573,1408.97 503.5,1410.5C 502.094,1410.03 501.427,1409.03 501.5,1407.5 Z"/></g>
<g><path style="opacity:0.004" fill="#e2e5e7" d="M 242.5,1408.5 C 242.573,1410.03 241.906,1411.03 240.5,1411.5C 240.427,1409.97 241.094,1408.97 242.5,1408.5 Z"/></g>
<g><path style="opacity:0.008" fill="#dfe3e4" d="M 685.5,1409.5 C 685.573,1411.03 684.906,1412.03 683.5,1412.5C 683.427,1410.97 684.094,1409.97 685.5,1409.5 Z"/></g>
<g><path style="opacity:0.463" fill="#c4cbce" d="M 240.5,1411.5 C 240.008,1413.82 239.008,1415.82 237.5,1417.5C 237.461,1414.91 238.461,1412.91 240.5,1411.5 Z"/></g>
<g><path style="opacity:0.059" fill="#d9dedf" d="M 508.5,1420.5 C 510.293,1422.43 511.293,1424.76 511.5,1427.5C 509.707,1425.57 508.707,1423.24 508.5,1420.5 Z"/></g>
<g><path style="opacity:0.424" fill="#c5ccce" d="M 674.5,1432.5 C 672.143,1441.27 669.81,1449.94 667.5,1458.5C 668.295,1449.31 670.628,1440.65 674.5,1432.5 Z"/></g>
<g><path style="opacity:0.824" fill="#c1c9cb" d="M 957.5,1434.5 C 960.724,1441.39 962.724,1448.72 963.5,1456.5C 961.211,1449.35 959.211,1442.02 957.5,1434.5 Z"/></g>
<g><path style="opacity:0.025" fill="#cdd3d5" d="M 227.5,1443.5 C 226.53,1449.7 225.196,1455.7 223.5,1461.5C 223.704,1455.13 225.037,1449.13 227.5,1443.5 Z"/></g>
<g><path style="opacity:0.2" fill="#c9cfd2" d="M 1110.5,1418.5 C 1110.46,1431.02 1109.79,1443.35 1108.5,1455.5C 1108.2,1442.96 1108.87,1430.63 1110.5,1418.5 Z"/></g>
<g><path style="opacity:0.169" fill="#c3cacd" d="M 518.5,1448.5 C 520.375,1453.21 521.375,1458.21 521.5,1463.5C 519.882,1458.74 518.882,1453.74 518.5,1448.5 Z"/></g>
</svg>
