<?xml version="1.0" encoding="UTF-8" standalone="no"?>
<svg
   width="100%"
   height="100%"
   viewBox="0 0 123 123"
   version="1.1"
   xml:space="preserve"
   style="fill-rule:evenodd;clip-rule:evenodd;stroke-linejoin:round;stroke-miterlimit:1.41421;"
   id="svg838"
   xmlns:xlink="http://www.w3.org/1999/xlink"
   xmlns="http://www.w3.org/2000/svg"
   xmlns:svg="http://www.w3.org/2000/svg"><defs
     id="defs842"><linearGradient
       id="linearGradient1048"><stop
         style="stop-color:#0066ff;stop-opacity:1"
         offset="0"
         id="stop1044" /><stop
         style="stop-color:#ff5599;stop-opacity:1"
         offset="1"
         id="stop1046" /></linearGradient><linearGradient
       xlink:href="#linearGradient1048"
       id="linearGradient1050"
       x1="7.0459352"
       y1="25.656425"
       x2="115.63706"
       y2="104.41182"
       gradientUnits="userSpaceOnUse" /></defs><path
     d="M116.168,34.754c0,-15.003 -12.18,-27.183 -27.183,-27.183l-55.287,0c-15.003,0 -27.183,12.18 -27.183,27.183l0,54.366c0,15.003 12.18,27.183 27.183,27.183l55.287,0c15.003,0 27.183,-12.18 27.183,-27.183l0,-54.366Z"
     style="fill:url(#linearGradient1050);fill-opacity:1"
     id="path824" /><rect
     x="7.27"
     y="32.942295"
     width="48.944"
     height="6.5697846"
     style="fill:#ffffff;stroke-width:1.16992"
     id="rect828" /><path
     d="M 62.912,36.390875 47.639,49.861373 47.778,22.593 Z"
     style="fill:#ffffff;stroke-width:1.20624"
     id="path830" /><rect
     x="86.337997"
     y="79.511925"
     width="22.048"
     height="6.9237413"
     style="fill:#ffffff;stroke-width:1.20102"
     id="rect832" /><rect
     x="71.217186"
     y="10.716"
     width="6.6536326"
     height="103.70908"
     style="fill:#ffffff;stroke-width:1.34649"
     id="rect836" /><path
     d="m 115.50627,83.137481 -15.273,13.470498 0.139,-27.268373 z"
     style="fill:#ffffff;stroke-width:1.20624"
     id="path924" /><rect
     x="62.914001"
     y="30.672001"
     width="23.26"
     height="62.041"
     style="fill:#ffcc00;fill-opacity:1"
     id="rect826" /><rect
     style="fill:#ffffff;stroke:#ffffff;stroke-width:0.860344"
     id="rect1"
     width="33.942535"
     height="22.438938"
     x="15.681252"
     y="83.640968" /><g
     id="g2"
     transform="translate(0.65935445)"><rect
       style="clip-rule:evenodd;fill:#ffffff;fill-rule:evenodd;stroke:#ffffff;stroke-linejoin:round;stroke-miterlimit:1.41421"
       id="rect2-7"
       width="5.8402877"
       height="11.503597"
       x="36.200718"
       y="70.047836" /><rect
       style="fill:#ffffff;stroke:#ffffff"
       id="rect2"
       width="5.8402877"
       height="11.503597"
       x="21.945324"
       y="70.047836" /></g></svg>
